<svg width="24" height="24" viewBox="0 0 24 24" fill="none" xmlns="http://www.w3.org/2000/svg">
<path d="M16.25 7.5V17.5H17.75V7.5H16.25ZM16 17.75H8V19.25H16V17.75ZM7.75 17.5V7.5H6.25V17.5H7.75ZM8 17.75C7.86193 17.75 7.75 17.6381 7.75 17.5H6.25C6.25 18.4665 7.0335 19.25 8 19.25V17.75ZM16.25 17.5C16.25 17.6381 16.1381 17.75 16 17.75V19.25C16.9665 19.25 17.75 18.4665 17.75 17.5H16.25ZM17.75 7.5C17.75 6.5335 16.9665 5.75 16 5.75V7.25C16.1381 7.25 16.25 7.36193 16.25 7.5H17.75ZM7.75 7.5C7.75 7.36193 7.86193 7.25 8 7.25V5.75C7.0335 5.75 6.25 6.5335 6.25 7.5H7.75Z" fill="#35414F"/>
<rect x="9" y="5.5" width="6" height="4" rx="1" stroke="#35414F" stroke-width="1.5"/>
</svg>
