<svg width="11" height="11" viewBox="0 0 11 11" fill="none" xmlns="http://www.w3.org/2000/svg">
<path d="M10.574 9.12398L7.44201 5.9949L10.574 2.86486C10.6871 2.77109 10.7793 2.65477 10.8448 2.52335C10.9103 2.39193 10.9477 2.2483 10.9545 2.10163C10.9613 1.95496 10.9374 1.8085 10.8843 1.67158C10.8313 1.53467 10.7502 1.41032 10.6463 1.3065C10.5424 1.20268 10.418 1.12167 10.281 1.06864C10.144 1.01561 9.99745 0.991738 9.8507 0.998539C9.70394 1.00534 9.56021 1.04266 9.42871 1.10814C9.29721 1.17361 9.18083 1.2658 9.08701 1.37878L5.954 4.50883L2.821 1.37878C2.72718 1.2658 2.6108 1.17361 2.4793 1.10814C2.3478 1.04266 2.20407 1.00534 2.05732 0.998539C1.91056 0.991738 1.764 1.01561 1.627 1.06864C1.49 1.12167 1.36558 1.20268 1.26169 1.3065C1.15781 1.41032 1.07675 1.53467 1.02369 1.67158C0.970623 1.8085 0.94672 1.95496 0.953526 2.10163C0.960332 2.2483 0.997692 2.39193 1.06321 2.52335C1.12872 2.65477 1.22095 2.77109 1.334 2.86486L4.46601 5.9949L1.334 9.12497C1.22095 9.21873 1.12872 9.33504 1.06321 9.46646C0.997692 9.59788 0.960332 9.74151 0.953526 9.88818C0.94672 10.0348 0.970623 10.1813 1.02369 10.3182C1.07675 10.4552 1.15781 10.5795 1.26169 10.6833C1.36558 10.7871 1.49 10.8681 1.627 10.9212C1.764 10.9742 1.91056 10.9981 2.05732 10.9913C2.20407 10.9845 2.3478 10.9471 2.4793 10.8817C2.6108 10.8162 2.72718 10.724 2.821 10.611L5.954 7.48598L9.08701 10.616C9.18083 10.729 9.29721 10.8212 9.42871 10.8867C9.56021 10.9521 9.70394 10.9895 9.8507 10.9963C9.99745 11.0031 10.144 10.9792 10.281 10.9262C10.418 10.8731 10.5424 10.7921 10.6463 10.6883C10.7502 10.5845 10.8313 10.4601 10.8843 10.3232C10.9374 10.1863 10.9613 10.0398 10.9545 9.89318C10.9477 9.74652 10.9103 9.60288 10.8448 9.47146C10.7793 9.34004 10.6871 9.22373 10.574 9.12997V9.12398Z" fill="#7481C9"/>
</svg>
