<svg width="43" height="55" viewBox="0 0 43 55" fill="none" xmlns="http://www.w3.org/2000/svg">
<path d="M38.772 54.645H3.63801C3.20987 54.6461 2.78574 54.5625 2.38999 54.3992C1.99423 54.2358 1.63465 53.9959 1.33191 53.6931C1.02916 53.3904 0.78922 53.0308 0.625864 52.6351C0.462508 52.2393 0.37896 51.8152 0.380015 51.387V3.33702C0.37896 2.90888 0.462508 2.48475 0.625864 2.08899C0.78922 1.69324 1.02916 1.33366 1.33191 1.03091C1.63465 0.728169 1.99423 0.488226 2.38999 0.324869C2.78574 0.161513 3.20987 0.0779647 3.63801 0.0790199H38.772C39.2002 0.0779647 39.6243 0.161513 40.02 0.324869C40.4158 0.488226 40.7754 0.728169 41.0781 1.03091C41.3809 1.33366 41.6208 1.69324 41.7842 2.08899C41.9475 2.48475 42.0311 2.90888 42.03 3.33702V51.426C42.0106 52.2804 41.6599 53.0938 41.052 53.6944C40.4441 54.295 39.6266 54.6359 38.772 54.645Z" fill="#EBEFF2"/>
</svg>
