<svg width="50" height="57" viewBox="0 0 50 57" fill="none" xmlns="http://www.w3.org/2000/svg">
<path d="M45.772 54.645H10.638C10.2099 54.6461 9.78574 54.5625 9.38999 54.3992C8.99423 54.2358 8.63465 53.9959 8.33191 53.6931C8.02916 53.3904 7.78922 53.0308 7.62586 52.6351C7.46251 52.2393 7.37896 51.8152 7.38001 51.387V3.33702C7.37896 2.90888 7.46251 2.48475 7.62586 2.08899C7.78922 1.69324 8.02916 1.33366 8.33191 1.03091C8.63465 0.728169 8.99423 0.488226 9.38999 0.324869C9.78574 0.161513 10.2099 0.0779647 10.638 0.0790199H45.772C46.2002 0.0779647 46.6243 0.161513 47.02 0.324869C47.4158 0.488226 47.7754 0.728169 48.0781 1.03091C48.3809 1.33366 48.6208 1.69324 48.7842 2.08899C48.9475 2.48475 49.0311 2.90888 49.03 3.33702V51.426C49.0106 52.2804 48.6599 53.0938 48.052 53.6944C47.4441 54.295 46.6266 54.6359 45.772 54.645Z" fill="#EBEFF2"/>
<path opacity="0.05" d="M21.316 53.153V33.407C21.3161 33.211 21.2776 33.017 21.2027 32.8359C21.1278 32.6548 21.0179 32.4903 20.8793 32.3517C20.7407 32.2131 20.5762 32.1032 20.3951 32.0283C20.2141 31.9534 20.02 31.9149 19.824 31.915H7.38001V51.465C7.37896 51.8931 7.46251 52.3173 7.62586 52.713C7.78922 53.1088 8.02916 53.4684 8.33191 53.7711C8.63465 54.0739 8.99423 54.3138 9.38999 54.4772C9.78574 54.6405 10.2099 54.7241 10.638 54.723H19.824C20.223 54.6927 20.5966 54.5152 20.8722 54.2252C21.1479 53.9351 21.306 53.553 21.316 53.153Z" fill="black"/>
<path d="M17.312 57H1.492C1.29603 57.0001 1.10196 56.9616 0.92088 56.8867C0.739803 56.8118 0.575274 56.7019 0.436703 56.5633C0.298132 56.4247 0.188238 56.2602 0.113304 56.0791C0.038371 55.898 -0.000131143 55.704 3.356e-07 55.508V36.548C-0.000131143 36.352 0.038371 36.1579 0.113304 35.9769C0.188238 35.7958 0.298132 35.6313 0.436703 35.4927C0.575274 35.3541 0.739803 35.2442 0.92088 35.1693C1.10196 35.0944 1.29603 35.0559 1.492 35.056H17.312C17.508 35.0559 17.702 35.0944 17.8831 35.1693C18.0642 35.2442 18.2287 35.3541 18.3673 35.4927C18.5059 35.6313 18.6158 35.7958 18.6907 35.9769C18.7656 36.1579 18.8041 36.352 18.804 36.548V55.509C18.8107 55.7067 18.7767 55.9036 18.7041 56.0876C18.6314 56.2716 18.5218 56.4387 18.3818 56.5786C18.2419 56.7184 18.0748 56.8279 17.8907 56.9004C17.7067 56.9729 17.5097 57.0068 17.312 57Z" fill="#EBEFF2"/>
<path d="M9.42102 47.185C11.4805 47.185 13.15 45.5155 13.15 43.456C13.15 41.3965 11.4805 39.727 9.42102 39.727C7.36155 39.727 5.69202 41.3965 5.69202 43.456C5.69202 45.5155 7.36155 47.185 9.42102 47.185Z" fill="white"/>
<path d="M15.034 51.034H3.768C3.64356 51.0324 3.52467 50.9823 3.43667 50.8943C3.34868 50.8063 3.29855 50.6874 3.297 50.563V50.484C3.29855 50.3596 3.34868 50.2407 3.43667 50.1527C3.52467 50.0647 3.64356 50.0146 3.768 50.013H15.034C15.1584 50.0146 15.2773 50.0647 15.3653 50.1527C15.4533 50.2407 15.5034 50.3596 15.505 50.484V50.563C15.5034 50.6874 15.4533 50.8063 15.3653 50.8943C15.2773 50.9823 15.1584 51.0324 15.034 51.034Z" fill="white"/>
<path d="M14.9171 53.389H3.65105C3.52662 53.3874 3.40772 53.3373 3.31973 53.2493C3.23173 53.1613 3.18161 53.0424 3.18005 52.918V52.839C3.18161 52.7146 3.23173 52.5957 3.31973 52.5077C3.40772 52.4197 3.52662 52.3695 3.65105 52.368H14.9171C15.0415 52.3695 15.1604 52.4197 15.2484 52.5077C15.3364 52.5957 15.3865 52.7146 15.3881 52.839V52.918C15.3733 53.0378 15.319 53.1492 15.2336 53.2346C15.1483 53.3199 15.0369 53.3743 14.9171 53.389Z" fill="white"/>
<path d="M27.2039 13.818C25.9695 13.8154 24.7467 14.056 23.6052 14.5261C22.4638 14.9961 21.4261 15.6863 20.5514 16.5574C19.6767 17.4285 18.9822 18.4633 18.5074 19.6028C18.0327 20.7422 17.787 21.9641 17.7844 23.1985C17.7819 24.4329 18.0225 25.6558 18.4925 26.7972C18.9625 27.9386 19.6528 28.9763 20.5238 29.851C21.3949 30.7257 22.4297 31.4202 23.5692 31.895C24.7087 32.3698 25.9305 32.6154 27.1649 32.618C29.1203 32.6303 31.0297 32.026 32.6219 30.891L37.0579 35.327C37.1988 35.4775 37.3683 35.5985 37.5563 35.6829C37.7444 35.7673 37.9474 35.8135 38.1535 35.8188C38.3596 35.824 38.5647 35.7882 38.7569 35.7135C38.949 35.6388 39.1244 35.5265 39.2728 35.3834C39.4211 35.2403 39.5396 35.069 39.6212 34.8797C39.7028 34.6904 39.7459 34.4867 39.748 34.2806C39.7502 34.0744 39.7113 33.8699 39.6337 33.6789C39.5561 33.4879 39.4413 33.3142 39.2959 33.168L34.8959 28.693C35.6149 27.6885 36.1284 26.5519 36.407 25.3484C36.6856 24.1449 36.7238 22.8983 36.5194 21.68C36.315 20.4618 35.872 19.2959 35.2159 18.2492C34.5598 17.2026 33.7034 16.2958 32.6959 15.581C31.0994 14.4241 29.1755 13.8065 27.2039 13.818ZM27.2039 16.959C28.4462 16.959 29.6606 17.3274 30.6935 18.0175C31.7264 18.7077 32.5314 19.6887 33.0068 20.8364C33.4822 21.9841 33.6066 23.247 33.3643 24.4654C33.1219 25.6838 32.5237 26.8029 31.6453 27.6813C30.7669 28.5597 29.6477 29.158 28.4293 29.4003C27.2109 29.6427 25.948 29.5183 24.8003 29.0429C23.6526 28.5675 22.6716 27.7624 21.9815 26.7295C21.2913 25.6966 20.9229 24.4823 20.9229 23.24C20.928 21.5757 21.5913 19.981 22.7681 18.8042C23.945 17.6274 25.5397 16.964 27.2039 16.959Z" fill="white"/>
</svg>
