<svg width="14" height="16" viewBox="0 0 14 16" fill="none" xmlns="http://www.w3.org/2000/svg">
<path d="M7.72518 15.9552C10.9348 15.5956 13.507 13.0299 13.8731 9.82032C14.3535 5.62367 11.0917 2.05128 7.00285 2.00552V0.12291C7.00285 0.0183201 6.87212 -0.0372431 6.78387 0.0281254L2.90752 2.87492C2.84215 2.92395 2.84215 3.01873 2.90752 3.06776L6.78387 5.91456C6.87212 5.97993 7.00285 5.92109 7.00285 5.81977V3.94043C9.8758 3.98619 12.1768 6.43097 11.9807 9.35294C11.814 11.8664 9.76467 13.9059 7.25126 14.066C4.58749 14.236 2.32247 12.3337 1.91719 9.81706C1.84201 9.34967 1.43346 9.00976 0.962807 9.00976C0.37776 9.00976 -0.0798199 9.52943 0.011696 10.1079C0.580402 13.6934 3.89131 16.3833 7.72518 15.9552Z" fill="#1473E6"/>
</svg>
