<svg width="36" height="36" viewBox="0 0 36 36" fill="none" xmlns="http://www.w3.org/2000/svg">
<path d="M25.6519 17.0808C24.7263 16.0357 23.6223 15.0547 22.4523 14.3125L25.0557 11.779C25.2388 11.6008 25.2388 11.3118 25.0557 11.1336C24.8726 10.9555 24.5757 10.9555 24.3926 11.1336L21.6198 13.832C20.3945 13.1942 19.1812 12.8715 18 12.8715C15.0528 12.8715 12.2671 14.914 10.348 17.0808C9.88398 17.6048 9.88398 18.3951 10.348 18.9191C11.2737 19.9643 12.3777 20.9453 13.5477 21.6875L10.9443 24.221C10.7611 24.3992 10.7611 24.6882 10.9443 24.8663C11.1274 25.0446 11.4243 25.0445 11.6074 24.8663L14.3802 22.168C15.6055 22.8057 16.8187 23.1285 18 23.1285C20.9472 23.1285 23.7328 21.086 25.6519 18.9191C26.116 18.3952 26.116 17.6048 25.6519 17.0808ZM11.0584 18.3233C10.8925 18.136 10.8925 17.864 11.0584 17.6767C12.095 16.5063 14.8463 13.7842 18 13.7842C19.0329 13.7842 20.0226 14.0762 20.9231 14.5101L19.637 15.7616C19.1749 15.4406 18.6097 15.2515 18 15.2515C16.4427 15.2515 15.1757 16.4845 15.1757 18C15.1757 18.5934 15.37 19.1434 15.6998 19.5931L14.2273 21.0261C12.7805 20.1445 11.6449 18.9855 11.0584 18.3233ZM19.8864 18C19.8864 19.0122 19.0401 19.8358 18 19.8358C17.6496 19.8358 17.3215 19.7421 17.0401 19.5795L18.3316 18.3227L19.623 17.0659C19.7901 17.3397 19.8864 17.6591 19.8864 18ZM16.1136 18C16.1136 16.9878 16.9598 16.1642 18 16.1642C18.3503 16.1642 18.6785 16.2579 18.9599 16.4206L17.6684 17.6773L16.377 18.9341C16.2099 18.6603 16.1136 18.3409 16.1136 18ZM24.9416 18.3233C23.905 19.4937 21.1536 22.2158 18 22.2158C16.9671 22.2158 15.9774 21.9238 15.0769 21.4899L16.363 20.2384C16.8251 20.5594 17.3902 20.7485 18 20.7485C19.5573 20.7485 20.8242 19.5155 20.8242 18C20.8242 17.4066 20.63 16.8566 20.3001 16.4069L21.7726 14.9739C23.2194 15.8555 24.355 17.0145 24.9415 17.6767C25.1075 17.864 25.1075 18.136 24.9416 18.3233Z" fill="#09003F" stroke="#09003F" stroke-width="0.5"/>
</svg>
