<?xml version="1.0" standalone="no"?>
<!DOCTYPE svg PUBLIC "-//W3C//DTD SVG 1.1//EN" "http://www.w3.org/Graphics/SVG/1.1/DTD/svg11.dtd" >
<svg xmlns="http://www.w3.org/2000/svg">
<metadata>Generated by IcoMoon</metadata>
<defs>
<font id="icomoon" horiz-adv-x="1024">
<font-face units-per-em="1024" ascent="960" descent="-64" />
<missing-glyph horiz-adv-x="1024" />
<glyph unicode="&#x20;" horiz-adv-x="512" d="" />
<glyph unicode="&#xe900;" glyph-name="close-rectangle" d="M192.001 959.996c-106.038 0-192-85.962-192-192v0-640c0-106.038 85.962-192 192-192v0h640c0.001 0 0.003 0 0.004 0 106.036 0 191.995 85.959 191.995 191.995 0 0.001 0 0.003 0 0.004v0 640c0 106.038-85.962 192-192 192v0zM737.939 673.937c8.686-8.686 14.059-20.686 14.059-33.94s-5.373-25.255-14.059-33.94l-158.055-158.059 158.055-158.061c8.902-8.721 14.422-20.866 14.422-34.3 0-26.509-21.49-48-48-48-13.434 0-25.579 5.52-34.293 14.413l-158.068 158.062-158.059-158.055c-8.71-8.839-20.814-14.317-34.197-14.317-26.509 0-48 21.49-48 48 0 13.381 5.476 25.485 14.308 34.189l158.062 158.067-158.056 158.059c-8.674 8.685-14.040 20.676-14.040 33.922 0 26.509 21.49 48 48 48 13.245 0 25.237-5.365 33.922-14.040v0l158.059-158.056 158.061 158.056c8.685 8.686 20.685 14.059 33.939 14.059s25.254-5.373 33.939-14.059v0z" />
<glyph unicode="&#xe901;" glyph-name="close" d="M130.908 937.754c-13.903 13.886-33.099 22.476-54.304 22.476-42.437 0-76.84-34.403-76.84-76.84 0-21.203 8.589-40.401 22.476-54.304v0l381.047-381.042-381.047-381.054c-13.661-13.862-22.096-32.907-22.096-53.92 0-42.437 34.403-76.84 76.84-76.84 21.016 0 40.060 8.438 53.934 22.108l381.032 381.035 381.054-381.044c13.846-13.562 32.82-21.931 53.752-21.931 42.437 0 76.84 34.403 76.84 76.84 0 20.932-8.368 39.906-21.943 53.766l-381.032 381.042 381.044 381.042c13.663 13.862 22.099 32.909 22.099 53.925 0 42.437-34.403 76.84-76.84 76.84-21.013 0-40.058-8.436-53.93-22.106l-381.044-381.042z" />
<glyph unicode="&#xe902;" glyph-name="close-circle" d="M512-64.004c282.77 0 512 229.23 512 512s-229.23 512-512 512c-282.77 0-512-229.23-512-512v0c0-282.77 229.23-512 512-512v0zM737.939 673.938c8.687-8.687 14.060-20.687 14.060-33.941s-5.373-25.256-14.060-33.941l-158.055-158.060 158.055-158.061c8.903-8.721 14.423-20.867 14.423-34.301 0-26.51-21.491-48-48-48-13.434 0-25.58 5.52-34.293 14.414l-158.069 158.063-158.060-158.055c-8.711-8.84-20.814-14.318-34.197-14.318-26.51 0-48 21.491-48 48 0 13.382 5.477 25.485 14.309 34.19l158.063 158.067-158.057 158.060c-8.675 8.685-14.040 20.676-14.040 33.923 0 26.51 21.491 48 48 48 13.245 0 25.238-5.366 33.923-14.040v0l158.060-158.057 158.061 158.057c8.685 8.687 20.685 14.060 33.939 14.060s25.254-5.373 33.939-14.060v0z" />
<glyph unicode="&#xe903;" glyph-name="eye-fill-show" d="M618.666 447.974c0-58.91-47.756-106.666-106.666-106.666s-106.666 47.756-106.666 106.666c0 58.91 47.756 106.666 106.666 106.666v0c58.888-0.056 106.61-47.778 106.666-106.662v-0.006zM1024 447.994c-85.826-202.142-282.658-341.334-512-341.334s-426.176 139.192-510.628 337.706l-1.372 3.628c85.826 202.142 282.658 341.334 512 341.334s426.176-139.192 510.628-337.706l1.372-3.628zM746.666 447.974c0 129.602-105.064 234.666-234.666 234.666s-234.666-105.064-234.666-234.666c0-129.602 105.064-234.666 234.666-234.666v0c129.548 0.136 234.532 105.118 234.666 234.654v0.014z" />
<glyph unicode="&#xe904;" glyph-name="eye-outline-hide" d="M1020.372 428.023l-0.014-0.060-0.023-0.060-0.060-0.144-0.139-0.37-0.418-1.079-1.38-3.413c-1.172-2.823-2.825-6.713-5.015-11.515-4.37-9.596-10.871-22.907-19.746-38.684-24.898-43.754-52.899-81.566-84.83-115.651l0.308 0.332q-4.444-4.731-9.083-9.468l-80.458 80.458q3.333 3.413 6.532 6.834c25.573 27.303 48.22 57.884 67.111 90.892l1.255 2.38c4.133 7.344 7.57 13.922 10.343 19.518-2.773 5.596-6.208 12.176-10.343 19.518-20.142 35.39-42.791 65.971-68.615 93.543l0.249-0.268c-76.119 82.396-184.719 133.818-305.33 133.818-3.067 0-6.124-0.034-9.175-0.1l0.455 0.007c-0.174 0-0.382 0-0.588 0-19.351 0-38.437-1.132-57.196-3.333l2.277 0.217-96.824 96.828c44.873 12.745 96.407 20.071 149.653 20.071 0.942 0 1.884-0.002 2.827-0.007h-0.146c2.617 0.046 5.703 0.073 8.796 0.073 153.293 0 291.353-65.216 387.95-169.416l0.313-0.341c31.626-33.751 59.628-71.56 82.974-112.376l1.548-2.939c8.875-15.772 15.376-29.088 19.746-38.679 2.19-4.802 3.842-8.695 5.015-11.515l1.38-3.413 0.418-1.074 0.139-0.379 0.060-0.144 0.023-0.060 0.014-0.060c2.295-5.932 3.625-12.796 3.625-19.971s-1.33-14.039-3.756-20.361l0.132 0.389zM492.228 655.661l227.439-227.439q0.924 9.764 0.926 19.772c0 115.201-93.39 208.591-208.591 208.591v0q-10 0-19.772-0.926zM3.644 468.025l0.023 0.060 0.055 0.144 0.139 0.379 0.421 1.074 1.38 3.413c1.163 2.82 2.82 6.713 5.006 11.515 4.37 9.593 10.871 22.907 19.746 38.679 24.896 43.754 52.899 81.566 84.833 115.647l-0.306-0.329c20.185 21.527 41.735 41.191 64.723 59.091l1.248 0.935-164.248 164.244c-10.295 10.295-16.663 24.517-16.663 40.227 0 31.418 25.47 56.889 56.889 56.889 15.71 0 29.932-6.368 40.226-16.663l910.212-910.214c10.219-10.281 16.535-24.451 16.535-40.096 0-31.417-25.468-56.883-56.883-56.883-15.644 0-29.813 6.315-40.098 16.535l-183.907 183.899c-66.238-30.88-143.802-48.898-225.574-48.898-1.899 0-3.796 0.009-5.689 0.028l0.29-0.002c-2.613-0.046-5.694-0.073-8.782-0.073-153.295 0-291.36 65.214-387.964 169.412l-0.311 0.34c-31.623 33.753-59.625 71.564-82.974 112.378l-1.55 2.94c-8.875 15.778-15.376 29.088-19.746 38.684-2.19 4.802-3.847 8.69-5.006 11.515l-1.38 3.413-0.421 1.079-0.139 0.37-0.055 0.144-0.028 0.059zM3.621 428.023c-2.293 5.932-3.621 12.796-3.621 19.971s1.328 14.039 3.753 20.361l-0.132-0.389zM417.183 447.995c0.053-52.377 42.524-94.814 94.908-94.814 4.7 0 9.321 0.341 13.836 1.001l-0.514-0.062-107.292 107.292c-0.597-4.014-0.937-8.645-0.937-13.358 0-0.021 0-0.041 0-0.062v0.004zM655.487 224.062l-41.783 41.778c-29.28-16.633-64.32-26.435-101.649-26.435-115.235 0-208.65 93.416-208.65 208.65 0 37.33 9.803 72.369 26.976 102.686l-0.54-1.036-67.651 67.648c-23.915-17.333-44.928-35.911-64.010-56.316l-0.229-0.249c-25.573-27.303-48.222-57.884-67.111-90.894l-1.255-2.38c-4.13-7.342-7.564-13.922-10.343-19.518 2.777-5.596 6.213-12.176 10.343-19.518 20.147-35.388 42.794-65.969 68.617-93.543l-0.251 0.27c76.115-82.396 184.714-133.818 305.323-133.818 3.068 0 6.13 0.034 9.182 0.1l-0.455-0.007c0.992-0.007 2.164-0.012 3.337-0.012 50.128 0 98.323 8.27 143.295 23.522l-3.143-0.924z" />
<glyph unicode="&#xe905;" glyph-name="eye-show-outline" d="M512 656.587c-115.201 0-208.591-93.39-208.591-208.591s93.39-208.591 208.591-208.591c115.201 0 208.591 93.39 208.591 208.591v0c0 115.201-93.39 208.591-208.591 208.591v0zM512 353.181c-52.364 0-94.814 42.45-94.814 94.814s42.45 94.814 94.814 94.814c52.364 0 94.814-42.45 94.814-94.814v0c0-0.002 0-0.004 0-0.005 0-52.362-42.448-94.81-94.81-94.81-0.002 0-0.004 0-0.005 0v0zM1020.373 467.968l-0.016 0.057-0.023 0.060-0.060 0.144-0.139 0.379-0.418 1.074-1.38 3.413c-1.172 2.82-2.825 6.713-5.015 11.515-4.37 9.593-10.871 22.907-19.746 38.679-24.894 43.754-52.896 81.564-84.83 115.646l0.306-0.331c-96.908 104.542-234.971 169.759-388.265 169.759-3.092 0-6.176-0.027-9.255-0.080l0.462 0.007c-2.615 0.046-5.7 0.073-8.791 0.073-153.293 0-291.357-65.216-387.955-169.418l-0.311-0.34c-31.627-33.751-59.628-71.561-82.974-112.376l-1.548-2.939c-8.875-15.772-15.376-29.088-19.746-38.679-2.19-4.802-3.847-8.695-5.006-11.515l-1.38-3.413-0.421-1.074-0.139-0.379-0.055-0.144-0.028-0.062-0.023-0.060c-2.293-5.932-3.621-12.796-3.621-19.971s1.328-14.039 3.753-20.361l-0.132 0.389 0.046-0.121 0.055-0.144 0.139-0.37 0.421-1.079 1.38-3.413c1.163-2.823 2.82-6.713 5.006-11.515 4.37-9.596 10.871-22.907 19.746-38.684 24.898-43.754 52.899-81.566 84.83-115.651l-0.308 0.332c96.915-104.536 234.978-169.748 388.272-169.748 3.092 0 6.176 0.027 9.255 0.080l-0.464-0.007c2.613-0.046 5.698-0.073 8.788-0.073 153.295 0 291.359 65.214 387.959 169.412l0.311 0.34c31.623 33.753 59.625 71.564 82.974 112.378l1.55 2.94c8.875 15.778 15.376 29.088 19.746 38.684 2.19 4.802 3.842 8.69 5.015 11.515l1.38 3.413 0.418 1.079 0.139 0.37 0.060 0.144 0.023 0.060 0.014 0.060c2.295 5.932 3.625 12.796 3.625 19.971s-1.33 14.039-3.756 20.361l0.132-0.389zM894.416 428.477c-20.146-35.388-42.793-65.969-68.615-93.543l0.251 0.27c-76.115-82.396-184.714-133.818-305.323-133.818-3.068 0-6.13 0.034-9.182 0.1l0.455-0.007c-2.597-0.059-5.659-0.092-8.727-0.092-120.609 0-229.206 51.422-305.067 133.537l-0.256 0.281c-25.571 27.303-48.218 57.884-67.111 90.892l-1.255 2.38c-4.13 7.344-7.564 13.922-10.343 19.518 2.777 5.596 6.213 12.176 10.343 19.518 20.144 35.388 42.793 65.971 68.615 93.543l-0.249-0.268c76.119 82.396 184.719 133.818 305.33 133.818 3.067 0 6.124-0.034 9.175-0.1l-0.455 0.007c2.596 0.059 5.653 0.092 8.72 0.092 120.611 0 229.211-51.422 305.074-133.537l0.256-0.279c25.575-27.301 48.224-57.884 67.111-90.894l1.253-2.379c4.133-7.342 7.57-13.922 10.343-19.518-2.773-5.596-6.208-12.176-10.343-19.518z" />
<glyph unicode="&#xe906;" glyph-name="eye-fill-hide" d="M1007.398 33.057l-910.336 910.341c-10.296 10.296-24.521 16.665-40.231 16.665-31.423 0-56.896-25.474-56.896-56.896 0-15.712 6.369-29.936 16.665-40.233l205.458-205.458c-71.412-54.212-127.716-124.713-163.9-206.139l-1.326-3.343c76.495-179.549 251.363-303.184 455.137-303.448h0.034c0.715-0.004 1.561-0.005 2.407-0.005 66.466 0 129.82 13.328 187.532 37.459l-3.213-1.191 228.215-228.211c10.282-10.218 24.453-16.535 40.099-16.535 31.421 0 56.891 25.472 56.891 56.891 0 15.648-6.317 29.819-16.541 40.105l0.004-0.004zM512 239.356c-115.169 0.121-208.498 93.45-208.619 208.609v0.012c0.188 37.162 10.314 71.919 27.851 101.802l-0.519-0.957 88.758-88.753c-0.942-3.378-1.748-7.48-2.255-11.674l-0.041-0.416c0.050-52.352 42.475-94.777 94.823-94.827h0.005c4.609 0.548 8.71 1.355 12.697 2.438l-0.608-0.14 88.758-88.758c-28.926-17.019-63.685-27.145-100.795-27.333h-0.053zM493.219 654.699l-85.913 85.913c31.451 6.836 67.596 10.778 104.655 10.83h0.039c203.808-0.261 378.675-123.897 453.947-300.222l1.223-3.225c-27.047-61.907-63.29-114.822-107.651-159.695l0.048 0.050-140.845 140.847c0.574 6.283 1.897 12.348 1.897 18.779-0.121 115.169-93.45 208.5-208.609 208.619h-0.012c-6.431 0-12.496-1.325-18.781-1.899z" />
<glyph unicode="&#xe907;" glyph-name="row-height-down" d="M336.775 259.155l-134.295-167.87c-6.204-7.71-15.64-12.601-26.217-12.601s-20.012 4.891-26.167 12.537l-0.050 0.065-134.295 167.87c-4.583 5.691-7.356 13.007-7.356 20.972 0 18.542 15.031 33.573 33.573 33.573h83.934v470.034c0 27.813 22.547 50.361 50.361 50.361s50.361-22.547 50.361-50.361v0-470.034h83.934c18.542 0 33.573-15.033 33.573-33.573 0-7.965-2.773-15.28-7.406-21.037l0.050 0.065zM982.034 800.52h-537.18c-27.813 0-50.361-22.547-50.361-50.361s22.547-50.361 50.361-50.361h537.18c27.813 0 50.361 22.547 50.361 50.361s-22.547 50.361-50.361 50.361v0zM982.034 599.077h-537.18c-27.813 0-50.361-22.547-50.361-50.361s22.547-50.361 50.361-50.361v0h537.18c27.813 0 50.361 22.547 50.361 50.361s-22.547 50.361-50.361 50.361v0zM982.034 397.635h-537.18c-27.813 0-50.361-22.547-50.361-50.361s22.547-50.361 50.361-50.361v0h537.18c27.813 0 50.361 22.547 50.361 50.361s-22.547 50.361-50.361 50.361v0zM982.034 196.192h-537.18c-27.813 0-50.361-22.547-50.361-50.361s22.547-50.361 50.361-50.361v0h537.18c27.813 0 50.361 22.547 50.361 50.361s-22.547 50.361-50.361 50.361v0z" />
<glyph unicode="&#xe908;" glyph-name="reset-width-outside" d="M1024 447.996c0-0.001 0-0.004 0-0.007 0-9.486-4.389-17.946-11.246-23.462l-0.058-0.045-150.589-120.47c-5.106-4.114-11.671-6.604-18.817-6.604-16.631 0-30.113 13.482-30.113 30.113 0 0.001 0 0.004 0 0.006v0 90.353h-180.706c-16.633 0-30.117 13.484-30.117 30.117s13.484 30.117 30.117 30.117v0h180.706v90.353c0 16.633 13.485 30.117 30.117 30.117 7.145 0 13.707-2.488 18.871-6.644l-0.058 0.045 150.589-120.474c6.916-5.56 11.305-14.020 11.305-23.504 0-0.003 0-0.007 0-0.010v0zM391.53 478.114h-180.706v90.353c0 0 0 0.001 0 0.001 0 16.633-13.484 30.117-30.117 30.117-7.146 0-13.711-2.489-18.874-6.647l0.058 0.045-150.589-120.474c-6.915-5.565-11.301-14.027-11.301-23.514s4.388-17.949 11.243-23.469l0.058-0.045 150.589-120.47c5.106-4.112 11.671-6.601 18.816-6.601 16.633 0 30.117 13.484 30.117 30.116v0 90.353h180.706c16.633 0 30.117 13.484 30.117 30.117s-13.484 30.117-30.117 30.117v0zM512 854.584c-24.95 0-45.176-20.226-45.176-45.176v0-722.823c0-24.95 20.226-45.176 45.176-45.176s45.176 20.226 45.176 45.176v0 722.823c0 24.95-20.226 45.176-45.176 45.176v0z" />
<glyph unicode="&#xe909;" glyph-name="reset-width-inside" d="M1024.001 447.996c0-15.709-12.735-28.444-28.444-28.444v0h-170.667v-85.333c0-0.001 0-0.003 0-0.005 0-15.707-12.733-28.44-28.44-28.44-6.749 0-12.951 2.351-17.827 6.28l0.055-0.043-142.223 113.777c-6.532 5.255-10.677 13.248-10.677 22.208s4.145 16.953 10.621 22.165l0.055 0.043 142.223 113.781c4.821 3.883 11.020 6.232 17.768 6.232 15.709 0 28.444-12.735 28.444-28.444v0-85.333h170.667c15.709 0 28.444-12.735 28.444-28.444v0zM387.549 470.205l-142.223 113.781c-4.823 3.884-11.023 6.235-17.771 6.235-15.709 0-28.444-12.735-28.444-28.444 0 0 0-0.001 0-0.001v0-85.333h-170.667c-15.709 0-28.444-12.735-28.444-28.444s12.735-28.444 28.444-28.444v0h170.667v-85.333c0.001-15.709 12.736-28.443 28.444-28.443 6.749 0 12.949 2.351 17.825 6.277l-0.055-0.043 142.223 113.777c6.531 5.256 10.673 13.248 10.673 22.208s-4.144 16.952-10.619 22.165l-0.055 0.043zM512 831.996c-23.564 0-42.667-19.103-42.667-42.667v0-682.668c0-23.564 19.103-42.667 42.667-42.667s42.667 19.103 42.667 42.667v0 682.668c0 23.564-19.103 42.667-42.667 42.667v0z" />
<glyph unicode="&#xe90a;" glyph-name="row-height-up" d="M340.815 601.32c-5.546-11.35-17.006-19.028-30.257-19.028h-83.934v-470.033c0-27.813-22.547-50.361-50.361-50.361s-50.361 22.547-50.361 50.361v0 470.033h-83.934c0 0-0.002 0-0.002 0-18.542 0-33.573 15.031-33.573 33.573 0 7.966 2.775 15.284 7.409 21.040l-0.050-0.065 134.294 167.869c6.205 7.708 15.64 12.598 26.217 12.598s20.012-4.89 26.167-12.534l0.050-0.065 134.294-167.869c4.583-5.691 7.356-13.009 7.356-20.972 0-5.291-1.223-10.294-3.402-14.746l0.088 0.198zM982.033 800.52h-537.18c-27.813 0-50.361-22.547-50.361-50.361s22.547-50.361 50.361-50.361h537.18c27.813 0 50.361 22.547 50.361 50.361s-22.547 50.361-50.361 50.361v0zM982.033 599.077h-537.18c-27.813 0-50.361-22.547-50.361-50.361s22.547-50.361 50.361-50.361v0h537.18c27.813 0 50.361 22.547 50.361 50.361s-22.547 50.361-50.361 50.361v0zM982.033 397.635h-537.18c-27.813 0-50.361-22.547-50.361-50.361s22.547-50.361 50.361-50.361v0h537.18c27.813 0 50.361 22.547 50.361 50.361s-22.547 50.361-50.361 50.361v0zM982.033 196.192h-537.18c-27.813 0-50.361-22.547-50.361-50.361s22.547-50.361 50.361-50.361v0h537.18c27.813 0 50.361 22.547 50.361 50.361s-22.547 50.361-50.361 50.361v0z" />
<glyph unicode="&#xe90b;" glyph-name="pin-right" d="M16.697 530.738c-9.603-9.619-15.554-22.896-15.554-37.585 0-29.371 23.808-53.18 53.18-53.18 14.673 0 27.959 5.948 37.585 15.554v0l53.557 53.555 189.897-189.901c41.702-41.702 67.499-99.316 67.499-162.947 0-0.909-0.006-1.834-0.020-2.736l0.002 0.142-1.713-151.053c-0.002-0.177-0.004-0.388-0.004-0.594 0-29.371 23.808-53.18 53.18-53.18 14.685 0 27.977 5.949 37.599 15.574l212.328 212.319 169.398-169.398c9.642-8.902 22.58-14.357 36.786-14.357 29.992 0 54.305 24.312 54.305 54.305 0 14.202-5.445 27.144-14.391 36.829l-169.366 169.366 212.319 212.328c9.619 9.622 15.574 22.914 15.574 37.599 0 29.371-23.808 53.18-53.18 53.18-0.214 0-0.417-0.002-0.63-0.004h0.027l-151.053-1.713c-0.779-0.011-1.691-0.017-2.61-0.017-63.636 0-121.25 25.794-162.947 67.497l-189.901 189.901 53.555 53.557c9.781 9.65 15.84 23.046 15.84 37.861 0 29.371-23.808 53.18-53.18 53.18-14.815 0-28.21-6.059-37.853-15.831l-0.006-0.008-319.060-319.060zM410.568 394.4l-189.897 189.897 152.689 152.678 189.896-189.898c60.958-60.958 145.146-98.643 238.153-98.643 1.346 0 2.673 0.009 4.022 0.027l20.376 0.229-316.858-316.858 0.231 20.588c0.016 1.135 0.025 2.479 0.025 3.817 0 93.005-37.701 177.201-98.643 238.153v0z" />
<glyph unicode="&#xe90c;" glyph-name="pin-left" d="M592.958 945.776c-9.779 9.779-23.288 15.828-38.211 15.828-29.844 0-54.039-24.193-54.039-54.039 0-14.923 6.049-28.43 15.826-38.209l54.419-54.421-192.957-192.962c-42.377-42.375-100.92-68.585-165.584-68.585-0.932 0-1.863 0.005-2.793 0.017l-153.347 1.739c-0.182 0.002-0.399 0.003-0.615 0.003-29.844 0-54.037-24.193-54.037-54.037 0-14.923 6.049-28.434 15.83-38.213l215.747-215.745-172.137-172.134c-9.048-9.798-14.597-22.946-14.597-37.389 0-30.475 24.705-55.182 55.182-55.182 14.443 0 27.591 5.549 37.428 14.632l-0.037-0.034 172.137 172.134 215.745-215.745c9.779-9.779 23.288-15.828 38.211-15.828 29.844 0 54.037 24.193 54.037 54.037 0 0.214-0.002 0.431-0.003 0.645v-0.032l-1.744 153.488c-0.010 0.789-0.015 1.719-0.015 2.651 0 64.664 26.21 123.207 68.585 165.584l192.964 192.964 54.419-54.426c9.779-9.779 23.288-15.828 38.211-15.828 29.845 0 54.039 24.193 54.039 54.039 0 14.923-6.049 28.432-15.828 38.211l-324.208 324.206zM454.415 545.556l192.964 192.96 155.151-155.159-192.957-192.964c-61.935-61.933-100.242-147.493-100.242-242.002 0-1.363 0.008-2.722 0.024-4.081l-0.002 0.206 0.238-20.916-321.972 321.976 20.921-0.238c1.153-0.014 2.518-0.022 3.882-0.022 94.504 0 180.062 38.307 241.994 100.241v0z" />
<glyph unicode="&#xe90d;" glyph-name="pin" d="M223.104 959.986c-29.251 0-52.964-23.713-52.964-52.964s23.713-52.964 52.964-52.964v0h75.435v-267.471c-0.002-64.292-26.438-122.411-69.031-164.079l-0.041-0.041-107.586-105.173c-9.838-9.625-15.939-23.036-15.939-37.873 0-29.251 23.712-52.963 52.963-52.964h299.059v-238.611c1.228-28.897 24.953-51.859 54.042-51.859s52.814 22.962 54.037 51.748l0.003 0.111-0.007 238.608h299.059c0 0 0 0 0 0 29.251 0 52.964 23.713 52.964 52.964 0 14.837-6.101 28.248-15.929 37.863l-0.010 0.010-107.581 105.173c-42.636 41.708-69.072 99.826-69.072 164.119v0 267.474h75.428c29.251 0 52.964 23.713 52.964 52.964s-23.713 52.964-52.964 52.964v0h-577.793zM404.467 586.586v267.471h215.070v-267.471c0 0 0 0 0-0.002 0-93.966 38.636-178.907 100.889-239.805l0.061-0.060 14.661-14.335h-446.298l14.665 14.335c62.314 60.957 100.952 145.899 100.952 239.866v0z" />
<glyph unicode="&#xe90e;" glyph-name="expand-horizontal" d="M875.366 447.995c0-0.002 0-0.005 0-0.006 0-10.402-4.809-19.682-12.327-25.734l-0.063-0.050-165.162-132.128c-5.601-4.512-12.802-7.243-20.642-7.243-18.243 0-33.032 14.789-33.032 33.032 0 0 0 0.002 0 0.002v0 99.097h-264.269v-99.097c-0.002-18.243-14.79-33.030-33.032-33.030-7.838 0-15.038 2.73-20.7 7.29l0.063-0.050-165.162 132.128c-7.584 6.104-12.395 15.385-12.395 25.79s4.812 19.686 12.331 25.74l0.063 0.050 165.162 132.133c5.601 4.51 12.801 7.24 20.637 7.24 18.243 0 33.032-14.789 33.032-33.032 0 0 0-0.002 0-0.002v0-99.097h264.269v99.097c0 0.002 0 0.003 0 0.005 0 18.243 14.789 33.032 33.032 33.032 7.839 0 15.041-2.731 20.705-7.293l-0.063 0.050 165.162-132.133c7.581-6.101 12.392-15.38 12.392-25.781 0-0.003 0-0.006 0-0.009v0zM974.452 893.93c-27.365 0-49.548-22.184-49.548-49.548v0-792.773c0-27.365 22.184-49.548 49.548-49.548s49.548 22.184 49.548 49.548v0 792.773c0 27.365-22.184 49.548-49.548 49.548v0zM49.548 893.93c-27.365 0-49.548-22.184-49.548-49.548v0-792.773c0-27.365 22.184-49.548 49.548-49.548s49.548 22.184 49.548 49.548v0 792.773c0 27.365-22.184 49.548-49.548 49.548v0z" />
<glyph unicode="&#xe90f;" glyph-name="expand-vertical" d="M354.077 633.794l132.133 165.162c6.104 7.584 15.385 12.395 25.79 12.395s19.686-4.812 25.74-12.331l0.050-0.063 132.129-165.162zM354.077 633.794c-4.51-5.601-7.24-12.801-7.24-20.637 0-18.243 14.789-33.032 33.032-33.032 0 0 0.002 0 0.002 0h99.097v-264.259h-99.097c-18.243 0-33.032-14.79-33.032-33.032 0-7.836 2.728-15.033 7.287-20.697l-0.050 0.063 132.133-165.162c6.102-7.586 15.385-12.399 25.79-12.399s19.688 4.814 25.74 12.334l0.050 0.063 132.129 165.162c4.512 5.601 7.243 12.801 7.243 20.638 0 18.24-14.787 33.027-33.027 33.027-0.002 0-0.005 0-0.006 0h-99.097v264.259h99.097c18.243 0.002 33.030 14.79 33.030 33.032 0 7.838-2.73 15.038-7.29 20.7l0.050-0.063zM908.387 959.996h-792.775c-27.365 0-49.548-22.184-49.548-49.548s22.184-49.548 49.548-49.548v0h792.775c27.365 0 49.548 22.184 49.548 49.548s-22.184 49.548-49.548 49.548v0zM908.387 35.093h-792.775c-27.365 0-49.548-22.184-49.548-49.548s22.184-49.548 49.548-49.548v0h792.775c27.365 0 49.548 22.184 49.548 49.548s-22.184 49.548-49.548 49.548v0z" />
<glyph unicode="&#xe910;" glyph-name="arrow-up" d="M1004.681 317.066l-445.44 445.44c-12.090 12.092-28.791 19.571-47.241 19.571s-35.152-7.479-47.241-19.571l-445.446-445.44c-11.879-12.054-19.214-28.614-19.214-46.886 0-36.901 29.915-66.816 66.816-66.816 18.274 0 34.834 7.337 46.899 19.224l398.186 398.184 398.199-398.192c12.075-12 28.716-19.418 47.091-19.418 36.899 0 66.81 29.913 66.81 66.81 0 18.377-7.419 35.018-19.425 47.097l0.004-0.004z" />
<glyph unicode="&#xe911;" glyph-name="arrow-left" d="M197.451 495.247c-12.093-12.091-19.573-28.797-19.573-47.249s7.48-35.158 19.573-47.249l445.502-445.496c12.076-12.001 28.72-19.421 47.097-19.421 36.904 0 66.818 29.916 66.818 66.818 0 18.379-7.42 35.022-19.427 47.103l-398.238 398.241 398.243 398.243c11.809 12.043 19.095 28.555 19.095 46.771 0 36.906-29.919 66.824-66.824 66.824-18.212 0-34.722-7.286-46.775-19.101l-445.492-445.485z" />
<glyph unicode="&#xe912;" glyph-name="arrow-down" d="M1004.265 673.226c-12.079 12.081-28.767 19.554-47.201 19.554s-35.122-7.473-47.201-19.554l-397.865-397.863-397.859 397.863c-12.115 12.294-28.949 19.913-47.562 19.913-36.87 0-66.76-29.89-66.76-66.76 0-18.611 7.617-35.445 19.901-47.552l445.079-445.072c12.079-12.081 28.767-19.554 47.201-19.554s35.122 7.473 47.201 19.554l445.064 445.064c12.081 12.079 19.554 28.769 19.554 47.203s-7.473 35.124-19.554 47.203v0z" />
<glyph unicode="&#xe913;" glyph-name="arrow-right" d="M826.603 495.256l-445.579 445.579c-12.062 11.901-28.64 19.249-46.932 19.249-36.913 0-66.837-29.924-66.837-66.837 0-18.295 7.35-34.874 19.259-46.942l398.317-398.31-398.323-398.319c-11.797-12.043-19.076-28.548-19.076-46.755 0-36.913 29.924-66.837 66.837-66.837 18.207 0 34.711 7.279 46.767 19.086l445.568 445.568c12.095 12.093 19.577 28.803 19.577 47.258s-7.482 35.165-19.577 47.258v0z" />
<glyph unicode="&#xe914;" glyph-name="manage-column" d="M1022.545 803.758c-7.306 68.806-64.963 121.963-135.065 122.104h-751.010c-71.653-0.138-130.297-55.648-135.429-126.011l-0.026-0.443c-0.25-3.37-1.016-6.594-1.016-10.029v-682.716c0-0.016 0-0.035 0-0.054 0-75.373 61.099-136.473 136.47-136.478h750.996c0.002 0 0.003 0 0.005 0 75.403 0 136.529 61.126 136.529 136.529 0 0.002 0 0.003 0 0.005v0 682.716c-0.253 5.328-0.773 10.278-1.555 15.142l0.101-0.763zM102.401 789.329c0.213 3.083 0.818 5.955 1.766 8.664l-0.070-0.23c3.696 14.766 16.789 25.552 32.422 25.683h170.681v-170.667h-204.8zM409.6 823.444h204.8v-170.667h-204.8zM716.8 823.444h170.667c12.899-0.123 24.059-7.445 29.669-18.134l0.090-0.186c0.478-0.896 1.291-1.562 1.691-2.509l0.192-0.955c1.526-3.643 2.437-7.874 2.491-12.31v-136.571h-204.8zM136.471 72.53c-18.818 0.006-34.070 15.262-34.070 34.082 0 0.018 0 0.037 0 0.054v-0.003 443.716h204.8v-477.849zM409.6 72.53v477.849h204.8v-477.849zM921.599 106.663c0-18.851-15.282-34.133-34.133-34.133v0h-170.667v477.849h204.8z" />
<glyph unicode="&#xe915;" glyph-name="long-arrow-right" d="M1017.284 464.208l-152.836 152.836c-4.131 4.049-9.795 6.549-16.043 6.549-12.662 0-22.925-10.263-22.925-22.925 0-6.249 2.5-11.914 6.555-16.049l113.697-113.696h-922.807c-12.662 0-22.925-10.263-22.925-22.925s10.263-22.925 22.925-22.925v0h922.804l-113.7-113.7c-4.118-4.144-6.663-9.854-6.663-16.158 0-12.661 10.263-22.924 22.924-22.924 6.304 0 12.014 2.545 16.158 6.664l152.835 152.835c4.149 4.148 6.716 9.879 6.716 16.21s-2.566 12.062-6.716 16.21v0z" />
<glyph unicode="&#xe916;" glyph-name="long-arrow-left" d="M1001.073 470.924h-922.801l113.699 113.699c4.051 4.131 6.551 9.796 6.551 16.045 0 12.662-10.263 22.925-22.925 22.925-6.249 0-11.913-2.499-16.048-6.552l-152.833-152.831c-4.149-4.148-6.716-9.879-6.716-16.21s2.566-12.062 6.716-16.21l152.837-152.836c4.144-4.118 9.854-6.663 16.158-6.663 12.66 0 22.924 10.263 22.924 22.924 0 6.304-2.545 12.016-6.664 16.159l-113.695 113.698h922.799c12.662 0 22.925 10.263 22.925 22.925s-10.263 22.925-22.925 22.925v0z" />
<glyph unicode="&#xe917;" glyph-name="cursor" d="M1011.186 474.646l-170.667 136.537c-5.786 4.659-13.224 7.478-21.322 7.478-18.851 0-34.133-15.282-34.133-34.133v0-85.333h-221.867v221.867h85.333c18.851 0.002 34.131 15.283 34.131 34.133 0 8.099-2.821 15.539-7.533 21.39l0.051-0.066-136.532 170.667c-6.307 7.837-15.898 12.808-26.65 12.808s-20.342-4.973-26.598-12.742l-0.051-0.066-136.537-170.667c-4.661-5.787-7.482-13.227-7.482-21.325 0-18.851 15.282-34.133 34.133-34.133 0 0 0.002 0 0.002 0h85.333v-221.867h-221.867v85.333c0 0 0 0.002 0 0.002 0 18.851-15.282 34.133-34.133 34.133-8.099 0-15.539-2.821-21.39-7.533l0.066 0.051-170.667-136.537c-7.837-6.307-12.808-15.898-12.808-26.65s4.973-20.342 12.742-26.598l0.066-0.051 170.667-136.532c5.787-4.661 13.227-7.482 21.325-7.482 18.851 0 34.133 15.282 34.133 34.131v0 85.333h221.867v-221.867h-85.333c-18.851 0-34.133-15.283-34.133-34.133 0-8.098 2.819-15.534 7.53-21.387l-0.051 0.066 136.537-170.667c6.306-7.838 15.898-12.813 26.65-12.813s20.344 4.974 26.598 12.746l0.051 0.066 136.532 170.667c4.662 5.787 7.485 13.227 7.485 21.326 0 18.848-15.28 34.128-34.128 34.128-0.002 0-0.005 0-0.006 0h-85.333v221.867h221.867v-85.333c0-0.002 0-0.003 0-0.006 0-18.848 15.28-34.128 34.128-34.128 8.099 0 15.541 2.821 21.392 7.536l-0.066-0.051 170.667 136.532c7.838 6.306 12.813 15.898 12.813 26.65s-4.974 20.344-12.746 26.598l-0.066 0.051z" />
<glyph unicode="&#xe918;" glyph-name="delete" d="M735.495 618.661v-568.886h-455.117v568.886zM650.16 959.996h-284.445l-56.889-56.889h-162.54c-20.197 0-36.572-16.373-36.572-36.572v0-40.634c0-20.197 16.373-36.572 36.572-36.572v0h723.302c20.197 0 36.572 16.373 36.572 36.572v0 40.634c0 20.197-16.373 36.572-36.572 36.572v0h-162.537zM849.269 695.869c0 20.197-16.373 36.572-36.572 36.572v0h-609.523c-20.197 0-36.572-16.373-36.572-36.572v0-646.092c0.194-62.759 51.017-113.585 113.758-113.781h455.135c62.757 0.201 113.577 51.022 113.774 113.761v0.020z" />
<glyph unicode="&#xe919;" glyph-name="sort-inside" d="M849.592 317.787c-6.268-12.82-19.214-21.493-34.185-21.495h-94.816v-303.407c0-31.419-25.47-56.889-56.889-56.889s-56.889 25.47-56.889 56.889v0 303.407h-94.814c-0.002 0-0.004 0-0.007 0-20.942 0-37.92 16.978-37.92 37.92 0 8.999 3.134 17.268 8.373 23.769l-0.057-0.073 151.703 189.63c7.006 8.709 17.664 14.236 29.611 14.236s22.604-5.527 29.554-14.162l0.057-0.073 151.703-189.63c5.18-6.43 8.315-14.697 8.315-23.696 0-5.972-1.38-11.621-3.84-16.647l0.1 0.224zM330.681 348.454c7.008-8.709 17.666-14.236 29.612-14.236s22.606 5.527 29.556 14.164l0.057 0.073 151.703 189.63c5.18 6.43 8.316 14.697 8.316 23.696 0 20.942-16.978 37.92-37.92 37.92-0.002 0-0.005 0-0.007 0h-94.814v303.407c0 31.419-25.47 56.889-56.889 56.889s-56.889-25.47-56.889-56.889v0-303.407h-94.814c-20.946 0-37.925-16.981-37.925-37.925 0-8.997 3.132-17.26 8.366-23.764l-0.057 0.073 151.703-189.63z" />
<glyph unicode="&#xe91a;" glyph-name="sort-outside" d="M857.826 147.702l-157.537-196.923c-7.276-9.044-18.343-14.784-30.749-14.784s-23.474 5.74-30.69 14.706l-0.059 0.076-157.537 196.923c-5.38 6.678-8.636 15.262-8.636 24.607 0 21.748 17.631 39.378 39.378 39.378 0.002 0 0.006 0 0.007 0h98.461v315.077c0 32.627 26.45 59.077 59.077 59.077s59.077-26.45 59.077-59.077v0-315.077h98.461c0.002 0 0.004 0 0.007 0 21.748 0 39.378-17.631 39.378-39.378 0-9.345-3.255-17.932-8.695-24.683l0.059 0.076zM542.749 748.293l-157.537 196.923c-7.278 9.042-18.345 14.778-30.751 14.778s-23.474-5.738-30.692-14.703l-0.059-0.076-157.537-196.923c-5.378-6.678-8.633-15.262-8.633-24.605 0-21.751 17.633-39.384 39.384-39.384 0 0 0.002 0 0.002 0h98.461v-315.077c0-32.627 26.45-59.077 59.077-59.077s59.077 26.45 59.077 59.077v0 315.077h98.461c21.751 0.002 39.382 17.634 39.382 39.384 0 9.345-3.255 17.93-8.692 24.681l0.059-0.076z" />
<glyph unicode="&#xe91b;" glyph-name="sort-arrow-down" horiz-adv-x="400" d="M227.538-49.261l157.573 196.968c5.307 6.746 8.513 15.365 8.513 24.731 0 6.182-1.396 12.038-3.889 17.269l0.103-0.242c-6.559 13.17-19.93 22.061-35.375 22.061-0.028 0-0.055 0-0.083 0h-98.479v689.384c0 32.634-26.456 59.090-59.090 59.090s-59.090-26.456-59.090-59.090v0-689.384h-98.483c-0.024 0-0.052 0-0.079 0-15.447 0-28.816-8.889-35.271-21.832l-0.103-0.229c-2.389-4.989-3.785-10.845-3.785-17.025 0-9.366 3.206-17.986 8.577-24.818l-0.065 0.087 157.573-196.968c7.279-9.020 18.335-14.741 30.727-14.741s23.448 5.721 30.668 14.667l0.059 0.076z" />
<glyph unicode="&#xe91c;" glyph-name="metrics" d="M1024.001 30.811c0-31.419-25.47-56.889-56.889-56.889h-872.296c-52.364 0-94.815 42.451-94.815 94.815v0 796.445c0.094 31.348 25.528 56.722 56.889 56.722s56.795-25.376 56.889-56.714v-777.491h853.334c31.419 0 56.889-25.47 56.889-56.889v0zM922.973 843.532c-8.363 7.55-19.498 12.17-31.713 12.17-13.967 0-26.524-6.040-35.199-15.65l-0.037-0.042c-154.983-171.483-360.922-294.267-593.848-344.488l-7.357-1.329c-21.106-5.096-36.539-23.819-36.539-46.146 0-26.184 21.225-47.409 47.409-47.409 3.705 0 7.314 0.426 10.775 1.23l-0.321-0.063c259.922 56.184 482.643 189.188 649.414 373.723l0.939 1.054c7.55 8.363 12.17 19.5 12.17 31.713 0 13.968-6.041 26.524-15.652 35.2l-0.042 0.037zM834.371 542.812v-379.26c0-10.473 8.49-18.966 18.966-18.966v0h75.849c10.473 0 18.966 8.49 18.966 18.966v0 379.26c-0.002 10.473-8.492 18.962-18.966 18.962h-75.853c-10.472-0.002-18.961-8.49-18.962-18.962v0zM625.777 466.961v-303.407c0-10.473 8.49-18.966 18.966-18.966v0h75.849c10.473 0.002 18.962 8.492 18.962 18.966v303.407c0 10.473-8.489 18.964-18.962 18.966h-75.853c-10.473-0.002-18.962-8.492-18.962-18.966v0zM417.185 353.182v-189.63c0-10.473 8.489-18.964 18.962-18.966h75.853c10.473 0 18.966 8.49 18.966 18.966v0 189.63c0 10.473-8.49 18.966-18.966 18.966h-75.853c-10.473-0.002-18.962-8.492-18.962-18.966v0zM208.593 277.331v-113.777c0-10.473 8.489-18.964 18.962-18.966h75.853c10.473 0.002 18.962 8.492 18.962 18.966v0 113.777c0 10.473-8.489 18.964-18.962 18.966h-75.853c-10.473-0.002-18.962-8.492-18.962-18.966v0z" />
<glyph unicode="&#xe91d;" glyph-name="tags" d="M979.838 396.219l-168.62 202.346 168.62 202.342c8.686 10.366 13.961 23.845 13.961 38.557 0 33.26-26.962 60.222-60.222 60.222 0 0-0.002 0-0.002 0h-662.474c0 0.052 0 0.113 0 0.173 0 33.261-26.964 60.226-60.226 60.226s-60.226-26.964-60.226-60.226c0-0.061 0-0.121 0-0.183v0.010-843.151h-60.226c-33.187-0.098-60.051-27.024-60.051-60.226s26.864-60.126 60.043-60.226h240.91c33.187 0.098 60.051 27.024 60.051 60.226s-26.864 60.126-60.043 60.226h-60.235v240.9h662.474c33.261 0 60.224 26.964 60.224 60.226 0 14.712-5.275 28.192-14.037 38.651l0.076-0.095zM686.56 637.119c-8.686-10.364-13.961-23.845-13.961-38.557s5.275-28.191 14.037-38.65l-0.076 0.095 118.433-142.12h-533.894v361.348h533.894l-118.433-142.118z" />
<glyph unicode="&#xe91e;" glyph-name="bookmarks" d="M662.517-52.462c9.822-7.212 22.15-11.541 35.491-11.541 33.325 0 60.341 27.014 60.341 60.34v0 622.136c0 77.761-63.037 140.798-140.798 140.798v0h-391.123c-77.761 0-140.798-63.037-140.798-140.798v0-622.136c0-0.002 0-0.002 0-0.003 0-33.324 27.014-60.338 60.338-60.338 13.341 0 25.67 4.33 35.66 11.66l-0.168-0.118 240.526 174.927 240.528-174.927zM386.497 245.876l-180.183-131.042v503.636c0 11.108 9.005 20.114 20.114 20.114h391.123c11.108 0 20.114-9.005 20.114-20.114v0-503.638l-180.186 131.045c-9.82 7.214-22.15 11.544-35.491 11.544s-25.67-4.33-35.66-11.662l0.168 0.118zM933.991 819.199v-622.133c0-33.325-27.016-60.341-60.341-60.341s-60.341 27.016-60.341 60.341v0 622.133c0 11.108-9.005 20.114-20.114 20.114v0h-471.578c-33.325 0-60.341 27.016-60.341 60.341s27.016 60.341 60.341 60.341v0h471.58c77.761 0 140.796-63.037 140.796-140.798v0z" />
<glyph unicode="&#xe91f;" glyph-name="runs" d="M94.867 922.007c-52.359 0-94.805-42.445-94.807-94.803v0-758.577c0-52.36 42.446-94.807 94.807-94.807v0h834.387c52.36 0 94.807 42.446 94.807 94.807v0 758.577c-0.002 52.359-42.446 94.803-94.807 94.803h-834.387zM393.901 365.728v164.353h516.394v-164.353zM113.828 365.728v164.353h166.305v-164.353zM280.133 251.944v-164.357h-166.307v164.357zM393.898 87.586v164.357h516.395v-164.357zM280.136 643.867h-166.307v164.375h166.305zM393.901 643.867v164.375h516.394v-164.375z" />
<glyph unicode="&#xe920;" glyph-name="back-left" d="M476.372 787.028c10.476 10.324 16.969 24.668 16.969 40.53 0 31.419-25.47 56.889-56.889 56.889-15.86 0-30.204-6.491-40.521-16.958l-0.007-0.007zM56.889 447.995l-40.226 40.224c-10.295-10.293-16.663-24.516-16.663-40.224s6.368-29.931 16.663-40.224v0zM395.924 28.512c10.251-10.041 24.299-16.236 39.796-16.236 31.419 0 56.889 25.47 56.889 56.889 0 15.497-6.196 29.545-16.245 39.806l0.009-0.009zM967.111 391.106c31.419 0 56.889 25.47 56.889 56.889s-25.47 56.889-56.889 56.889v0zM395.924 867.481l-379.259-379.259 80.453-80.448 379.259 379.259zM16.665 407.771l379.259-379.259 80.448 80.448-379.259 379.259zM56.889 391.106h910.222v113.778h-910.222z" />
<glyph unicode="&#xe921;" glyph-name="back-down" d="M931.483 412.37c-10.293 10.293-24.514 16.66-40.222 16.66s-29.929-6.366-40.222-16.66l-282.149-282.149v772.888c0 31.419-25.47 56.889-56.889 56.889s-56.889-25.47-56.889-56.889v0-772.888l-282.145 282.149c-10.324 10.476-24.669 16.969-40.53 16.969-31.419 0-56.889-25.47-56.889-56.889 0-15.86 6.491-30.205 16.958-40.521l379.273-379.268c10.293-10.295 24.514-16.663 40.222-16.663s29.929 6.368 40.222 16.663l379.261 379.261c10.295 10.293 16.663 24.516 16.663 40.224s-6.368 29.931-16.663 40.224v0z" />
<glyph unicode="&#xe922;" glyph-name="back-up" d="M931.481 564.075l-379.259 379.259c-10.293 10.295-24.514 16.663-40.222 16.663s-29.929-6.368-40.222-16.663l-379.264-379.259c-10.114-10.263-16.359-24.363-16.359-39.92 0-31.419 25.47-56.889 56.889-56.889 15.559 0 29.659 6.247 39.931 16.368l282.137 282.135v-772.883c0-31.419 25.47-56.889 56.889-56.889s56.889 25.47 56.889 56.889v0 772.883l282.147-282.142c10.281-10.217 24.45-16.533 40.094-16.533 31.417 0 56.884 25.468 56.884 56.884 0 15.646-6.316 29.815-16.539 40.1l0.004-0.004z" />
<glyph unicode="&#xe923;" glyph-name="back-right" d="M1007.336 488.222l-379.261 379.261c-10.252 10.050-24.308 16.253-39.812 16.253-31.419 0-56.889-25.47-56.889-56.889 0-15.506 6.204-29.565 16.265-39.826l282.14-282.135h-772.893c-31.419 0-56.889-25.47-56.889-56.889s25.47-56.889 56.889-56.889v0h772.888l-282.144-282.145c-10.219-10.281-16.535-24.452-16.535-40.096 0-31.417 25.469-56.884 56.884-56.884 15.645 0 29.813 6.315 40.098 16.535l379.257 379.257c10.295 10.293 16.663 24.516 16.663 40.224s-6.368 29.931-16.663 40.224v0z" />
<glyph unicode="&#xe924;" glyph-name="back-up-right" d="M947.231 960.15h-725.372c-42.491 0-76.938-34.447-76.938-76.938s34.447-76.938 76.938-76.938v0h539.624l-739.108-739.117c-13.721-13.89-22.199-32.987-22.199-54.066 0-42.491 34.447-76.938 76.938-76.938 21.079 0 40.178 8.478 54.075 22.209l739.11 739.101v-539.629c0-42.491 34.447-76.938 76.938-76.938s76.938 34.447 76.938 76.938v0 725.372c0 0.002 0 0.005 0 0.010 0 42.491-34.447 76.938-76.938 76.938-0.002 0-0.007 0-0.010 0v0z" />
<glyph unicode="&#xe925;" glyph-name="back-up-left" d="M1001.636 67.176l-739.121 739.121h539.634c42.492 0 76.938 34.447 76.938 76.938s-34.447 76.938-76.938 76.938v0h-725.376c-42.492 0-76.938-34.447-76.938-76.938v0-725.388c0-42.492 34.447-76.938 76.938-76.938s76.938 34.447 76.938 76.938v0 539.642l739.112-739.112c13.89-13.726 32.99-22.204 54.071-22.204 42.492 0 76.938 34.447 76.938 76.938 0 21.076-8.475 40.174-22.204 54.071l0.007-0.007z" />
<glyph unicode="&#xe926;" glyph-name="back-down-left" d="M1001.469 937.475c-13.921 13.917-33.15 22.524-54.389 22.524s-40.469-8.607-54.389-22.524l-738.864-738.877v539.46c0 42.478-34.435 76.913-76.913 76.913s-76.913-34.435-76.913-76.913v0-725.146c0-42.478 34.435-76.913 76.913-76.913v0h725.145c42.478 0 76.913 34.435 76.913 76.913s-34.435 76.913-76.913 76.913v0h-539.466l738.877 738.877c13.919 13.919 22.528 33.147 22.528 54.387s-8.609 40.468-22.528 54.387v0z" />
<glyph unicode="&#xe927;" glyph-name="back-down-right" d="M946.947 814.831c-42.464 0-76.888-34.424-76.888-76.888v0-539.29l-738.634 738.634c-13.946 14.114-33.302 22.855-54.701 22.855-42.464 0-76.888-34.424-76.888-76.888 0-21.399 8.741-40.755 22.85-54.696l738.651-738.641h-539.29c-42.464 0-76.888-34.424-76.888-76.888s34.424-76.888 76.888-76.888h724.902c42.464 0 76.888 34.424 76.888 76.888v0 724.912c0 42.464-34.424 76.888-76.888 76.888v0z" />
<glyph unicode="&#xe928;" glyph-name="more-horizontal" d="M118.154 566.148v0c65.254 0 118.154-52.9 118.154-118.154v0 0c0-65.254-52.9-118.154-118.154-118.154v0 0c-65.254 0-118.154 52.9-118.154 118.154v0 0c0 65.254 52.9 118.154 118.154 118.154v0zM512 566.148v0c65.254 0 118.154-52.9 118.154-118.154v0 0c0-65.254-52.9-118.154-118.154-118.154v0 0c-65.254 0-118.154 52.9-118.154 118.154v0 0c0 65.254 52.9 118.154 118.154 118.154v0zM905.846 566.148v0c65.254 0 118.154-52.9 118.154-118.154v0 0c0-65.254-52.9-118.154-118.154-118.154v0 0c-65.254 0-118.154 52.9-118.154 118.154v0 0c0 65.254 52.9 118.154 118.154 118.154v0z" />
<glyph unicode="&#xe929;" glyph-name="more-vertical" d="M630.154 841.842v0c0-65.254-52.9-118.154-118.154-118.154v0 0c-65.254 0-118.154 52.9-118.154 118.154v0 0c0 65.254 52.9 118.154 118.154 118.154v0 0c65.254 0 118.154-52.9 118.154-118.154v0zM630.154 447.994v0c0-65.254-52.9-118.154-118.154-118.154v0 0c-65.254 0-118.154 52.9-118.154 118.154v0 0c0 65.254 52.9 118.154 118.154 118.154v0 0c65.254 0 118.154-52.9 118.154-118.154v0zM630.154 54.149v0c0-65.254-52.9-118.154-118.154-118.154v0 0c-65.254 0-118.154 52.9-118.154 118.154v0 0c0 65.254 52.9 118.154 118.154 118.154v0 0c65.254 0 118.154-52.9 118.154-118.154v0z" />
<glyph unicode="&#xe92a;" glyph-name="drag" d="M807.384 841.842v0c0-65.254-52.9-118.154-118.154-118.154v0 0c-65.254 0-118.154 52.9-118.154 118.154v0 0c0 65.254 52.9 118.154 118.154 118.154v0 0c65.254 0 118.154-52.9 118.154-118.154v0zM807.384 447.994v0c0-65.254-52.9-118.154-118.154-118.154v0 0c-65.254 0-118.154 52.9-118.154 118.154v0 0c0 65.254 52.9 118.154 118.154 118.154v0 0c65.254 0 118.154-52.9 118.154-118.154v0zM807.384 54.149v0c0-65.254-52.9-118.154-118.154-118.154v0 0c-65.254 0-118.154 52.9-118.154 118.154v0 0c0 65.254 52.9 118.154 118.154 118.154v0 0c65.254 0 118.154-52.9 118.154-118.154v0zM452.923 841.842v0c0-65.254-52.9-118.154-118.154-118.154v0 0c-65.254 0-118.154 52.9-118.154 118.154v0 0c0 65.254 52.9 118.154 118.154 118.154v0 0c65.254 0 118.154-52.9 118.154-118.154v0zM452.923 447.994v0c0-65.254-52.9-118.154-118.154-118.154v0 0c-65.254 0-118.154 52.9-118.154 118.154v0 0c0 65.254 52.9 118.154 118.154 118.154v0 0c65.254 0 118.154-52.9 118.154-118.154v0zM452.923 54.149v0c0-65.254-52.9-118.154-118.154-118.154v0 0c-65.254 0-118.154 52.9-118.154 118.154v0 0c0 65.254 52.9 118.154 118.154 118.154v0 0c65.254 0 118.154-52.9 118.154-118.154v0z" />
<glyph unicode="&#xe92b;" glyph-name="move-to-left" d="M939.133 807.363c15.441 16.184 24.944 38.152 24.944 62.339 0 49.911-40.459 90.37-90.37 90.37-25.723 0-48.934-10.748-65.392-27.994l-0.034-0.037-401.759-421.629c-15.444-16.181-24.95-38.152-24.95-62.342s9.505-46.158 24.984-62.376l-0.034 0.034 401.759-421.626c16.492-17.285 39.702-28.031 65.426-28.031 49.908 0 90.367 40.459 90.367 90.367 0 24.184-9.503 46.152-24.975 62.37l0.034-0.037-342.369 359.298zM240.9 869.705c0 49.908-40.459 90.367-90.367 90.367s-90.367-40.459-90.367-90.367v0-843.255c0-49.908 40.459-90.367 90.367-90.367s90.367 40.459 90.367 90.367v0z" />
<glyph unicode="&#xe92c;" glyph-name="move-to-right" d="M85.108 88.804c-15.444-16.184-24.947-38.154-24.947-62.344 0-49.911 40.462-90.372 90.372-90.372 25.723 0 48.933 10.745 65.392 27.994l0.034 0.037 401.761 421.625c15.444 16.181 24.95 38.152 24.95 62.342s-9.505 46.158-24.984 62.376l0.034-0.034-401.761 421.631c-16.492 17.283-39.702 28.031-65.425 28.031-49.911 0-90.369-40.459-90.369-90.369 0-24.187 9.503-46.155 24.978-62.376l-0.034 0.037 342.365-359.289zM783.34 26.463c0-49.908 40.459-90.367 90.367-90.367s90.367 40.459 90.367 90.367v0 843.247c0 49.908-40.459 90.367-90.367 90.367s-90.367-40.459-90.367-90.367v0z" />
<glyph unicode="&#xe92d;" glyph-name="reset" d="M512.189 835.14l-0.189-0.012v100.698c0 0.002 0 0.003 0 0.005 0 10.7-8.675 19.375-19.375 19.375-4.3 0-8.274-1.402-11.487-3.772l0.053 0.038-220.853-161.427c-4.838-3.565-7.941-9.241-7.941-15.641s3.103-12.076 7.888-15.603l0.053-0.038 220.856-161.427c3.161-2.331 7.132-3.731 11.431-3.731 10.7 0 19.375 8.675 19.375 19.375 0 0 0 0.002 0 0.002v0 97.194h0.189c178.487-2.986 322.031-148.379 322.031-327.297 0-180.785-146.555-327.34-327.34-327.34-162.339 0-297.078 118.175-322.882 273.194l-0.262 1.91c-5.034 29.754-30.614 52.132-61.42 52.132-34.378 0-62.247-27.87-62.247-62.247 0-3.058 0.221-6.064 0.646-9.003l-0.039 0.335c35.648-217.067 221.879-380.655 446.318-380.655 249.623 0 451.982 202.359 451.982 451.982 0 247.796-199.409 449.019-446.511 451.951l-0.277 0.003z" />
<glyph unicode="&#xe92e;" glyph-name="line-style" d="M73.147 813.713c-40.395 0-73.143-32.748-73.143-73.143s32.748-73.143 73.143-73.143h877.713c40.395 0 73.143 32.748 73.143 73.143s-32.748 73.143-73.143 73.143v0zM73.147 521.138c-40.395 0-73.142-32.746-73.142-73.142s32.746-73.142 73.142-73.142h292.57c40.395 0 73.142 32.746 73.142 73.142s-32.746 73.142-73.142 73.142v0zM0.003 155.428c0.002 40.394 32.748 73.14 73.143 73.14s73.143-32.746 73.143-73.143c0-40.395-32.746-73.142-73.142-73.143v0c-40.395 0-73.143 32.748-73.143 73.145 0 0 0 0.002 0 0.002v0zM292.575 228.57c0 0-0.002 0-0.002 0-40.395 0-73.143-32.748-73.143-73.143s32.748-73.143 73.143-73.143c40.395 0 73.143 32.748 73.143 73.143 0 0 0 0.002 0 0.002v0c-0.003 40.394-32.748 73.138-73.142 73.142v0zM438.858 155.428c0.002 40.395 32.748 73.142 73.143 73.142s73.143-32.748 73.143-73.143c0-40.395-32.746-73.142-73.142-73.143v0c-40.397 0-73.145 32.748-73.145 73.145v0zM731.432 228.57c0 0-0.002 0-0.002 0-40.395 0-73.143-32.748-73.143-73.143s32.748-73.143 73.143-73.143c40.395 0 73.143 32.748 73.143 73.143 0 0 0 0.002 0 0.002v0c-0.003 40.394-32.748 73.138-73.142 73.142v0zM877.715 155.428c0.002 40.395 32.748 73.142 73.143 73.142s73.143-32.748 73.143-73.143c0-40.395-32.746-73.142-73.142-73.143v0c-40.397 0-73.145 32.748-73.145 73.145v0zM658.287 521.138c-40.395 0-73.142-32.746-73.142-73.142s32.746-73.142 73.142-73.142h292.573c40.395 0 73.142 32.746 73.142 73.142s-32.746 73.142-73.142 73.142v0z" />
<glyph unicode="&#xe92f;" glyph-name="chart-group" d="M82.996 28.216v0c0-5.094 4.128-9.221 9.221-9.221h288.18c5.092 0.002 9.22 4.13 9.221 9.221v209.412c0 5.094-4.128 9.221-9.221 9.221h-288.18c-5.094 0-9.221-4.128-9.221-9.221v-209.412zM92.218-64.003c-50.93 0.002-92.215 41.287-92.217 92.217v0 209.412c0 50.93 41.287 92.217 92.217 92.217 0 0 0.002 0 0.002 0h288.18c50.93 0 92.217-41.287 92.217-92.217v0-209.412c-0.002-50.93-41.287-92.215-92.217-92.217v0zM634.377 658.368v0c0-5.094 4.128-9.221 9.221-9.221h288.18c5.092 0.002 9.22 4.13 9.221 9.221v209.412c-0.002 5.092-4.13 9.22-9.221 9.221h-288.18c-5.094 0-9.221-4.128-9.221-9.221v-209.412zM643.599 566.151c-50.93 0-92.217 41.287-92.217 92.217v0 209.412c0 50.93 41.287 92.217 92.217 92.217v0h288.18c50.93 0 92.217-41.287 92.217-92.217v0-209.412c0-50.93-41.287-92.217-92.217-92.217v0zM380.397 877.002v0c5.092-0.002 9.22-4.13 9.221-9.221v-366.951c-0.002-5.092-4.13-9.22-9.221-9.221h-288.18c-5.094 0-9.221 4.128-9.221 9.221v366.951c0 5.094 4.128 9.221 9.221 9.221h288.18zM92.218 959.997c-50.93-0.002-92.215-41.287-92.217-92.217v0-366.951c0.002-50.93 41.289-92.217 92.219-92.217h288.18c50.93 0.002 92.215 41.287 92.217 92.217v0 366.951c-0.002 50.93-41.287 92.215-92.217 92.217v0zM643.599 404.388v0c-5.094 0-9.221-4.128-9.221-9.221v-366.951c0-5.094 4.128-9.221 9.221-9.221h288.18c5.092 0.002 9.22 4.13 9.221 9.221v366.951c-0.002 5.092-4.13 9.22-9.221 9.221h-288.18zM551.382 395.165c0 50.93 41.287 92.217 92.217 92.217v0h288.18c50.93 0 92.217-41.287 92.217-92.217v0-366.951c0-50.93-41.287-92.217-92.217-92.217v0h-288.18c-50.93 0-92.217 41.287-92.217 92.217v0z" />
<glyph unicode="&#xe930;" glyph-name="coloring" d="M777.34 670.228c-47.589-1.432-85.619-40.353-85.619-88.155 0-48.707 39.485-88.192 88.192-88.192s88.192 39.485 88.192 88.192c0 0 0 0.002 0 0.002v0c-0.804 48.86-40.602 88.16-89.577 88.16-0.418 0-0.835-0.003-1.251-0.008h0.062zM562.522 813.311c-47.589-1.432-85.619-40.353-85.619-88.155 0-48.707 39.485-88.192 88.192-88.192s88.192 39.485 88.192 88.192c0 0 0 0.002 0 0.002v0c-0.803 48.861-40.6 88.162-89.577 88.162-0.418 0-0.835-0.003-1.251-0.008h0.064zM324.643 569.792c47.589 1.432 85.619 40.353 85.619 88.155 0 48.707-39.485 88.192-88.192 88.192s-88.192-39.483-88.192-88.19v0c0.804-48.861 40.603-88.163 89.581-88.163 0.416 0 0.833 0.003 1.248 0.008h-0.064zM333.299 434.281c0.025 0.791 0.039 1.721 0.039 2.653 0 50.151-40.655 90.806-90.806 90.806s-90.806-40.655-90.806-90.806c0-50.151 40.654-90.805 90.805-90.806v0c0.353-0.005 0.769-0.008 1.185-0.008 48.979 0 88.778 39.3 89.582 88.086l0.002 0.076zM985.15 700.738c-46.611 78.295-110.622 141.736-186.981 186.339l-2.475 1.335c-76.957 44.999-169.437 71.568-268.125 71.568-0.247 0-0.494 0-0.741 0h0.039c-0.781 0.003-1.703 0.007-2.626 0.007-143.822 0-274.296-57.153-369.949-149.988l0.133 0.128c-95.233-91.485-154.399-219.899-154.399-362.131s59.166-270.646 154.231-361.971l0.168-0.161c95.543-92.707 226.038-149.86 369.882-149.86 0.9 0 1.8 0.002 2.7 0.007h-0.138c18.061 0 36.164 0.9 53.815 2.621 46.26 3.877 85.603 30.288 107.359 68.099l0.351 0.663c11.465 18.932 18.251 41.811 18.251 66.271 0 21.673-5.326 42.101-14.74 60.048l0.339-0.71c-25.269 50.907-28.053 94.524-7.618 119.629 15.881 15.996 37.883 25.896 62.195 25.896 0.509 0 1.018-0.005 1.525-0.013l-0.077 0.002c102.733 3.969 191.177 61.522 238.554 145.355l0.742 1.426c22.922 38.904 36.461 85.71 36.461 135.678 0 51.637-14.459 99.896-39.551 140.951l0.675-1.187zM618.973 98.11c3.845-7.059 6.107-15.462 6.107-24.391 0-10.056-2.868-19.444-7.83-27.388l0.128 0.218c-9.103-16.096-25.545-27.12-44.66-28.534l-0.185-0.012c-15.112-1.516-30.512-2.253-45.664-2.253-1.771-0.025-3.862-0.040-5.956-0.040-240.181 0-435.361 192.678-439.4 431.897l-0.005 0.379c4.027 239.605 199.207 432.297 439.395 432.297 2.097 0 4.193-0.015 6.283-0.044l-0.316 0.003c0.532 0.002 1.162 0.003 1.79 0.003 163.161 0 306.002-86.991 384.676-217.122l1.127-2.010c17.717-28.498 28.22-63.084 28.22-100.122 0-35.863-9.846-69.428-26.986-98.136l0.485 0.877c-34.307-61.717-98.24-103.309-172.074-105.553l-0.306-0.007c-48.885-0.099-92.727-21.606-122.665-55.64l-0.158-0.183c-40.874-50.127-41.609-124.582-2.007-204.239z" />
<glyph unicode="&#xe931;" glyph-name="zoom-in" d="M438.868 191.921v0c0 0-0.001 0-0.001 0-181.817 0-329.209 147.393-329.209 329.209 0 0 0 0.001 0 0.001v0c0 181.818 147.393 329.211 329.211 329.211s329.211-147.393 329.211-329.211c0-181.818-147.393-329.211-329.211-329.211 0 0 0 0 0 0zM785.63 251.969c57.475 73.496 92.163 167.232 92.163 269.070 0 242.373-196.481 438.854-438.854 438.854s-438.854-196.481-438.854-438.854c0-242.373 196.481-438.854 438.854-438.854 101.852 0 195.598 34.697 270.068 92.915l-0.967-0.728 222.372-222.381c9.929-9.929 23.648-16.072 38.801-16.072 30.305 0 54.873 24.568 54.873 54.873 0 15.153-6.141 28.87-16.072 38.801v0zM438.868 722.316v0c-30.301-0.001-54.864-24.566-54.866-54.868v-91.453h-91.461c-30.213-0.105-54.675-24.63-54.675-54.868s24.46-54.764 54.685-54.868h91.45v-91.455c0.105-30.213 24.63-54.675 54.868-54.675s54.764 24.46 54.868 54.685v91.447h91.455c30.213 0.105 54.675 24.63 54.675 54.868s-24.46 54.764-54.685 54.868h-91.447v91.45c0 30.302-24.566 54.868-54.868 54.868z" />
<glyph unicode="&#xe932;" glyph-name="ignore-outliers" d="M859.341 555.186c-9.37-9.372-22.317-15.169-36.616-15.169s-27.247 5.797-36.616 15.169l-101.482 101.478-101.482-101.478c-9.371-9.371-22.318-15.168-36.618-15.168-28.601 0-51.787 23.186-51.787 51.787 0 14.301 5.797 27.247 15.168 36.619l101.478 101.478-101.478 101.482c-9.433 9.382-15.271 22.37-15.271 36.723 0 28.601 23.186 51.787 51.787 51.787 14.351 0 27.339-5.837 36.719-15.267l101.486-101.486 101.482 101.482c9.371 9.37 22.317 15.165 36.616 15.165 28.601 0 51.786-23.186 51.786-51.786 0-14.301-5.797-27.248-15.169-36.62l-101.478-101.482 101.478-101.478c9.372-9.371 15.169-22.318 15.169-36.618s-5.797-27.248-15.171-36.619v0zM97.684 171.623c-53.946-0.016-97.671-43.752-97.671-97.699 0-53.958 43.742-97.699 97.699-97.699s97.699 43.742 97.699 97.699v0c-0.071 53.938-43.785 97.644-97.721 97.699h-0.005zM304.841 447.843c-53.96-0.008-97.701-43.753-97.701-97.714 0-53.967 43.748-97.714 97.714-97.714 53.961 0 97.706 43.741 97.714 97.699v0c-0.058 53.949-43.777 97.668-97.721 97.727h-0.005zM512 171.623c-53.958 0-97.699-43.742-97.699-97.699s43.742-97.699 97.699-97.699c53.958 0 97.699 43.742 97.699 97.699v0c-0.074 53.928-43.772 97.625-97.693 97.699h-0.007zM926.313 447.843c-0.004 0-0.009 0-0.015 0-53.967 0-97.714-43.748-97.714-97.714s43.748-97.714 97.714-97.714c53.961 0 97.706 43.741 97.714 97.699v0.001c-0.066 53.937-43.765 97.647-97.693 97.727h-0.008z" />
<glyph unicode="&#xe933;" glyph-name="smoothing" d="M881.535 712.29c8.584 10.572 13.782 24.196 13.782 39.032 0 34.331-27.83 62.162-62.162 62.162-19.343 0-36.621-8.834-48.022-22.688l-0.086-0.107c-88.289-120.153-203.262-215.666-336.531-278.884l-5.374-2.294c-98.4-37.148-212.149-58.654-330.921-58.654-17.585 0-35.059 0.472-52.412 1.402l2.421-0.103c-34.33 0-62.161-27.83-62.161-62.161s27.83-62.161 62.161-62.161v0c15.156-0.758 32.91-1.191 50.765-1.191 135.739 0 265.644 24.976 385.37 70.584l-7.433-2.487c158.193 73.673 289.527 181.594 388.694 314.867l1.909 2.683zM1015.582 637.694c5.281 6.295 8.488 14.485 8.488 23.423 0 20.193-16.37 36.563-36.563 36.563-11.255 0-21.321-5.085-28.028-13.082l-0.047-0.056-327.206-392.226-101.576 65.802c-5.611 3.683-12.489 5.875-19.878 5.875-9.764 0-18.636-3.827-25.193-10.065l0.016 0.015-155.357-147.518-112.309 68.765c-5.436 3.38-12.032 5.383-19.095 5.383-10.117 0-19.275-4.109-25.893-10.751l-124.738-125.134c-6.522-6.601-10.55-15.677-10.55-25.695 0-20.194 16.371-36.565 36.565-36.565 10.058 0 19.168 4.061 25.778 10.633l-0.001-0.001 104.363 104.693 111.621-68.347c5.436-3.38 12.032-5.382 19.095-5.382 9.764 0 18.634 3.827 25.193 10.062l-0.016-0.015 154.816 147.014 104.597-67.762c5.612-3.684 12.491-5.878 19.883-5.878 11.255 0 21.323 5.085 28.030 13.082l0.047 0.056z" />
<glyph unicode="&#xe934;" glyph-name="highlight-mode" d="M106.038 765.711c0 48.737 39.51 88.247 88.247 88.247 0 0 0 0 0 0h121.12c0.054 0 0.116 0 0.178 0 29.242 0 52.948 23.706 52.948 52.948s-23.706 52.948-52.948 52.948c-0.062 0-0.126 0-0.188 0h-121.11c-107.223 0-194.144-86.921-194.144-194.144v0-121.121c0.102-29.166 23.768-52.77 52.948-52.77s52.847 23.605 52.948 52.76v0.010zM708.879 959.854c-29.166-0.102-52.77-23.768-52.77-52.948s23.605-52.847 52.76-52.948h121.127c0 0 0.001 0 0.003 0 48.737 0 88.246-39.509 88.246-88.246 0 0 0-0.001 0-0.001v0-121.121c0.102-29.166 23.768-52.77 52.948-52.77s52.847 23.605 52.948 52.76v121.131c0 0 0 0 0 0 0 107.223-86.921 194.144-194.144 194.144 0 0-0.001 0-0.001 0v0zM106.038 251.117c0 0.054 0 0.116 0 0.178 0 29.242-23.706 52.948-52.948 52.948s-52.948-23.706-52.948-52.948c0-0.062 0-0.126 0-0.188v0.010-121.117c0 0 0 0 0 0 0-107.223 86.921-194.144 194.144-194.144 0 0 0 0 0.001 0h121.12c29.242 0 52.948 23.706 52.948 52.948s-23.706 52.948-52.948 52.948h-121.12c0 0-0.001 0-0.003 0-48.737 0-88.246 39.509-88.246 88.246 0 0 0 0.001 0 0.001v0zM1024.141 251.117c0 0.054 0 0.116 0 0.178 0 29.242-23.706 52.948-52.948 52.948s-52.948-23.706-52.948-52.948c0-0.062 0-0.126 0-0.188v0.010-121.117c0-0.001 0-0.003 0-0.004 0-48.736-39.507-88.243-88.243-88.243-0.001 0-0.003 0-0.006 0h-121.117c-29.242 0-52.948-23.706-52.948-52.948s23.706-52.948 52.948-52.948h121.117c0 0 0.001 0 0.001 0 107.223 0 194.142 86.921 194.142 194.142 0 0.001 0 0.001 0 0.003v0zM799.888 590.794c7.547 9.085 12.128 20.868 12.128 33.721 0 29.242-23.706 52.948-52.948 52.948-16.39 0-31.038-7.446-40.751-19.139l-0.071-0.088-186.477-225.734-76.485 76.494c-9.582 9.58-22.818 15.506-37.438 15.506-17.090 0-32.289-8.096-41.97-20.663l-0.092-0.124-152.959-200.024c-6.841-8.832-10.966-20.066-10.966-32.264 0-29.243 23.706-52.95 52.95-52.95 17.133 0 32.366 8.137 42.043 20.759l0.093 0.126 116.228 151.99 74.895-74.903c9.583-9.58 22.819-15.507 37.441-15.507 16.39 0 31.041 7.446 40.754 19.141l0.071 0.086z" />
<glyph unicode="&#xe935;" glyph-name="axes-scale" d="M36.572 831.996h950.856c20.198 0 36.572-16.374 36.572-36.572v0-146.286c0-20.198-16.374-36.572-36.572-36.572h-950.856c-20.198 0-36.572 16.374-36.572 36.572v0 146.286c0.001 20.198 16.374 36.57 36.572 36.57 0 0 0 0 0 0v0zM29.257 539.423h965.484c0 0 0 0 0 0 16.159 0 29.256-13.099 29.256-29.256v-87.769c0-16.159-13.099-29.256-29.256-29.256 0 0 0 0 0 0h-965.484c0 0 0 0 0 0-16.159 0-29.256 13.099-29.256 29.256v0 87.772c0 16.157 13.099 29.255 29.256 29.255 0 0 0 0 0 0v0zM21.943 319.995h980.113c12.118 0 21.943-9.824 21.943-21.943v0-65.828c0-12.118-9.824-21.943-21.943-21.943h-980.113c-12.118 0-21.943 9.824-21.943 21.943v0 65.829c0 12.118 9.824 21.943 21.943 21.943v0zM14.63 137.139h994.742c8.079 0 14.629-6.55 14.629-14.629v0-43.885c0-8.079-6.55-14.629-14.629-14.629h-994.742c-8.079 0-14.629 6.55-14.629 14.629v0 43.885c0 0 0 0.001 0 0.001 0 8.079 6.55 14.629 14.629 14.629v0z" />
<glyph unicode="&#xe936;" glyph-name="x-axis" d="M1023.916 176.235c0-0.003 0-0.005 0-0.008 0-10.572-4.891-20.003-12.536-26.151l-0.065-0.050-167.841-134.274c-5.691-4.584-13.006-7.357-20.971-7.357-18.537 0-33.564 15.027-33.564 33.564 0 0.001 0 0.001 0 0.003v0 83.921h-738.501c-0.050 0-0.111 0-0.17 0-27.809 0-50.352 22.543-50.352 50.352s22.543 50.352 50.352 50.352c0.059 0 0.12 0 0.18 0h738.491v83.921c0 0.001 0 0.001 0 0.003 0 18.537 15.027 33.564 33.564 33.564 7.963 0 15.28-2.774 21.036-7.408l-0.065 0.050 167.841-134.274c7.708-6.198 12.601-15.627 12.601-26.198 0-0.003 0-0.005 0-0.008v0zM174.773 781.268c4.588-2.043 9.943-3.232 15.574-3.232 0.189 0 0.377 0.001 0.565 0.004h-0.028c5.807 0.182 11.332 1.054 16.601 2.533l-0.486-0.116c4.491 1.646 9.696 2.794 15.105 3.216l0.204 0.012c10.644-0.235 20.252-4.488 27.405-11.297l-0.018 0.016c10.44-9.124 19.487-19.451 27.040-30.853l0.351-0.565q14.497-20.948 45.115-69.284l23.368-37.061q-55.592-72.506-88.621-111.981c-15.762-20.413-32.951-38.368-51.853-54.361l-0.516-0.426c-10.169-9.325-19.183-19.618-26.99-30.815l-0.397-0.603c-3.56-4.63-6.552-9.955-8.721-15.684l-0.142-0.428c0.969-11.56 5.692-21.865 12.93-29.846l-0.038 0.042c7.32-8.87 18.31-14.487 30.612-14.503h0.003c6.366 0.162 12.453 1.034 18.285 2.54l-0.562-0.123c6.179 1.685 11.563 4.456 16.207 8.123l-0.095-0.072c21.48 20.74 41.505 42.551 60.165 65.517l1.062 1.348q33.836 41.895 84.596 108.758c28.946-48.312 58.46-89.884 90.814-129.024l-1.392 1.733c17.764-24.004 45.044-40.094 76.157-42.672l0.381-0.026c0.966-0.030 2.101-0.047 3.241-0.047 17.246 0 33.585 3.879 48.192 10.813l-0.682-0.292c12.483 5.921 20.961 18.421 20.961 32.902 0 0.328-0.004 0.654-0.014 0.981l0.001-0.049c0.016 0.295 0.026 0.639 0.026 0.985 0 6.702-3.52 12.58-8.811 15.89l-0.078 0.046c-7.87 4.575-16.971 8.427-26.567 11.086l-0.821 0.195c-9.539 2.556-17.84 5.857-25.637 9.983l0.659-0.319c-20.913 13.167-38.356 29.841-51.983 49.374l-0.382 0.58q-27.393 37.056-71.701 109.563 48.339 63.643 83.783 106.344c20.296 24.892 41.116 47.24 63.303 68.153l0.349 0.326c5.648 12.294 9.157 26.622 9.66 41.712l0.005 0.182c0.039 0.65 0.062 1.409 0.062 2.174 0 9.328-3.375 17.869-8.971 24.466l0.045-0.054c-5.283 6.454-13.25 10.541-22.172 10.541-0.703 0-1.4-0.026-2.089-0.076l0.092 0.005c-0.168 0.003-0.365 0.003-0.563 0.003-8.977 0-17.394-2.393-24.65-6.576l0.239 0.127c-11.778-8.236-21.872-17.819-30.384-28.698l-0.231-0.305q-33.028-37.054-112.786-145.013-36.259 62.035-57.205 91.034c-12.174 18-26.874 33.213-43.794 45.565l-0.515 0.358c-15.346 10.609-34.349 16.946-54.835 16.946-0.831 0-1.659-0.011-2.485-0.031l0.123 0.003c-1.571 0.082-3.412 0.13-5.263 0.13-18.745 0-36.365-4.823-51.686-13.296l0.55 0.278c-11.422-6.052-20.533-15.162-26.418-26.245l-0.165-0.34c-2.040-3.724-3.241-8.158-3.241-12.872 0-0.289 0.004-0.577 0.014-0.863l-0.001 0.042c0.312-12.487 8.599-22.957 19.944-26.531l0.203-0.055z" />
<glyph unicode="&#xe937;" glyph-name="indicator" d="M639.998 960.001h-255.995c-70.692 0-127.998-57.306-127.998-127.998v0-768.004c0-70.692 57.306-127.998 127.998-127.998v0h255.995c70.692 0 127.998 57.306 127.998 127.998v0 768.001c-0.001 70.692-57.306 127.998-127.998 127.999v0zM639.998 31.999h-255.995c0 0 0 0 0 0-17.673 0-32 14.327-32 32 0 0 0 0 0 0v0 47.999h127.998c26.436 0.098 47.829 21.55 47.829 48.001s-21.392 47.901-47.818 48.001h-128.008v96.001h127.998c26.51 0 48.001 21.491 48.001 48.001s-21.491 48.001-48.001 48.001v0h-127.998v96h127.998c26.51 0 48.001 21.491 48.001 48.001s-21.491 48.001-48.001 48.001v0h-127.998v96h127.998c26.436 0.098 47.829 21.55 47.829 48.001s-21.392 47.901-47.818 48.001h-128.007v48.001c0 0 0 0 0 0 0 17.673 14.327 32 32 32 0.001 0 0.003 0 0.003 0h255.995c17.672-0.003 31.997-14.328 32-32v0-768.001c-0.003-17.672-14.328-31.997-32-32v0z" />
<glyph unicode="&#xe938;" glyph-name="aggregation" d="M747.131 343.58c-2.437 1.654-5.233 3.079-8.202 4.141l-0.261 0.081 124.904 277.567 118.378 71.028c11.342 6.841 18.81 19.095 18.81 33.094 0 21.272-17.244 38.516-38.516 38.516-7.365 0-14.246-2.067-20.096-5.651l0.168 0.095-274.672-164.807-276.726 221.382c-6.529 5.258-14.924 8.439-24.060 8.439-10.635 0-20.263-4.311-27.234-11.28l-297.638-297.643c-6.97-6.97-11.281-16.599-11.281-27.235s4.311-20.265 11.281-27.235v0c2.952-2.761 6.375-5.069 10.126-6.782l0.237-0.097-46.425-103.159c-1.071-2.323-1.697-5.041-1.697-7.904 0-10.637 8.623-19.26 19.26-19.26 7.773 0 14.471 4.606 17.514 11.236l0.050 0.12 57.635 128.073 133.301 133.302-193.845-430.759c-3.163-6.286-5.707-13.582-7.262-21.238l-0.097-0.567c-0.609-2.802-0.958-6.021-0.958-9.322 0-9.255 2.742-17.87 7.459-25.075l-0.107 0.174c7.008-10.401 18.741-17.15 32.052-17.15 7.96 0 15.356 2.414 21.497 6.551l-0.137-0.088 161.727 107.823 278.823-111.532c4.234-1.741 9.15-2.751 14.302-2.751 10.637 0 20.267 4.308 27.243 11.276v0l154.962 154.962 211.387-158.536c6.351-4.891 14.419-7.839 23.175-7.839 21.084 0 38.176 17.092 38.176 38.176 0 6.105-1.433 11.876-3.982 16.995l0.1-0.221 30.030 66.735c1.071 2.323 1.697 5.039 1.697 7.904 0 10.636-8.623 19.26-19.26 19.26-7.773 0-14.471-4.606-17.514-11.236l-0.050-0.12-24.439-54.314-54.826 41.121 79.251 176.111c1.072 2.323 1.697 5.041 1.697 7.904 0 10.636-8.621 19.257-19.257 19.257-7.772 0-14.468-4.604-17.511-11.234l-0.050-0.12-75.71-168.237-54.788 41.093 148.413 329.785c1.071 2.323 1.697 5.041 1.697 7.904 0 10.637-8.624 19.261-19.261 19.261-7.774 0-14.474-4.606-17.516-11.238l-0.050-0.12-144.859-321.913-47.060 35.295zM92.627 196.075l216.154 480.331 60.934 60.934 29.263-23.41-201.621-448.035zM262.109 288.998c-3.24 1.011-6.965 1.594-10.827 1.594-0.204 0-0.407-0.001-0.611-0.005h0.031l179.326 398.499 53.918-43.133-169.965-377.704zM349.77 253.935l165.235 367.172 53.895-43.114-157.017-348.905zM509.812 189.916l-62.132 24.855 152.273 338.379 40.481-32.385c4.407-3.026 9.663-5.159 15.337-6.016l0.206-0.025zM556.424 199.634l148.845 330.757 100.437 60.261-115.971-257.708z" />
<glyph unicode="&#xe939;" glyph-name="zoom-out" d="M438.886 191.979v0c0 0-0.001 0-0.001 0-181.775 0-329.134 147.358-329.134 329.134 0 0 0 0.001 0 0.001v0c0 181.777 147.359 329.136 329.136 329.136s329.136-147.359 329.136-329.136c0-181.777-147.359-329.136-329.136-329.136 0 0 0 0 0 0zM785.568 252.015c57.463 73.479 92.142 167.193 92.142 269.007 0 242.317-196.436 438.754-438.754 438.754s-438.754-196.436-438.754-438.754c0-242.317 196.436-438.754 438.754-438.754 101.828 0 195.554 34.688 270.005 92.894l-0.967-0.728 222.321-222.328c9.95-10.071 23.762-16.309 39.029-16.309 30.297 0 54.858 24.56 54.858 54.858 0 15.268-6.237 29.079-16.303 39.025l-0.006 0.006zM237.746 521.114v0c0-30.295 24.56-54.855 54.855-54.855h292.566c30.297 0 54.855 24.56 54.855 54.855s-24.56 54.855-54.855 54.855h-292.566c-30.295 0-54.855-24.56-54.855-54.855z" />
<glyph unicode="&#xe93a;" glyph-name="collapse-inside" d="M655.986 700.244l-120.47-150.589c-5.564-6.916-14.027-11.305-23.514-11.305s-17.951 4.389-23.469 11.246l-0.045 0.058-120.475 150.589c-4.111 5.105-6.599 11.668-6.599 18.813 0 16.633 13.484 30.117 30.117 30.117h90.353v180.706c0 16.633 13.484 30.117 30.117 30.117s30.117-13.484 30.117-30.117v0-180.706h90.353c0.001 0 0.003 0 0.006 0 16.631 0 30.113-13.482 30.113-30.113 0-7.146-2.489-13.713-6.649-18.875l0.045 0.058zM655.986 195.749l-120.47 150.589c-5.564 6.916-14.027 11.305-23.514 11.305s-17.951-4.389-23.469-11.246l-0.045-0.058-120.475-150.589c-4.111-5.105-6.599-11.668-6.599-18.813 0-16.633 13.484-30.117 30.117-30.117h90.353v-180.706c0-16.633 13.484-30.117 30.117-30.117s30.117 13.484 30.117 30.117v0 180.706h90.353c0.001 0 0.003 0 0.006 0 16.631 0 30.113 13.482 30.113 30.113 0 7.146-2.489 13.713-6.649 18.875l0.045-0.058zM873.413 493.172h-722.826c-24.95 0-45.177-20.226-45.177-45.177s20.226-45.177 45.177-45.177v0h722.826c24.95 0 45.177 20.226 45.177 45.177s-20.226 45.177-45.177 45.177v0z" />
<glyph unicode="&#xe93b;" glyph-name="collapse-outside" d="M659.617 766.243c-4.978-10.182-15.257-17.070-27.147-17.070h-90.353v-180.706c0-16.633-13.484-30.117-30.117-30.117s-30.117 13.484-30.117 30.117v0 180.706h-90.353c0 0-0.001 0-0.001 0-16.633 0-30.117 13.484-30.117 30.117 0 7.146 2.489 13.711 6.647 18.874l-0.045-0.058 120.474 150.589c5.565 6.915 14.027 11.301 23.514 11.301s17.949-4.388 23.469-11.243l0.045-0.058 120.47-150.589c4.114-5.106 6.603-11.672 6.603-18.82 0-4.744-1.096-9.23-3.049-13.221l0.079 0.178zM659.617 129.75c-4.978 10.182-15.257 17.070-27.147 17.070h-90.353v180.706c0 16.633-13.484 30.117-30.117 30.117s-30.117-13.484-30.117-30.117v0-180.706h-90.353c-16.633 0-30.117-13.485-30.117-30.117 0-7.145 2.488-13.707 6.644-18.871l-0.045 0.058 120.474-150.589c5.564-6.916 14.027-11.305 23.514-11.305s17.951 4.389 23.469 11.246l0.045 0.058 120.47 150.589c4.114 5.106 6.603 11.671 6.603 18.817 0 4.742-1.096 9.229-3.049 13.22l0.079-0.178zM873.411 493.172h-722.823c-24.95 0-45.176-20.226-45.176-45.176s20.226-45.176 45.176-45.176v0h722.823c24.95 0 45.176 20.226 45.176 45.176s-20.226 45.176-45.176 45.176v0z" />
<glyph unicode="&#xe93c;" glyph-name="arrow-bidirectional-close" d="M324.781 943.040c-10.291 10.303-24.513 16.675-40.225 16.675-31.4 0-56.855-25.455-56.855-56.855 0-15.712 6.373-29.934 16.675-40.225v0l227.421-227.421c10.287-10.289 24.501-16.653 40.2-16.653s29.913 6.364 40.2 16.653l227.421 227.421c10.47 10.317 16.959 24.654 16.959 40.506 0 31.4-25.455 56.855-56.855 56.855-15.85 0-30.187-6.487-40.497-16.948l-187.226-187.226zM699.221-47.047c10.245-10.035 24.284-16.227 39.772-16.227 31.4 0 56.855 25.455 56.855 56.855 0 15.488-6.192 29.527-16.236 39.783l-227.412 227.412c-10.287 10.289-24.501 16.653-40.2 16.653s-29.913-6.364-40.2-16.653l-227.421-227.421c-10.47-10.317-16.955-24.654-16.955-40.504 0-31.4 25.455-56.855 56.855-56.855 15.852 0 30.188 6.487 40.499 16.952l187.222 187.221z" />
<glyph unicode="&#xe93d;" glyph-name="arrow-bidirectional-open" d="M699.332 635.325c10.324-10.476 24.668-16.965 40.528-16.965 31.419 0 56.889 25.47 56.889 56.889 0 15.861-6.491 30.206-16.962 40.523l-227.563 227.563c-10.293 10.295-24.516 16.663-40.224 16.663s-29.931-6.368-40.224-16.663l-227.556-227.556c-10.423-10.316-16.878-24.626-16.878-40.441 0-31.419 25.47-56.889 56.889-56.889 15.817 0 30.124 6.455 40.436 16.873l187.335 187.335zM324.67 260.665c-10.263 10.116-24.364 16.361-39.924 16.361-31.419 0-56.889-25.47-56.889-56.889 0-15.557 6.245-29.657 16.366-39.927l227.549-227.549c10.293-10.295 24.516-16.663 40.224-16.663s29.931 6.368 40.224 16.663l227.556 227.556c10.041 10.251 16.236 24.299 16.236 39.796 0 31.419-25.47 56.889-56.889 56.889-15.497 0-29.545-6.196-39.806-16.245l-187.321-187.316z" />
<glyph unicode="&#xe93e;" glyph-name="link" d="M929.206 865.233c-126.362 126.364-331.242 126.364-457.604 0l-94.21-94.212c-22.302-22.3-22.302-58.454 0-80.754s58.449-22.3 80.749 0l94.217 94.212c81.762 81.764 214.329 81.764 296.098 0 81.762-81.764 81.762-214.336 0-296.098l-94.217-94.21c-22.3-22.3-22.3-58.456 0-80.758s58.456-22.3 80.758 0l94.21 94.21c126.362 126.369 126.362 331.244 0 457.608zM269.718 501.843c22.3 22.3 22.3 58.449 0 80.749-22.3 22.302-58.454 22.302-80.754 0l-94.212-94.21c-126.364-126.362-126.364-331.242 0-457.604s331.237-126.362 457.606 0l94.21 94.21c22.3 22.3 22.3 58.456 0 80.758s-58.456 22.3-80.758 0l-94.21-94.21c-81.762-81.769-214.332-81.769-296.096 0-81.764 81.762-81.764 214.329 0 296.091l94.212 94.217zM660.030 515.303c22.3 22.293 22.3 58.449 0 80.749s-58.456 22.3-80.758 0l-215.34-215.34c-22.3-22.3-22.3-58.456 0-80.758s58.456-22.3 80.758 0l215.34 215.349z" />
<glyph unicode="&#xe93f;" glyph-name="row-height" d="M340.815 294.673c2.092-4.252 3.316-9.257 3.316-14.546 0-7.963-2.773-15.28-7.408-21.035l0.050 0.065-134.294-167.869c-6.204-7.71-15.64-12.601-26.217-12.601s-20.012 4.891-26.167 12.537l-0.050 0.065-134.294 167.869c-4.583 5.691-7.356 13.007-7.356 20.972 0 18.542 15.031 33.573 33.573 33.573h83.934v268.59h-83.934c0 0-0.002 0-0.002 0-18.542 0-33.573 15.031-33.573 33.573 0 7.966 2.775 15.284 7.409 21.040l-0.050-0.065 134.294 167.869c6.205 7.708 15.64 12.598 26.217 12.598s20.012-4.89 26.167-12.533l0.050-0.065 134.294-167.869c4.584-5.692 7.359-13.010 7.359-20.975 0-18.542-15.031-33.573-33.573-33.573 0 0-0.002 0-0.002 0h-83.934v-268.59h83.934c13.253 0 24.711-7.68 30.171-18.83l0.088-0.198zM982.032 800.519h-537.179c-27.813 0-50.361-22.547-50.361-50.361s22.547-50.361 50.361-50.361h537.179c27.813 0 50.361 22.547 50.361 50.361s-22.547 50.361-50.361 50.361v0zM982.032 599.077h-537.179c-27.813 0-50.361-22.547-50.361-50.361s22.547-50.361 50.361-50.361v0h537.179c27.813 0 50.361 22.547 50.361 50.361s-22.547 50.361-50.361 50.361v0zM982.032 397.635h-537.179c-27.813 0-50.361-22.547-50.361-50.361s22.547-50.361 50.361-50.361v0h537.179c27.813 0 50.361 22.547 50.361 50.361s-22.547 50.361-50.361 50.361v0zM982.032 196.193h-537.179c-27.813 0-50.361-22.547-50.361-50.361s22.547-50.361 50.361-50.361v0h537.179c27.813 0 50.361 22.547 50.361 50.361s-22.547 50.361-50.361 50.361v0z" />
<glyph unicode="&#xe940;" glyph-name="params" d="M996.075 335.999h-33.075c-4.647 13.098-12.476 24.833-22.776 34.142v267.713c15.113 13.653 24.704 32.384 26.97 52.65l36.621 10.595c7.095 2.078 13.082 6.887 16.644 13.38s4.412 14.139 2.364 21.257c-2.052 7.121-6.831 13.137-13.295 16.73s-14.085 4.467-21.192 2.436l-33.57-9.707c-4.074 6.272-8.964 11.973-14.541 16.952v115.188c0 4.95-1.962 9.698-5.453 13.199s-8.226 5.468-13.163 5.468h-74.466c-4.941 0-9.672-1.967-13.167-5.468-3.491-3.501-5.453-8.249-5.453-13.199v-115.188c-8.661-7.74-15.617-17.211-20.417-27.81-4.8-10.595-7.335-22.080-7.446-33.716l-220.703-63.834c-3.537 4.872-7.583 9.353-12.071 13.359v227.188c0 4.95-1.962 9.698-5.453 13.199s-8.226 5.468-13.163 5.468h-74.466c-4.937 0-9.672-1.967-13.163-5.468s-5.453-8.249-5.453-13.199v-227.18c-4.493-4.011-8.538-8.49-12.075-13.368l-220.699 63.834c-0.111 11.636-2.646 23.121-7.446 33.72-4.796 10.599-11.751 20.070-20.417 27.815v115.179c0 4.95-1.962 9.699-5.453 13.199-3.495 3.501-8.231 5.468-13.167 5.468h-74.465c-4.938 0-9.672-1.967-13.164-5.468s-5.453-8.249-5.453-13.199v-115.179c-5.579-4.979-10.469-10.683-14.54-16.961l-33.569 9.707c-3.528 1.032-7.223 1.358-10.875 0.956-3.653-0.405-7.19-1.523-10.409-3.303-3.219-1.775-6.057-4.169-8.352-7.049-2.294-2.876-3.999-6.183-5.018-9.72-1.019-3.542-1.331-7.25-0.918-10.91s1.542-7.202 3.324-10.424c1.782-3.225 4.179-6.063 7.056-8.354s6.177-3.99 9.711-5.001l36.624-10.595c2.262-20.271 11.856-39.006 26.966-52.659v-379.701c-15.108-13.653-24.702-32.384-26.969-52.65l-36.624-10.595c-7.116-2.057-13.125-6.866-16.704-13.368s-4.437-14.162-2.384-21.296c2.054-7.134 6.849-13.158 13.332-16.751 6.483-3.588 14.123-4.446 21.239-2.39l33.57 9.711c4.074-6.276 8.963-11.976 14.54-16.956v-115.187c0-4.95 1.962-9.698 5.453-13.197 3.492-3.503 8.226-5.471 13.164-5.471h74.463c4.937 0 9.672 1.967 13.163 5.471 3.495 3.498 5.453 8.247 5.453 13.197v115.187c8.666 7.745 15.621 17.216 20.421 27.81 4.796 10.595 7.335 22.080 7.442 33.716l220.706 63.834c3.533-4.872 7.583-9.353 12.071-13.359v-227.188c0-4.95 1.962-9.698 5.453-13.202 3.491-3.498 8.226-5.466 13.163-5.466h74.466c4.937 0 9.672 1.967 13.163 5.466 3.495 3.503 5.453 8.252 5.453 13.202v227.192c10.299 9.311 18.129 21.044 22.776 34.142h215.087c4.65-13.098 12.476-24.833 22.776-34.142v-227.192c0-4.95 1.959-9.698 5.453-13.197 3.491-3.503 8.226-5.471 13.163-5.471h74.466c4.937 0 9.672 1.967 13.163 5.471 3.491 3.498 5.453 8.247 5.453 13.197v227.192c10.299 9.311 18.125 21.044 22.776 34.142h33.075c7.407 0 14.511 2.952 19.746 8.201 5.235 5.253 8.18 12.374 8.18 19.802 0 7.424-2.945 14.546-8.18 19.797s-12.339 8.201-19.746 8.201zM139.706 149.333c-9.206 0-18.204 2.739-25.857 7.868-7.655 5.124-13.619 12.416-17.142 20.942-3.522 8.529-4.445 17.912-2.649 26.966 1.796 9.050 6.23 17.366 12.738 23.894 6.509 6.524 14.802 10.97 23.831 12.77s18.387 0.879 26.891-2.654c8.505-3.533 15.773-9.515 20.889-17.19 5.112-7.671 7.842-16.695 7.842-25.925-0.014-12.374-4.92-24.239-13.646-32.985-8.726-8.751-20.558-13.671-32.897-13.683zM139.706 653.334c-9.206 0-18.204 2.739-25.857 7.863-7.655 5.129-13.619 12.42-17.142 20.945-3.522 8.529-4.445 17.912-2.649 26.966 1.796 9.050 6.228 17.366 12.738 23.894 6.509 6.524 14.802 10.97 23.831 12.77s18.387 0.875 26.891-2.654c8.505-3.533 15.773-9.515 20.889-17.19 5.112-7.676 7.842-16.695 7.842-25.925-0.014-12.374-4.92-24.239-13.646-32.985-8.726-8.751-20.558-13.671-32.897-13.683zM456.192 370.145c-16.274-14.669-26.126-35.183-27.417-57.089l-224.014-64.794c-2.799 3.537-5.876 6.843-9.203 9.887v379.696c3.329 3.042 6.408 6.35 9.207 9.887l224.009-64.79c1.289-21.909 11.141-42.423 27.417-57.096v-155.699zM512.039 261.333c-9.203 0-18.201 2.739-25.856 7.863-7.655 5.129-13.619 12.42-17.144 20.945-3.521 8.529-4.442 17.912-2.646 26.966 1.797 9.050 6.23 17.366 12.737 23.894 6.512 6.524 14.801 10.97 23.829 12.77s18.39 0.875 26.894-2.654c8.504-3.533 15.774-9.515 20.886-17.19 5.115-7.671 7.847-16.695 7.847-25.925-0.014-12.374-4.92-24.239-13.646-32.985-8.726-8.751-20.558-13.671-32.901-13.683zM512.039 541.333c-9.203 0-18.201 2.739-25.856 7.863-7.655 5.129-13.619 12.416-17.144 20.945-3.521 8.529-4.442 17.912-2.646 26.961 1.797 9.054 6.23 17.37 12.737 23.898 6.512 6.524 14.801 10.97 23.829 12.77s18.39 0.875 26.894-2.654c8.504-3.533 15.774-9.515 20.886-17.19 5.115-7.676 7.847-16.695 7.847-25.925-0.014-12.374-4.92-24.239-13.646-32.985-8.726-8.751-20.558-13.671-32.901-13.683zM828.523 370.142c-10.296-9.311-18.125-21.044-22.772-34.142h-215.087c-4.647 13.098-12.476 24.833-22.776 34.142v155.712c16.278 14.673 26.126 35.187 27.417 57.093l224.014 64.79c2.799-3.533 5.88-6.84 9.207-9.882l-0.005-267.713zM884.375 261.333c-9.203 0-18.201 2.739-25.856 7.863-7.655 5.129-13.619 12.42-17.144 20.945-3.521 8.529-4.442 17.912-2.646 26.966 1.793 9.050 6.225 17.366 12.737 23.894 6.507 6.524 14.801 10.97 23.829 12.77s18.386 0.875 26.894-2.654c8.504-3.533 15.77-9.515 20.886-17.19 5.115-7.671 7.842-16.695 7.842-25.925-0.009-12.374-4.916-24.239-13.641-32.985-8.726-8.751-20.561-13.671-32.901-13.683zM884.375 653.334c-9.203 0-18.201 2.739-25.856 7.863-7.655 5.129-13.619 12.42-17.144 20.945-3.521 8.529-4.442 17.912-2.646 26.966 1.793 9.050 6.225 17.366 12.737 23.894 6.507 6.524 14.801 10.97 23.829 12.77s18.386 0.875 26.894-2.654c8.504-3.533 15.77-9.515 20.886-17.19s7.842-16.695 7.842-25.925c-0.009-12.374-4.916-24.239-13.641-32.985-8.73-8.751-20.561-13.671-32.901-13.683z" />
<glyph unicode="&#xe941;" glyph-name="copy" d="M918.074 765.793v-706.217c0-68.255-55.332-123.588-123.588-123.588v0h-564.973c-68.255 0-123.588 55.332-123.588 123.588v0 706.217c0 68.255 55.332 123.588 123.588 123.588v0-105.933c-9.751 0-17.656-7.905-17.656-17.656v0-706.217c0-9.751 7.905-17.656 17.656-17.656v0h564.973c0.002 0 0.003 0 0.005 0 9.749 0 17.651 7.902 17.651 17.651 0 0.002 0 0.003 0 0.005v0 706.217c0 9.751-7.905 17.656-17.656 17.656v0 105.933c68.255 0 123.588-55.332 123.588-123.588v0zM776.831 695.155v141.243c-0.086 68.221-55.366 123.502-123.58 123.588h-282.496c-68.221-0.086-123.502-55.366-123.588-123.58v-141.251c0.086-68.221 55.366-123.502 123.58-123.588h282.496c68.221 0.086 123.502 55.366 123.588 123.58v0.008zM653.243 854.054c9.742-0.020 17.636-7.912 17.656-17.654v-141.244c-0.020-9.742-7.912-17.636-17.654-17.656h-282.489c-9.742 0.020-17.636 7.912-17.656 17.654v141.244c0.020 9.742 7.912 17.636 17.654 17.656h0.002z" />
<glyph unicode="&#xe942;" glyph-name="menu" d="M0.091 758.798c0 50.485 40.926 91.412 91.412 91.412v0h841.103c50.485 0 91.412-40.926 91.412-91.412s-40.926-91.412-91.412-91.412h-841.103c-50.485 0-91.412 40.926-91.412 91.412v0zM0.158 447.995c0 50.485 40.926 91.412 91.412 91.412v0h841.11c50.485 0 91.412-40.926 91.412-91.412s-40.926-91.412-91.412-91.412v0h-841.11c-50.485 0-91.412 40.926-91.412 91.412v0zM91.569 228.679c-50.485 0-91.412-40.926-91.412-91.412s40.926-91.412 91.412-91.412h841.11c50.485 0 91.412 40.926 91.412 91.412s-40.926 91.412-91.412 91.412v0z" />
<glyph unicode="&#xe943;" glyph-name="download" d="M-0.001 68.125c0-27.365 22.184-49.548 49.548-49.548v0h924.903c27.365 0 49.548 22.184 49.548 49.548v0 132.129c0 27.365-22.184 49.548-49.548 49.548s-49.548-22.184-49.548-49.548v0-82.58h-825.806v82.58c0 27.365-22.184 49.548-49.548 49.548s-49.548-22.184-49.548-49.548v0zM314.955 522.477c-8.846 8.337-20.799 13.459-33.95 13.459-27.365 0-49.548-22.184-49.548-49.548 0-13.991 5.799-26.626 15.123-35.636l0.014-0.014 231.179-220.292c8.874-8.465 20.92-13.675 34.182-13.675s25.307 5.209 34.201 13.694l-0.020-0.019 231.179 220.292c9.267 9.013 15.018 21.602 15.018 35.534 0 27.365-22.184 49.548-49.548 49.548-13.090 0-24.996-5.077-33.854-13.369l0.028 0.026-147.456-140.505v445.895c0 27.365-22.184 49.548-49.548 49.548s-49.548-22.184-49.548-49.548v0-445.895z" />
<glyph unicode="&#xe944;" glyph-name="upload" d="M-0.001 68.125c0-27.365 22.184-49.548 49.548-49.548v0h924.903c27.365 0 49.548 22.184 49.548 49.548v0 132.129c0 27.365-22.184 49.548-49.548 49.548s-49.548-22.184-49.548-49.548v0-82.58h-825.806v82.58c0 27.365-22.184 49.548-49.548 49.548s-49.548-22.184-49.548-49.548v0zM708.958 571.708c8.835-8.287 20.755-13.378 33.863-13.378 27.365 0 49.548 22.184 49.548 49.548 0 13.949-5.765 26.553-15.043 35.559l-0.012 0.012-231.179 220.289c-8.874 8.468-20.919 13.678-34.182 13.678s-25.308-5.21-34.201-13.697l0.020 0.019-231.179-220.289c-9.375-9.029-15.199-21.69-15.199-35.71 0-27.365 22.184-49.548 49.548-49.548 13.18 0 25.16 5.147 34.035 13.539l-0.023-0.022 147.451 140.504v-445.894c0-27.365 22.184-49.548 49.548-49.548s49.548 22.184 49.548 49.548v0 445.894z" />
<glyph unicode="&#xe945;" glyph-name="edit" d="M292.911 65.251c3.955-3.955 6.4-9.419 6.4-15.455 0-9.673-6.284-17.879-14.993-20.758l-0.154-0.044-241.568-77.925c-2.005-0.669-4.314-1.055-6.711-1.055-12.071 0-21.858 9.787-21.858 21.858 0 2.398 0.386 4.706 1.1 6.865l-0.044-0.154 77.925 241.566c2.924 8.864 11.13 15.151 20.806 15.151 6.035 0 11.497-2.445 15.455-6.398v0zM688.763 809.718c-3.955 3.955-9.419 6.4-15.455 6.4s-11.497-2.445-15.455-6.4l-466.765-466.765c-3.955-3.955-6.4-9.419-6.4-15.455s2.445-11.497 6.4-15.455l185.471-185.471c3.955-3.956 9.421-6.403 15.458-6.403s11.502 2.447 15.458 6.403l466.756 466.761c3.958 3.955 6.407 9.419 6.407 15.456s-2.449 11.501-6.407 15.456v0zM1018.032 783.619c-2.766 6.361-6.586 11.774-11.296 16.262l-0.021 0.019-142.805 142.805c-8.994 9.44-21.663 15.309-35.701 15.309s-26.706-5.871-35.683-15.29l-0.019-0.021-30.444-30.444c-3.955-3.955-6.402-9.419-6.402-15.456s2.447-11.501 6.402-15.456l183.292-183.296c3.956-3.955 9.421-6.4 15.458-6.4s11.501 2.445 15.458 6.4l30.444 30.448c9.44 8.99 15.311 21.656 15.311 35.691 0 7.022-1.469 13.701-4.117 19.746l0.123-0.316z" />
<glyph unicode="&#xe946;" glyph-name="search-info" d="M768.018 521.143v0c0 181.794-147.372 329.166-329.166 329.166v0c-181.794 0-329.166-147.372-329.166-329.166s147.372-329.166 329.166-329.166c181.794 0 329.166 147.372 329.166 329.166zM707.986 174.427c-73.507-57.498-167.263-92.199-269.124-92.199-242.386 0-438.878 196.493-438.878 438.878s196.493 438.878 438.878 438.878c242.386 0 438.878-196.493 438.878-438.878 0-101.846-34.691-195.59-92.902-270.059l0.729 0.967 222.348-222.348c9.928-9.928 16.069-23.643 16.069-38.794 0-30.3-24.562-54.863-54.863-54.863-15.15 0-28.865 6.141-38.794 16.069v0zM438.851 576.005v0c-30.299 0-54.861-24.562-54.861-54.861v-146.296c0-30.299 24.562-54.861 54.861-54.861s54.861 24.562 54.861 54.861v146.296c0 30.299-24.562 54.861-54.861 54.861zM438.851 630.866v0c-30.299 0-54.861 24.562-54.861 54.861v0c0 30.299 24.562 54.861 54.861 54.861s54.861-24.562 54.861-54.861c0-30.299-24.562-54.861-54.861-54.861z" />
<glyph unicode="&#xe947;" glyph-name="search" d="M768.018 521.143v0c0 181.794-147.372 329.166-329.166 329.166v0c-181.794 0-329.166-147.372-329.166-329.166s147.372-329.166 329.166-329.166c181.794 0 329.166 147.372 329.166 329.166zM707.986 174.427c-73.507-57.498-167.263-92.199-269.124-92.199-242.386 0-438.878 196.493-438.878 438.878s196.493 438.878 438.878 438.878c242.386 0 438.878-196.493 438.878-438.878 0-101.846-34.691-195.59-92.902-270.059l0.729 0.967 222.348-222.348c9.928-9.928 16.069-23.643 16.069-38.794 0-30.3-24.562-54.863-54.863-54.863-15.15 0-28.865 6.141-38.794 16.069v0z" />
<glyph unicode="&#xe948;" glyph-name="table-resize-maximize" d="M219.428 886.852v0c-80.791 0-146.285-65.494-146.285-146.285v-73.143h877.715v73.143c0 80.791-65.494 146.285-146.285 146.285h-585.143zM-0.001 667.424v73.143c0 121.186 98.242 219.429 219.429 219.429v0h585.143c121.186 0 219.429-98.242 219.429-219.429v0-585.143c0-0.002 0-0.003 0-0.005 0-121.185-98.239-219.424-219.424-219.424-0.002 0-0.003 0-0.005 0h-585.143c-121.186 0-219.429 98.242-219.429 219.429v0z" />
<glyph unicode="&#xe949;" glyph-name="table-resize-hide" d="M219.428 886.852v0c-80.791 0-146.285-65.494-146.285-146.285v-512.001h877.715v512.001c0 80.791-65.494 146.285-146.285 146.285h-585.143zM-0.001 228.566v512.001c0 121.186 98.242 219.429 219.429 219.429v0h585.143c121.186 0 219.429-98.242 219.429-219.429v0-585.143c0-0.002 0-0.003 0-0.005 0-121.185-98.239-219.424-219.424-219.424-0.002 0-0.003 0-0.005 0h-585.143c-121.186 0-219.429 98.242-219.429 219.429v0z" />
<glyph unicode="&#xe94a;" glyph-name="table-resize-resizable" d="M219.428 886.852v0c-80.791 0-146.285-65.494-146.285-146.285v-292.572h877.715v292.572c0 80.791-65.494 146.285-146.285 146.285h-585.143zM-0.001 447.995v292.572c0 121.186 98.242 219.429 219.429 219.429v0h585.143c121.186 0 219.429-98.242 219.429-219.429v0-585.143c0-0.002 0-0.003 0-0.005 0-121.185-98.239-219.424-219.424-219.424-0.002 0-0.003 0-0.005 0h-585.143c-121.186 0-219.429 98.242-219.429 219.429v0z" />
<glyph unicode="&#xe94b;" glyph-name="plus" d="M568.769 903.216c0 31.373-25.433 56.807-56.807 56.807s-56.807-25.433-56.807-56.807v0-398.385h-398.383c-31.373 0-56.807-25.433-56.807-56.807s25.433-56.807 56.807-56.807v0h398.383v-398.388c0-31.373 25.433-56.807 56.807-56.807s56.807 25.433 56.807 56.807v0 398.388h398.388c31.373 0 56.807 25.433 56.807 56.807s-25.433 56.807-56.807 56.807v0h-398.388z" />
<glyph unicode="&#xe94c;" glyph-name="circle-with-dot" d="M512-64.019c-282.77 0-512 229.23-512 512s229.23 512 512 512c282.77 0 512-229.23 512-512v0c-0.335-282.636-229.365-511.667-511.968-512h-0.032zM512 831.981c-212.078 0-384-171.923-384-384s171.923-384 384-384c212.078 0 384 171.923 384 384v0c-0.239 211.982-172.019 383.76-383.976 384h-0.024zM512 559.996v0c61.856 0 112.001-50.144 112.001-112.001v0 0c0-61.856-50.144-112.001-112.001-112.001v0 0c-61.856 0-112.001 50.144-112.001 112.001v0 0c0 61.856 50.144 112.001 112.001 112.001v0z" />
<glyph unicode="&#xe94d;" glyph-name="check-rectangle" d="M831.999 959.996v0c106.038 0 192-85.962 192-192v-640c0-0.001 0-0.003 0-0.004 0-106.036-85.959-191.995-191.995-191.995-0.001 0-0.003 0-0.004 0h-640c-106.038 0-192 85.962-192 192v640c0 106.038 85.962 192 192 192zM804.717 589.888c7.017 8.292 11.284 19.107 11.284 30.918 0 26.509-21.49 48.001-48.001 48.001-14.698 0-27.853-6.606-36.658-17.011l-0.058-0.070-260.614-309.484-145.984 131.385c-8.5 7.777-19.872 12.544-32.355 12.544-26.509 0-48-21.49-48-48 0-14.257 6.216-27.064 16.087-35.856l0.048-0.042 182.859-164.569c8.467-7.647 19.744-12.325 32.112-12.325 14.697 0 27.85 6.606 36.655 17.010l0.058 0.070z" />
<glyph unicode="&#xe94e;" glyph-name="circle-info" d="M512 960c-281.6 0-512-230.4-512-512s230.4-512 512-512 512 230.4 512 512-230.4 512-512 512zM563.2 224c0-25.601-19.2-51.2-51.2-51.2s-51.2 19.2-51.2 51.2v256.001c0 25.601 19.2 51.2 51.2 51.2s51.2-19.2 51.2-51.2v-256.001zM512 608.001c-38.4 0-64.001 25.601-64.001 64.001s25.601 64.001 64.001 64.001 64.001-25.601 64.001-64.001-25.601-64.001-64.001-64.001z" />
<glyph unicode="&#xe94f;" glyph-name="archive" d="M908.386 827.869v0c9.122 0 16.517-7.395 16.517-16.517v-66.065c0-9.122-7.395-16.517-16.517-16.517h-792.772c-9.122 0-16.517 7.395-16.517 16.517v66.065c0 9.122 7.395 16.517 16.517 16.517zM0.001 745.29v0.002c0-0.008 0-0.015 0-0.025 0-45.849 26.686-85.466 66.065-104.465v-556.156c0-63.851 51.761-115.613 115.613-115.613h660.644c63.851 0 115.613 51.761 115.613 115.613v556.156l0.691 0.3c38.688 18.698 65.374 58.317 65.374 104.166 0 0.006 0 0.014 0 0.020v66.065c0 63.851-51.761 115.613-115.613 115.613h-792.772c-63.851 0-115.613-51.761-115.613-115.613zM165.162 629.676h693.676v-545.031c0-9.122-7.395-16.517-16.517-16.517v0h-660.644c-9.122 0-16.517 7.395-16.517 16.517v0zM344.835 313.87l0.008-0.008c-8.781 8.94-14.197 21.196-14.197 34.718 0 27.365 22.184 49.548 49.548 49.548 13.522 0 25.779-5.416 34.712-14.191l47.546-47.54v144.634c0 27.365 22.184 49.548 49.548 49.548s49.548-22.184 49.548-49.548v-144.634l47.538 47.532c8.936 8.753 21.173 14.149 34.67 14.149 27.365 0 49.548-22.184 49.548-49.548 0-13.497-5.396-25.733-14.141-34.661l-132.128-132.128c-8.965-8.967-21.352-14.513-35.034-14.513s-26.069 5.546-35.034 14.513z" />
<glyph unicode="&#xe950;" glyph-name="images" d="M94.868 922.009c-52.358 0-94.805-42.445-94.806-94.803v0-758.575c0 0 0-0.002 0-0.003 0-52.358 42.445-94.805 94.805-94.805 0.002 0 0.002 0 0.003 0h834.386c52.36 0.002 94.806 42.446 94.806 94.806v0 758.575c-0.005 52.358-42.448 94.801-94.806 94.803v0zM910.295 530.079v-442.491h-796.466v720.648h796.466v-278.157zM485.357 498.869c-10.557 11.491-25.654 18.667-42.428 18.667s-31.87-7.176-42.39-18.625l-0.037-0.042-236.292-257.768c-5.627-6.124-9.077-14.327-9.077-23.337 0-19.075 15.463-34.537 34.537-34.537 10.064 0 19.125 4.306 25.437 11.175l0.023 0.024 227.801 248.513 227.801-248.513c6.335-6.895 15.395-11.201 25.46-11.201 19.075 0 34.537 15.463 34.537 34.537 0 9.009-3.45 17.213-9.1 23.362l0.023-0.024-122.859 134.029 19.671 21.859 190.71-202.879c6.32-6.749 15.284-10.953 25.231-10.953 19.073 0 34.535 15.462 34.535 34.535 0 9.197-3.595 17.555-9.456 23.744l0.015-0.016-199.279 211.996c-10.524 11.177-25.419 18.138-41.94 18.138-16.959 0-32.204-7.333-42.738-19.002l-23.64-26.269zM719.213 540.095c38.147 0 69.071 30.925 69.071 69.071s-30.925 69.071-69.071 69.071c-38.147 0-69.071-30.925-69.071-69.071v0c0-38.147 30.925-69.071 69.071-69.071v0z" />
<glyph unicode="&#xe951;" glyph-name="sort-arrow-up" horiz-adv-x="400" d="M166.086 945.145l-157.573-196.968c-5.307-6.746-8.513-15.365-8.513-24.731 0-6.182 1.396-12.038 3.889-17.269l-0.103 0.242c6.559-13.17 19.93-22.061 35.375-22.061 0.028 0 0.055 0 0.083 0h98.479v-689.384c0-32.634 26.456-59.090 59.090-59.090s59.090 26.456 59.090 59.090v0 689.384h98.483c0.024 0 0.052 0 0.079 0 15.447 0 28.816 8.889 35.271 21.832l0.103 0.229c2.389 4.989 3.785 10.845 3.785 17.025 0 9.366-3.206 17.986-8.577 24.818l0.065-0.087-157.573 196.968c-7.279 9.020-18.335 14.741-30.727 14.741s-23.448-5.721-30.668-14.667l-0.059-0.076z" />
<glyph unicode="&#xe952;" glyph-name="full-docs" d="M204.799 806.4c0 28.276 22.923 51.199 51.199 51.199v0h307.201v-102.4c0-84.831 68.769-153.6 153.6-153.6v0h102.4v-512c0-28.276-22.923-51.199-51.199-51.199v0h-512c-28.276 0-51.199 22.923-51.199 51.199v0zM747.008 704l-81.409 81.409v-30.208c0-28.276 22.923-51.199 51.199-51.199v0zM256 960c-84.831 0-153.6-68.769-153.6-153.6v0-716.801c0-84.831 68.769-153.6 153.6-153.6v0h512c84.831 0 153.6 68.769 153.6 153.6v0 563.201c0 0.088 0 0.193 0 0.295 0 14.065-5.672 26.806-14.852 36.059l-255.996 255.996c-9.25 9.178-21.991 14.848-36.056 14.848-0.104 0-0.209 0-0.311-0.002h0.016zM307.199 537.601c-21.208 0-38.399-17.192-38.399-38.399s17.192-38.399 38.399-38.399v0h307.201c21.208 0 38.399 17.192 38.399 38.399s-17.192 38.399-38.399 38.399v0zM268.8 345.6c0.284 21.092 17.307 38.115 38.372 38.399h409.628c21.208 0 38.399-17.192 38.399-38.399s-17.192-38.399-38.399-38.399v0h-409.601c-21.092 0.284-38.115 17.307-38.399 38.372v0.027zM307.199 230.399c-21.208 0-38.399-17.192-38.399-38.399s17.192-38.399 38.399-38.399v0h409.601c21.208 0 38.399 17.192 38.399 38.399s-17.192 38.399-38.399 38.399v0z" />
<glyph unicode="&#xe953;" glyph-name="live-demo" d="M93.092 215.273h837.817v605.090h-837.817zM0.001 820.364c0 51.413 41.678 93.091 93.091 93.091v0h837.817c51.413 0 93.091-41.678 93.091-93.091v0-605.090c0-51.413-41.678-93.091-93.091-93.091v0h-372.364v-46.545h93.091c25.706 0 46.545-20.839 46.545-46.545s-20.839-46.545-46.545-46.545v0h-279.273c-25.706 0-46.545 20.839-46.545 46.545s20.839 46.545 46.545 46.545v0h93.091v46.545h-372.364c-51.413 0-93.091 41.678-93.091 93.091v0zM608.814 424.728l-0.008-0.008c-6.429-6.622-15.426-10.736-25.383-10.736-7.972 0-15.328 2.638-21.153 7.022l-139.636 99.142-165.178-165.189c-6.033-4.976-13.765-7.964-22.197-7.964-19.28 0-34.908 15.629-34.908 34.908 0 8.314 2.906 15.95 7.707 21.88l186.19 186.19c6.429 6.622 15.426 10.736 25.383 10.736 7.972 0 15.328-2.638 21.153-7.022l139.636-99.142 186.049 186.1c5.493 3.603 12.063 5.699 19.124 5.699 19.28 0 34.908-15.629 34.908-34.908 0-6.346-1.694-12.296-4.562-17.254z" />
<glyph unicode="&#xe954;" glyph-name="co" d="M720.062 606.426c-42.94-0.212-81.684-18.003-109.436-46.54l-0.035-0.036c-28.404-28.726-45.95-68.239-45.95-111.85s17.547-83.124 45.964-111.866l-0.014 0.014c27.949-28.71 66.97-46.52 110.151-46.52s82.202 17.811 110.117 46.487l0.033 0.035c28.292 28.655 45.767 68.049 45.767 111.525 0 86.922-69.85 157.529-156.482 158.75l-0.115 0.001zM303.938 753.974c0.050 0 0.109 0 0.169 0 68.93 0 132.294-23.825 182.309-63.69l-0.592 0.455-72.414-130.889c-27.949 28.71-66.97 46.52-110.151 46.52s-82.202-17.811-110.117-46.487l-0.033-0.035c-28.404-28.726-45.95-68.239-45.95-111.85s17.547-83.124 45.964-111.866l-0.014 0.014c28.006-28.746 67.096-46.577 110.349-46.577 0.17 0 0.338 0 0.508 0.001h-0.026c41.106 0.372 78.378 16.476 106.154 42.573l-0.082-0.076 73.773-127.829c-49.556-38.793-112.775-62.207-181.464-62.207-83.047 0-158.099 34.226-211.822 89.342l-0.061 0.063c-54.653 55.601-88.393 131.911-88.393 216.1 0 0.163 0 0.325 0 0.486v-0.025c-0.005 0.608-0.007 1.327-0.007 2.046 0 167.143 134.92 302.774 301.792 303.926h0.11zM720.062 753.974c168.985 0 305.974-136.989 305.974-305.974s-136.989-305.974-305.974-305.974v0c-83.145 0.524-158.227 34.614-212.457 89.387l-0.024 0.025c-54.339 55.933-87.892 132.313-88.052 216.53v0.031c-0.006 0.712-0.010 1.553-0.010 2.395 0 166.598 134.19 301.854 300.38 303.577l0.164 0.001z" />
<glyph unicode="&#xe955;" glyph-name="scatterplot" d="M1024 30.815c0-31.419-25.471-56.889-56.889-56.889h-872.296c-52.365 0-94.815 42.45-94.815 94.815v0 796.443c0 31.419 25.469 56.889 56.889 56.889s56.889-25.469 56.889-56.889v0-777.481h853.332c31.419 0 56.889-25.469 56.889-56.889v0zM265.478 319.327c-44.137 0-79.918-35.781-79.918-79.918s35.781-79.918 79.918-79.918c44.137 0 79.918 35.781 79.918 79.918v0c-0.047 44.119-35.799 79.871-79.913 79.918h-0.005zM316.051 660.656c0 0 0 0 0 0-44.139 0-79.918-35.781-79.918-79.918s35.781-79.918 79.918-79.918c44.139 0 79.918 35.781 79.918 79.918v0c-0.042 44.122-35.797 79.879-79.915 79.921h-0.005zM463.966 460.907c-0.006 0-0.015 0-0.023 0-44.137 0-79.918-35.781-79.918-79.918s35.781-79.918 79.918-79.918c44.137 0 79.918 35.781 79.918 79.918v0c-0.047 44.111-35.786 79.86-79.891 79.918h-0.005zM710.917 376.222c-44.137 0-79.918-35.781-79.918-79.918s35.781-79.918 79.918-79.918c44.137 0 79.918 35.779 79.918 79.917v0c-0.045 44.121-35.799 79.874-79.913 79.921h-0.005zM738.577 545.346c0 44.137-35.781 79.918-79.918 79.918s-79.918-35.781-79.918-79.918c0-44.137 35.781-79.918 79.918-79.918v0c44.119 0.045 79.873 35.799 79.92 79.913v0.005zM919.056 592.387c-44.127-0.006-79.895-35.779-79.895-79.907 0-44.132 35.776-79.907 79.907-79.907 44.127 0 79.9 35.77 79.907 79.895v0c-0.047 44.118-35.799 79.871-79.912 79.918h-0.005zM530.954 652.519c44.137 0 79.918 35.781 79.918 79.918s-35.781 79.918-79.918 79.918c-44.137 0-79.918-35.781-79.918-79.918v0c0.049-44.118 35.801-79.87 79.915-79.918h0.005zM876.376 808.308c0 44.137-35.781 79.918-79.918 79.918s-79.918-35.781-79.918-79.918c0-44.137 35.781-79.918 79.918-79.918v0c44.121 0.042 79.876 35.797 79.92 79.915v0.005z" />
<glyph unicode="&#xe956;" glyph-name="image-explorer" d="M1023.99 803.168v-641.148c0-25.474-20.651-46.125-46.125-46.125s-46.125 20.651-46.125 46.125v0 641.148c-1.038 14.849-12.827 26.638-27.582 27.673l-0.094 0.005h-714.949c-25.474 0-46.125 20.651-46.125 46.125s20.651 46.125 46.125 46.125v0h714.949c65.745-1.205 118.723-54.184 119.926-119.816l0.002-0.114zM599.635 498.738c0 20.38 16.521 36.901 36.901 36.901s36.901-16.521 36.901-36.901c0-20.38-16.521-36.901-36.901-36.901v0c-19.797 1.386-35.515 17.103-36.893 36.775l-0.006 0.125zM166.053 180.475c-4.32-5.71-6.919-12.931-6.919-20.758s2.599-15.049 6.983-20.846l-0.063 0.088c5.71-4.32 12.929-6.919 20.757-6.919s15.047 2.599 20.844 6.983l-0.088-0.063 147.602 166.053 147.602-166.053c5.312-5.312 12.65-8.598 20.757-8.598 16.213 0 29.356 13.143 29.356 29.356 0 8.106-3.287 15.446-8.599 20.758v0l-32.288 36.896 32.288 32.288 110.702-110.702c5.312-5.312 12.65-8.598 20.757-8.598 16.213 0 29.356 13.143 29.356 29.356 0 8.106-3.287 15.446-8.599 20.758l-119.928 119.923c-8.137 8.533-19.592 13.837-32.288 13.837s-24.151-5.306-32.272-13.819l-0.016-0.018-36.901-36.901-83.026 92.252c-7.973 10.55-20.496 17.298-34.594 17.298s-26.622-6.748-34.516-17.189l-0.079-0.109zM751.849 650.954h-641.148v-562.729h641.148v562.729zM788.75 761.655c0.282 0.003 0.616 0.006 0.95 0.006 40.239 0 72.857-32.619 72.857-72.857 0-0.334-0.002-0.668-0.006-1.001v0.050-641.148c0.003-0.282 0.006-0.616 0.006-0.95 0-40.235-32.617-72.854-72.854-72.854-0.336 0-0.67 0.002-1.005 0.006h-714.899c-0.284-0.003-0.618-0.006-0.954-0.006-40.235 0-72.854 32.617-72.854 72.854 0 0.334 0.002 0.666 0.006 1.001v-0.050 641.148c-0.003 0.282-0.006 0.616-0.006 0.95 0 40.239 32.619 72.857 72.857 72.857 0.334 0 0.668-0.002 1.001-0.006h-0.050z" />
<glyph unicode="&#xe957;" glyph-name="y-axis" d="M740.084 947.366l-134.263-167.829c-4.583-5.689-7.356-13.005-7.356-20.968 0-18.536 15.026-33.563 33.563-33.563 0.001 0 0.003 0 0.004 0h83.912v-738.451c0-0.072 0-0.157 0-0.24 0-27.807 22.542-50.35 50.35-50.35s50.35 22.542 50.35 50.35c0 0.085 0 0.169 0 0.254v-0.014 738.449h83.917c0 0 0.001 0 0.001 0 18.536 0 33.561 15.026 33.561 33.561 0 7.964-2.774 15.28-7.408 21.034l0.050-0.065-134.263 167.831c-6.201 7.709-15.633 12.6-26.207 12.6s-20.006-4.891-26.157-12.535l-0.050-0.065zM422.252 296.478q26.483 93.142 54.938 170.672l0.004 0.022q29.427 78.47 67.674 166.721l0.063 0.149 0.004-0.004c3.665 6.407 6.031 13.991 6.544 22.078l0.008 0.151c-0.843 11.592-7.993 21.333-18.004 25.868l-0.193 0.078-0.151 0.088 0.007 0.007c-9.276 7.108-20.884 11.609-33.513 12.228l-0.141 0.005c-0.019 0-0.041 0-0.062 0-10.842 0-20.79-3.825-28.569-10.199l0.080 0.063c-8.579-7.541-15.569-16.655-20.564-26.922l-0.223-0.507c-7.749-15.711-15.662-35.040-22.354-54.931l-1.025-3.511q-9.779-31.306-25.444-84.147h0.004c-13.459-52.352-27.919-95.898-44.913-138.154l2.641 7.435-2.266-5.193-2.864 4.891c-9.345 15.444-18.902 33.888-27.314 52.952l-1.283 3.26q-11.794 28.509-31.404 82.43l-0.007 0.024c-17.97 54.207-38.765 100.663-63.552 144.565l2.091-4.029c-4.97 8.52-11.228 15.707-18.598 21.554l-0.157 0.12-0.317 0.211 0.018 0.018c-5.253 3.907-11.867 6.255-19.030 6.255-0.912 0-1.814-0.038-2.706-0.112l0.116 0.008c-0.317 0.005-0.693 0.008-1.070 0.008-13.951 0-26.92-4.204-37.71-11.415l0.247 0.155c-9.473-7.092-15.538-18.286-15.538-30.897 0-1.051 0.042-2.093 0.124-3.122l-0.008 0.135c0.409-4.86 1.567-9.346 3.361-13.493l-0.107 0.278c3.568-9.271 6.985-16.758 10.773-24.021l-0.612 1.29c13.44-23.435 27.888-52.437 40.825-82.247l2.333-6.038q22.524-48.964 27.481-60.851v0l22.503-51.852c22.997-49.631 47.422-91.913 75.117-131.753l-1.867 2.837 0.696-1.027-0.261-1.202c-6.546-35.113-16.126-66.211-28.774-95.679l1.113 2.917c-9.373-19.417-21.912-30.049-37.872-30.049-5.817 0.012-11.268 1.575-15.961 4.298l0.154-0.082-0.028-0.063-0.239 0.138-0.058 0.014 0.007 0.014c-5.343 2.368-9.933 5.035-14.191 8.132l0.22-0.153-0.39 0.281 0.024 0.024-0.669 0.531-1.882 1.355q-2.412 1.683-6.802 4.615c-4.752 3.341-10.647 5.354-17.011 5.396h-0.011c-0.377 0.012-0.819 0.019-1.263 0.019-9.526 0-18.332-3.084-25.475-8.307l0.122 0.085c-6.565-5.5-10.71-13.701-10.71-22.87 0-0.465 0.011-0.927 0.031-1.387l-0.003 0.065c0.927-10.624 5.007-20.15 11.286-27.801l-0.070 0.089c9.425-12.238 21.568-21.926 35.558-28.247l0.585-0.236 0.042-0.022c16.745-7.895 36.371-12.504 57.075-12.504 1.532 0 3.057 0.026 4.577 0.076l-0.222-0.005c0.463-0.008 1.009-0.014 1.558-0.014 20.217 0 38.85 6.783 53.746 18.197l-0.212-0.155 0.058 0.049c16.885 12.465 31.242 27.127 42.995 43.762l0.4 0.596c3.125 5.396 6.161 11.757 8.706 18.362l0.322 0.948q5.849 14.371 14.16 37.846l0.022 0.053q17.605 46.937 33.251 98.789z" />
<glyph unicode="&#xe958;" glyph-name="image-group" d="M93.091 340.945v0c-0.002 0-0.002 0-0.004 0-5.14 0-9.305-4.167-9.305-9.305 0-0.002 0-0.002 0-0.004v-302.545c0-0.002 0-0.002 0-0.004 0-5.14 4.167-9.305 9.305-9.305 0.002 0 0.002 0 0.004 0h837.818c0.002 0 0.002 0 0.004 0 5.14 0 9.305 4.167 9.305 9.305 0 0.002 0 0.002 0 0.004v302.545c0 0.002 0 0.002 0 0.004 0 5.14-4.167 9.305-9.305 9.305-0.002 0-0.002 0-0.004 0h-837.818zM0 331.636c0 51.413 41.678 93.091 93.091 93.091v0h837.818c51.413 0 93.091-41.678 93.091-93.091v0-302.545c0-51.413-41.678-93.091-93.091-93.091v0h-837.818c-51.413 0-93.091 41.678-93.091 93.091v0zM930.909 876.218v0c0.002 0 0.002 0 0.004 0 5.14 0 9.305-4.167 9.305-9.305 0-0.002 0-0.002 0-0.004v-302.545c0-0.002 0-0.002 0-0.004 0-5.14-4.167-9.305-9.305-9.305-0.002 0-0.002 0-0.004 0h-837.818c-0.002 0-0.002 0-0.004 0-5.14 0-9.305 4.167-9.305 9.305 0 0.002 0 0.002 0 0.004v302.545c0 0.002 0 0.002 0 0.004 0 5.14 4.167 9.305 9.305 9.305 0.002 0 0.002 0 0.004 0h837.818zM93.091 960c-51.413 0-93.091-41.678-93.091-93.091v0-302.545c0-51.413 41.678-93.091 93.091-93.091v0h837.818c51.413 0 93.091 41.678 93.091 93.091v0 302.545c0 51.413-41.678 93.091-93.091 93.091v0zM162.909 133.818c0-25.705 20.84-46.545 46.545-46.545v0h93.091c25.705 0 46.545 20.84 46.545 46.545v0 93.091c0 25.705-20.84 46.545-46.545 46.545v0h-93.091c-25.705 0-46.545-20.84-46.545-46.545v0zM162.909 669.091c0-25.705 20.84-46.545 46.545-46.545v0h93.091c25.705 0 46.545 20.84 46.545 46.545v0 93.091c0 25.705-20.84 46.545-46.545 46.545v0h-93.091c-25.705 0-46.545-20.84-46.545-46.545v0zM465.455 622.545c-25.705 0-46.545 20.84-46.545 46.545v0 93.091c0 25.705 20.84 46.545 46.545 46.545v0h93.091c25.705 0 46.545-20.84 46.545-46.545v0-93.091c0-25.705-20.84-46.545-46.545-46.545v0zM418.909 133.818c0-25.705 20.84-46.545 46.545-46.545v0h93.091c25.705 0 46.545 20.84 46.545 46.545v0 93.091c0 25.705-20.84 46.545-46.545 46.545v0h-93.091c-25.705 0-46.545-20.84-46.545-46.545v0zM721.454 622.545c-25.705 0-46.545 20.84-46.545 46.545v0 93.091c0 25.705 20.84 46.545 46.545 46.545v0h93.091c25.705 0 46.545-20.84 46.545-46.545v0-93.091c0-25.705-20.84-46.545-46.545-46.545v0zM674.909 133.818c0-25.705 20.84-46.545 46.545-46.545v0h93.091c25.705 0 46.545 20.84 46.545 46.545v0 93.091c0 25.705-20.84 46.545-46.545 46.545v0h-93.091c-25.705 0-46.545-20.84-46.545-46.545v0z" />
</font>
</defs>
</svg>
