<svg width="312" height="286" viewBox="0 0 312 286" fill="none" xmlns="http://www.w3.org/2000/svg">
<ellipse cx="157.088" cy="145.715" rx="100.473" ry="99.8077" fill="#F8FAFD"/>
<rect x="100.531" y="48.5691" width="11.9769" height="11.9769" rx="5.98846" fill="#E5EBF6"/>
<rect x="192.354" y="19" width="23.9538" height="23.9538" rx="11.9769" fill="#E5EBF6"/>
<rect x="88.5538" y="228.223" width="9.31538" height="9.31538" rx="4.65769" fill="#E5EBF6"/>
<rect x="30" y="93.8153" width="5.32308" height="5.32308" rx="2.66154" fill="#E5EBF6"/>
<rect x="276.192" y="116.438" width="6.65385" height="6.65385" rx="3.32692" fill="#E5EBF6"/>
<rect x="216.308" y="40.5845" width="5.32308" height="5.32308" rx="2.66154" fill="#E5EBF6"/>
<g filter="url(#filter0_d_4868_78299)">
<rect x="108.081" y="77.0258" width="161.919" height="104.021" rx="10" fill="white"/>
</g>
<g opacity="0.5">
<path d="M117.894 107.287C117.756 107.287 117.644 107.399 117.644 107.537C117.644 107.675 117.756 107.787 117.894 107.787V107.287ZM260.156 107.787C260.294 107.787 260.406 107.675 260.406 107.537C260.406 107.399 260.294 107.287 260.156 107.287V107.787ZM117.894 107.787H260.156V107.287H117.894V107.787Z" fill="#F2F5FA"/>
<path d="M117.894 124.11C117.756 124.11 117.644 124.222 117.644 124.36C117.644 124.498 117.756 124.61 117.894 124.61V124.11ZM260.156 124.61C260.294 124.61 260.406 124.498 260.406 124.36C260.406 124.222 260.294 124.11 260.156 124.11V124.61ZM117.894 124.61H260.156V124.11H117.894V124.61Z" fill="#F2F5FA"/>
<path d="M117.894 140.933C117.756 140.933 117.644 141.044 117.644 141.183C117.644 141.321 117.756 141.433 117.894 141.433V140.933ZM260.156 141.433C260.294 141.433 260.406 141.321 260.406 141.183C260.406 141.044 260.294 140.933 260.156 140.933V141.433ZM117.894 141.433H260.156V140.933H117.894V141.433Z" fill="#F2F5FA"/>
<path d="M117.894 157.755C117.756 157.755 117.644 157.867 117.644 158.005C117.644 158.143 117.756 158.255 117.894 158.255V157.755ZM260.156 158.255C260.294 158.255 260.406 158.143 260.406 158.005C260.406 157.867 260.294 157.755 260.156 157.755V158.255ZM117.894 158.255H260.156V157.755H117.894V158.255Z" fill="#F2F5FA"/>
</g>
<rect x="115.932" y="80.4603" width="2.94398" height="2.94398" rx="1.47199" fill="#F7A0A0"/>
<path d="M120.336 151.442C119.703 151.977 119.623 152.923 120.158 153.556C120.692 154.189 121.638 154.269 122.271 153.734L120.336 151.442ZM171.164 114.996L172.537 114.392C172.29 113.83 171.724 113.475 171.11 113.497C170.495 113.519 169.957 113.914 169.751 114.493L171.164 114.996ZM179.126 133.113L177.752 133.716C177.995 134.269 178.545 134.622 179.149 134.613C179.752 134.603 180.291 134.233 180.517 133.674L179.126 133.113ZM256.681 127.257C257.449 127.567 258.323 127.196 258.634 126.428C258.944 125.66 258.573 124.786 257.805 124.475L256.681 127.257ZM233.703 119.133L232.406 118.38L233.703 119.133ZM192.235 100.615L193.626 101.176L192.235 100.615ZM193.622 100.101L194.31 98.7684L193.622 100.101ZM219.576 140.177L218.157 140.665L219.576 140.177ZM221.386 140.354L222.683 141.107L221.386 140.354ZM159.651 144.425L159.173 145.847L159.651 144.425ZM160.911 143.812L159.498 143.309L160.911 143.812ZM208.811 108.886L210.229 108.398L208.811 108.886ZM137.845 138.622L138.813 139.768L138.813 139.768L137.845 138.622ZM140.736 138.071L141.214 136.649L140.736 138.071ZM122.271 153.734L138.813 139.768L136.878 137.476L120.336 151.442L122.271 153.734ZM140.258 139.492L159.173 145.847L160.129 143.003L141.214 136.649L140.258 139.492ZM162.325 144.315L172.577 115.499L169.751 114.493L159.498 143.309L162.325 144.315ZM169.791 115.599L177.752 133.716L180.499 132.509L172.537 114.392L169.791 115.599ZM180.517 133.674L193.626 101.176L190.844 100.054L177.735 132.552L180.517 133.674ZM192.933 101.433L206.663 108.53L208.04 105.865L194.31 98.7684L192.933 101.433ZM207.392 109.374L218.157 140.665L220.994 139.689L210.229 108.398L207.392 109.374ZM222.683 141.107L235.001 119.886L232.406 118.38L220.089 139.601L222.683 141.107ZM236.86 119.249L256.681 127.257L257.805 124.475L237.984 116.467L236.86 119.249ZM235.001 119.886C235.375 119.241 236.168 118.969 236.86 119.249L237.984 116.467C235.907 115.628 233.53 116.444 232.406 118.38L235.001 119.886ZM193.626 101.176C193.516 101.45 193.195 101.569 192.933 101.433L194.31 98.7684C193.002 98.0921 191.395 98.688 190.844 100.054L193.626 101.176ZM218.157 140.665C218.854 142.69 221.608 142.959 222.683 141.107L220.089 139.601C220.304 139.231 220.855 139.284 220.994 139.689L218.157 140.665ZM159.173 145.847C160.466 146.281 161.868 145.599 162.325 144.315L159.498 143.309C159.59 143.052 159.87 142.916 160.129 143.003L159.173 145.847ZM206.663 108.53C207.006 108.707 207.267 109.009 207.392 109.374L210.229 108.398C209.853 107.304 209.069 106.396 208.04 105.865L206.663 108.53ZM138.813 139.768C139.213 139.43 139.761 139.326 140.258 139.492L141.214 136.649C139.723 136.148 138.079 136.462 136.878 137.476L138.813 139.768Z" fill="#CAD8EC"/>
<g filter="url(#filter1_d_4868_78299)">
<path d="M240.409 195.953C240.409 219.456 221.356 238.509 197.852 238.509C174.349 238.509 155.296 219.456 155.296 195.953C155.296 172.449 174.349 153.396 197.852 153.396C221.356 153.396 240.409 172.449 240.409 195.953Z" fill="white" stroke="#CAD8EC" stroke-width="5"/>
<path d="M248.932 253.749C250.787 255.604 253.794 255.604 255.649 253.749C257.504 251.894 257.504 248.887 255.649 247.032L248.932 253.749ZM232.689 224.071C230.834 222.216 227.826 222.216 225.971 224.071C224.116 225.926 224.116 228.933 225.971 230.788L232.689 224.071ZM255.649 247.032L232.689 224.071L225.971 230.788L248.932 253.749L255.649 247.032Z" fill="#CAD8EC"/>
<path fill-rule="evenodd" clip-rule="evenodd" d="M197.003 207.599C195.378 207.599 194.062 206.282 194.062 204.658C194.107 196.133 196.609 194.272 200.84 191.653C203.546 189.953 205.662 187.54 205.662 184.116C205.662 180.049 202.523 177.453 198.656 177.453C195.873 177.453 193.118 178.82 191.987 181.86C191.467 183.259 190.301 184.461 188.808 184.461C186.483 184.461 184.545 182.488 185.283 180.284C187.159 174.678 192.4 171.663 198.656 171.663C207.004 171.663 212.599 176.718 212.599 184.185C212.599 189.355 210.097 192.848 206.026 195.329C202.159 197.742 200.658 199.373 200.567 204.658C200.567 206.282 199.25 207.599 197.626 207.599H197.003ZM197.53 219.841C200.04 219.841 202.135 217.787 202.135 215.225C202.135 212.709 200.04 210.632 197.53 210.632C194.998 210.632 192.926 212.709 192.926 215.225C192.926 217.787 194.998 219.841 197.53 219.841Z" fill="#C4D3EA"/>
</g>
<g filter="url(#filter2_d_4868_78299)">
<rect x="27.6689" y="96.6237" width="61.2441" height="58.7943" rx="5" fill="white"/>
</g>
<path d="M70.7575 106.875L46.9318 114.023C46.4935 114.154 46.1937 114.557 46.1937 115.015V136.467C45.1109 136.007 43.7686 135.863 42.309 136.141C38.7333 136.823 35.8347 139.746 35.8347 142.671C35.8347 145.595 38.7333 147.414 42.309 146.732C45.8847 146.051 48.7834 143.128 48.7834 140.203C48.7834 140.182 48.7798 140.162 48.7794 140.142H48.7834V118.647L69.5014 112.432V129.734C68.4186 129.274 67.0764 129.13 65.6168 129.408C62.0411 130.089 59.1424 133.012 59.1424 135.937C59.1424 138.862 62.0411 140.68 65.6168 139.999C69.1925 139.317 72.0911 136.394 72.0911 133.469V107.868C72.0911 107.174 71.4224 106.676 70.7576 106.875L70.7575 106.875Z" fill="#CAD8EC"/>
<g filter="url(#filter3_d_4868_78299)">
<rect x="77.4176" y="31.7991" width="64.1963" height="61.6285" rx="5" fill="white"/>
</g>
<path d="M119.039 54.9098C119.039 53.5583 120.082 52.7474 121.126 52.7474C122.43 52.7474 123.213 53.8286 123.213 54.9098C123.213 56.2613 122.169 57.0722 121.126 57.0722C120.082 57.0722 119.039 55.991 119.039 54.9098ZM94.5135 73.5605C93.9917 74.3714 93.9917 75.1823 94.5135 75.9932C95.2962 76.5338 96.0789 76.5338 96.8616 75.9932L105.211 66.2624L113.56 75.9932C114.081 76.8041 115.125 76.8041 115.908 75.9932C116.69 75.4526 116.69 74.3714 115.908 73.5605L114.081 71.3981L115.908 69.506L122.169 75.9932C122.691 76.5338 123.735 76.5338 124.518 75.9932C125.039 75.4526 125.039 74.3714 124.518 73.5605L117.734 66.5327C116.69 65.4515 115.125 65.4515 114.081 66.5327L111.994 68.6951L107.298 63.2891C106.254 61.9376 104.428 61.9376 103.384 63.2891L94.5135 73.5605ZM130.216 43.422H88.8148V81.5343H130.216V43.422ZM129.736 39.5026C132.084 39.5026 133.91 41.3947 133.91 43.8274V81.3992C133.91 83.8319 132.084 85.724 129.736 85.724H89.2954C86.9472 85.724 85.1209 83.8319 85.1209 81.3992V43.8274C85.1209 41.3947 86.9472 39.5026 89.2954 39.5026H129.736Z" fill="#CAD8EC"/>
<g filter="url(#filter4_d_4868_78299)">
<rect x="48.7747" y="165.971" width="81.4075" height="36.1811" rx="4" fill="white"/>
</g>
<path d="M62.2615 179.016H66.9373V191.626H70.129V179.016H74.8048V176.353H62.2615V179.016ZM76.8705 191.626H87.1915V188.964H80.0996V185.317H86.6322V182.655H80.0996V179.016H87.1617V176.353H76.8705V191.626ZM92.7566 176.353H89.095L93.7857 183.99L89.0055 191.626H92.7044L95.8365 186.413H95.9558L99.0879 191.626H102.802L98.0364 183.99L102.697 176.353H99.0506L95.9558 181.559H95.8365L92.7566 176.353ZM104.159 179.016H108.835V191.626H112.026V179.016H116.702V176.353H104.159V179.016Z" fill="#CAD8EC"/>
<defs>
<filter id="filter0_d_4868_78299" x="100.081" y="72.0258" width="177.919" height="120.021" filterUnits="userSpaceOnUse" color-interpolation-filters="sRGB">
<feFlood flood-opacity="0" result="BackgroundImageFix"/>
<feColorMatrix in="SourceAlpha" type="matrix" values="0 0 0 0 0 0 0 0 0 0 0 0 0 0 0 0 0 0 127 0" result="hardAlpha"/>
<feOffset dy="3"/>
<feGaussianBlur stdDeviation="4"/>
<feComposite in2="hardAlpha" operator="out"/>
<feColorMatrix type="matrix" values="0 0 0 0 0 0 0 0 0 0.18125 0 0 0 0 0.3125 0 0 0 0.09 0"/>
<feBlend mode="normal" in2="BackgroundImageFix" result="effect1_dropShadow_4868_78299"/>
<feBlend mode="normal" in="SourceGraphic" in2="effect1_dropShadow_4868_78299" result="shape"/>
</filter>
<filter id="filter1_d_4868_78299" x="128.796" y="132.896" width="152.245" height="152.245" filterUnits="userSpaceOnUse" color-interpolation-filters="sRGB">
<feFlood flood-opacity="0" result="BackgroundImageFix"/>
<feColorMatrix in="SourceAlpha" type="matrix" values="0 0 0 0 0 0 0 0 0 0 0 0 0 0 0 0 0 0 127 0" result="hardAlpha"/>
<feOffset dy="6"/>
<feGaussianBlur stdDeviation="12"/>
<feComposite in2="hardAlpha" operator="out"/>
<feColorMatrix type="matrix" values="0 0 0 0 0 0 0 0 0 0.18125 0 0 0 0 0.3125 0 0 0 0.15 0"/>
<feBlend mode="normal" in2="BackgroundImageFix" result="effect1_dropShadow_4868_78299"/>
<feBlend mode="normal" in="SourceGraphic" in2="effect1_dropShadow_4868_78299" result="shape"/>
</filter>
<filter id="filter2_d_4868_78299" x="19.6689" y="90.6237" width="77.244" height="74.7943" filterUnits="userSpaceOnUse" color-interpolation-filters="sRGB">
<feFlood flood-opacity="0" result="BackgroundImageFix"/>
<feColorMatrix in="SourceAlpha" type="matrix" values="0 0 0 0 0 0 0 0 0 0 0 0 0 0 0 0 0 0 127 0" result="hardAlpha"/>
<feOffset dy="2"/>
<feGaussianBlur stdDeviation="4"/>
<feComposite in2="hardAlpha" operator="out"/>
<feColorMatrix type="matrix" values="0 0 0 0 0 0 0 0 0 0.18125 0 0 0 0 0.3125 0 0 0 0.06 0"/>
<feBlend mode="normal" in2="BackgroundImageFix" result="effect1_dropShadow_4868_78299"/>
<feBlend mode="normal" in="SourceGraphic" in2="effect1_dropShadow_4868_78299" result="shape"/>
</filter>
<filter id="filter3_d_4868_78299" x="69.4176" y="25.7991" width="80.1963" height="77.6285" filterUnits="userSpaceOnUse" color-interpolation-filters="sRGB">
<feFlood flood-opacity="0" result="BackgroundImageFix"/>
<feColorMatrix in="SourceAlpha" type="matrix" values="0 0 0 0 0 0 0 0 0 0 0 0 0 0 0 0 0 0 127 0" result="hardAlpha"/>
<feOffset dy="2"/>
<feGaussianBlur stdDeviation="4"/>
<feComposite in2="hardAlpha" operator="out"/>
<feColorMatrix type="matrix" values="0 0 0 0 0 0 0 0 0 0.18125 0 0 0 0 0.3125 0 0 0 0.09 0"/>
<feBlend mode="normal" in2="BackgroundImageFix" result="effect1_dropShadow_4868_78299"/>
<feBlend mode="normal" in="SourceGraphic" in2="effect1_dropShadow_4868_78299" result="shape"/>
</filter>
<filter id="filter4_d_4868_78299" x="42.7747" y="162.971" width="93.4075" height="48.1811" filterUnits="userSpaceOnUse" color-interpolation-filters="sRGB">
<feFlood flood-opacity="0" result="BackgroundImageFix"/>
<feColorMatrix in="SourceAlpha" type="matrix" values="0 0 0 0 0 0 0 0 0 0 0 0 0 0 0 0 0 0 127 0" result="hardAlpha"/>
<feOffset dy="3"/>
<feGaussianBlur stdDeviation="3"/>
<feComposite in2="hardAlpha" operator="out"/>
<feColorMatrix type="matrix" values="0 0 0 0 0 0 0 0 0 0.18125 0 0 0 0 0.3125 0 0 0 0.08 0"/>
<feBlend mode="normal" in2="BackgroundImageFix" result="effect1_dropShadow_4868_78299"/>
<feBlend mode="normal" in="SourceGraphic" in2="effect1_dropShadow_4868_78299" result="shape"/>
</filter>
</defs>
</svg>
