<svg width="312" height="264" viewBox="0 0 312 264" fill="none" xmlns="http://www.w3.org/2000/svg">
<ellipse cx="154.862" cy="145.715" rx="100.473" ry="99.8077" fill="#F8FAFD"/>
<rect x="100" y="48" width="12" height="12" rx="6" fill="#E5EBF6"/>
<rect x="192" y="19" width="24" height="24" rx="12" fill="#E5EBF6"/>
<rect x="88" y="228" width="9" height="9" rx="4.5" fill="#E5EBF6"/>
<rect x="30" y="93" width="5" height="5" rx="2.5" fill="#E5EBF6"/>
<rect x="276" y="116" width="6" height="6" rx="3" fill="#E5EBF6"/>
<rect x="216" y="40" width="5" height="5" rx="2.5" fill="#E5EBF6"/>
<g filter="url(#filter0_d_4868_78210)">
<rect x="45.073" y="68.5306" width="219.577" height="141.062" rx="10" fill="white"/>
<rect x="45.573" y="69.0306" width="218.577" height="140.062" rx="9.5" stroke="#E5EBF6"/>
</g>
<rect x="146.212" y="160.354" width="17.3" height="3.99231" rx="1.99615" fill="#CAD8EC"/>
<rect width="18.6308" height="2.66154" rx="1.33077" transform="matrix(-0.707107 -0.707107 -0.707107 0.707107 189.214 144.251)" fill="#CAD8EC"/>
<rect width="18.6308" height="2.66154" rx="1.33077" transform="matrix(-0.707107 -0.707107 -0.707107 0.707107 189.214 144.251)" fill="#CAD8EC"/>
<rect width="18.6308" height="2.66154" rx="1.33077" transform="matrix(0.707107 -0.707107 -0.707107 -0.707107 176.04 146.133)" fill="#CAD8EC"/>
<rect width="18.6308" height="2.66154" rx="1.33077" transform="matrix(0.707107 -0.707107 -0.707107 -0.707107 176.04 146.133)" fill="#CAD8EC"/>
<rect x="119.744" y="144.524" width="18.6308" height="2.66154" rx="1.33077" transform="rotate(-45 119.744 144.524)" fill="#CAD8EC"/>
<rect x="119.744" y="144.524" width="18.6308" height="2.66154" rx="1.33077" transform="rotate(-45 119.744 144.524)" fill="#CAD8EC"/>
<rect x="132.917" y="146.406" width="18.6308" height="2.66154" rx="1.33077" transform="rotate(-135 132.917 146.406)" fill="#CAD8EC"/>
<rect x="132.917" y="146.406" width="18.6308" height="2.66154" rx="1.33077" transform="rotate(-135 132.917 146.406)" fill="#CAD8EC"/>
<path d="M45.073 78.5306C45.073 73.0078 49.5502 68.5306 55.073 68.5306H254.65C260.173 68.5306 264.65 73.0078 264.65 78.5306V81.8383H45.073V78.5306Z" fill="#CAD8EC"/>
<rect x="55.7192" y="73.1883" width="3.99231" height="3.99231" rx="1.99615" fill="#F7A0A0"/>
<rect x="62.373" y="73.1883" width="3.99231" height="3.99231" rx="1.99615" fill="#EFE7A3"/>
<rect x="69.0269" y="73.1883" width="3.99231" height="3.99231" rx="1.99615" fill="#B7E9B9"/>
<defs>
<filter id="filter0_d_4868_78210" x="9.073" y="38.5306" width="291.577" height="213.062" filterUnits="userSpaceOnUse" color-interpolation-filters="sRGB">
<feFlood flood-opacity="0" result="BackgroundImageFix"/>
<feColorMatrix in="SourceAlpha" type="matrix" values="0 0 0 0 0 0 0 0 0 0 0 0 0 0 0 0 0 0 127 0" result="hardAlpha"/>
<feOffset dy="6"/>
<feGaussianBlur stdDeviation="18"/>
<feComposite in2="hardAlpha" operator="out"/>
<feColorMatrix type="matrix" values="0 0 0 0 0 0 0 0 0 0.18125 0 0 0 0 0.3125 0 0 0 0.15 0"/>
<feBlend mode="normal" in2="BackgroundImageFix" result="effect1_dropShadow_4868_78210"/>
<feBlend mode="normal" in="SourceGraphic" in2="effect1_dropShadow_4868_78210" result="shape"/>
</filter>
</defs>
</svg>
