<svg width="31" height="10" viewBox="0 0 31 10" fill="none" xmlns="http://www.w3.org/2000/svg">
<path d="M1 4.5C0.723858 4.5 0.5 4.72386 0.5 5C0.5 5.27614 0.723858 5.5 1 5.5V4.5ZM30 5L30.3536 5.35355C30.5488 5.15829 30.5488 4.84171 30.3536 4.64645L30 5ZM26.3536 0.646447C26.1583 0.451184 25.8417 0.451184 25.6464 0.646447C25.4512 0.841709 25.4512 1.15829 25.6464 1.35355L26.3536 0.646447ZM25.6464 8.64645C25.4512 8.84171 25.4512 9.15829 25.6464 9.35355C25.8417 9.54882 26.1583 9.54882 26.3536 9.35355L25.6464 8.64645ZM1 5.5H30V4.5H1V5.5ZM30.3536 4.64645L26.3536 0.646447L25.6464 1.35355L29.6464 5.35355L30.3536 4.64645ZM29.6464 4.64645L25.6464 8.64645L26.3536 9.35355L30.3536 5.35355L29.6464 4.64645Z" fill="white"/>
</svg>
