<svg width="14" height="18" viewBox="0 0 14 18" fill="none" xmlns="http://www.w3.org/2000/svg">
<path d="M13.1174 15.1874C12.729 15.1874 12.4142 15.5021 12.4142 15.8905C12.4142 16.0865 12.3478 16.2515 12.2168 16.3808C12.0794 16.5165 11.8799 16.5952 11.6848 16.5936C11.4924 16.5912 11.3361 16.5256 11.2072 16.3931L7.50413 12.5876C7.37177 12.4516 7.19001 12.3749 7.00024 12.3749C6.81046 12.3749 6.6287 12.4516 6.49634 12.5876L2.79326 16.3931C2.66526 16.5246 2.50786 16.5902 2.31211 16.5937C2.11489 16.5977 1.91636 16.5191 1.77985 16.385C1.65135 16.2587 1.58621 16.0965 1.58621 15.9027V2.81246C1.58621 2.03706 2.21705 1.40621 2.99246 1.40621H11.008C11.7834 1.40621 12.4142 2.03706 12.4142 2.81246V12.41C12.4142 12.7984 12.729 13.1131 13.1174 13.1131C13.5057 13.1131 13.8205 12.7984 13.8205 12.41V2.81246C13.8204 1.26169 12.5588 0 11.008 0H2.99246C1.44165 0 0.179993 1.26169 0.179993 2.81246V15.9027C0.179993 16.4713 0.398172 16.9989 0.794313 17.3881C1.19137 17.7782 1.73805 18 2.29942 18C2.3119 18 2.32442 17.9999 2.3369 17.9997C2.90611 17.9897 3.4124 17.7732 3.80109 17.3738L7.00024 14.0862L10.1994 17.3738C10.5909 17.7761 11.0984 17.9925 11.6671 17.9998C12.2378 18.0056 12.7996 17.7816 13.2049 17.3814C13.6018 16.9895 13.8204 16.4599 13.8204 15.8905C13.8205 15.5021 13.5057 15.1874 13.1174 15.1874Z" fill="#374A61"/>
</svg>
