<?xml version="1.0" encoding="utf-8"?>
<!-- Generator: Adobe Illustrator 25.4.0, SVG Export Plug-In . SVG Version: 6.00 Build 0)  -->
<svg version="1.1" id="Layer_1" xmlns="http://www.w3.org/2000/svg" xmlns:xlink="http://www.w3.org/1999/xlink" x="0px" y="0px"
	 viewBox="0 0 24 24" style="enable-background:new 0 0 24 24;" xml:space="preserve">

<path d="M21.5,11.2h-1c0,0,0,0,0,0c-0.4-4.1-3.6-7.4-7.7-7.7c0,0,0,0,0,0v-1c0-0.4-0.3-0.8-0.8-0.8s-0.8,0.3-0.8,0.8v1
	c0,0,0,0,0,0c-4.1,0.4-7.4,3.6-7.7,7.7c0,0,0,0,0,0h-1c-0.4,0-0.8,0.3-0.8,0.8s0.3,0.8,0.8,0.8h1c0,0,0,0,0,0
	c0.4,4.1,3.6,7.4,7.7,7.7c0,0,0,0,0,0v1c0,0.4,0.3,0.8,0.8,0.8s0.8-0.3,0.8-0.8v-1c0,0,0,0,0,0c4.1-0.4,7.4-3.6,7.7-7.7c0,0,0,0,0,0
	h1c0.4,0,0.8-0.3,0.8-0.8S21.9,11.2,21.5,11.2z M12,19c-3.9,0-7-3.1-7-7c0-3.9,3.1-7,7-7c3.9,0,7,3.1,7,7C19,15.9,15.9,19,12,19z
	 M17,11.6h-1.3c0-0.2-0.1-0.5-0.2-0.7c0,0,0,0,0,0l1-1c0.3-0.3,0.3-0.8,0-1.1s-0.8-0.3-1.1,0l-0.7,0.7c-0.1-1.5-1.3-2.6-2.7-2.6
	S9.3,8.1,9.3,9.5L8.5,8.8c-0.3-0.3-0.8-0.3-1.1,0s-0.3,0.8,0,1.1l1,1c0,0,0,0,0,0c-0.1,0.2-0.1,0.5-0.2,0.7H7
	c-0.4,0-0.8,0.3-0.8,0.8s0.3,0.8,0.8,0.8h1.2v0.5c0,0.1,0,0.3,0,0.4l-0.8,0.8c-0.3,0.3-0.3,0.8,0,1.1C7.6,16,7.8,16.1,8,16.1
	s0.4-0.1,0.5-0.2l0.3-0.3c0.1,0.2,0.3,0.4,0.5,0.6c0.7,0.6,1.6,1,2.6,1s1.9-0.4,2.6-1c0.2-0.2,0.4-0.4,0.5-0.6l0.3,0.3
	c0.1,0.1,0.3,0.2,0.5,0.2s0.4-0.1,0.5-0.2c0.3-0.3,0.3-0.8,0-1.1L15.7,14c0-0.1,0-0.2,0-0.4l0-0.5H17c0.4,0,0.8-0.3,0.8-0.8
	S17.4,11.6,17,11.6z M12,8.4c0.7,0,1.2,0.5,1.2,1.2h-2.5C10.8,8.9,11.3,8.4,12,8.4z M9.8,13.6l0-1.3c0,0,0,0,0,0s0,0,0,0l0-0.3
	c0-0.2,0.1-0.4,0.1-0.6c0.4,0.4,0.8,0.7,1.4,0.9c0,0,0,0,0,0.1v3.1c-0.3-0.1-0.6-0.2-0.9-0.5C10,14.6,9.8,14.1,9.8,13.6z M12.8,15.5
	v-3.1c0,0,0,0,0-0.1c0.5-0.2,1-0.5,1.4-0.9c0.1,0.2,0.1,0.4,0.1,0.6v1.6c0,0.5-0.2,1-0.6,1.4C13.4,15.2,13.1,15.4,12.8,15.5z"/>
</svg>
