<svg width="24" height="24" viewBox="0 0 24 24" fill="none" xmlns="http://www.w3.org/2000/svg" fill="#D2D4DC">
<path d="M20.3303 4.22781C18.7767 3.50093 17.1156 2.97267 15.3789 2.67188C15.1656 3.05749 14.9164 3.57614 14.7446 3.98873C12.8985 3.71109 11.0693 3.71109 9.25716 3.98873C9.08539 3.57614 8.83055 3.05749 8.61536 2.67188C6.87681 2.97267 5.21376 3.50287 3.66019 4.23166C0.526643 8.96686 -0.322811 13.5845 0.101917 18.1365C2.18025 19.6885 4.19441 20.6313 6.17457 21.2483C6.66349 20.5754 7.09953 19.8601 7.47518 19.1063C6.75975 18.8344 6.07453 18.499 5.42707 18.1095C5.59884 17.9822 5.76686 17.8492 5.92918 17.7123C9.87819 19.5594 14.1689 19.5594 18.0707 17.7123C18.235 17.8492 18.403 17.9822 18.5728 18.1095C17.9235 18.5009 17.2364 18.8363 16.521 19.1082C16.8966 19.8601 17.3308 20.5774 17.8216 21.2502C19.8036 20.6333 21.8197 19.6905 23.898 18.1365C24.3964 12.8595 23.0467 8.28434 20.3303 4.22781ZM8.01318 15.337C6.82772 15.337 5.85555 14.2303 5.85555 12.8826C5.85555 11.535 6.80696 10.4264 8.01318 10.4264C9.21942 10.4264 10.1916 11.533 10.1708 12.8826C10.1727 14.2303 9.21942 15.337 8.01318 15.337ZM15.9867 15.337C14.8013 15.337 13.8291 14.2303 13.8291 12.8826C13.8291 11.535 14.7805 10.4264 15.9867 10.4264C17.193 10.4264 18.1651 11.533 18.1444 12.8826C18.1444 14.2303 17.193 15.337 15.9867 15.337Z"/>
</svg>
