<svg width="25" height="24" viewBox="0 0 25 24" fill="none" xmlns="http://www.w3.org/2000/svg">
<path d="M6.89999 14.66L5.5 18.9999L9.83996 17.6L6.89999 14.66Z" fill="#1473E6"/>
<path d="M14.714 6.82331L7.88342 13.6539L10.8532 16.6237L17.6838 9.79313L14.714 6.82331Z" fill="#1473E6"/>
<path d="M19.2899 7.17011L17.33 5.21013C17.2668 5.14373 17.1908 5.09087 17.1065 5.05475C17.0223 5.01863 16.9316 5 16.84 5C16.7483 5 16.6576 5.01863 16.5734 5.05475C16.4892 5.09087 16.4131 5.14373 16.35 5.21013L15.72 5.84012L18.6599 8.7801L19.2899 8.1501C19.3563 8.08693 19.4092 8.01092 19.4453 7.92668C19.4814 7.84245 19.5001 7.75176 19.5001 7.66011C19.5001 7.56846 19.4814 7.47776 19.4453 7.39353C19.4092 7.3093 19.3563 7.23329 19.2899 7.17011Z" fill="#1473E6"/>
</svg>
