<svg width="44" height="44" viewBox="0 0 44 44" fill="none" xmlns="http://www.w3.org/2000/svg">
<rect x="3" y="3" width="38" height="38" rx="19" fill="#E64E48"/>
<path d="M13.5566 30.4346L13.698 30.2932C13.5307 30.126 13.4002 29.9257 13.3148 29.7052C13.2293 29.4847 13.1909 29.2488 13.2018 29.0127C13.2128 28.7765 13.2729 28.5452 13.3784 28.3335C13.4839 28.1219 13.6324 27.9345 13.8144 27.7835L13.8215 27.7776L13.8281 27.7711L19.4639 22.1369L19.6054 21.9955L19.4639 21.8541L13.8281 16.22L13.8215 16.2134L13.8144 16.2075C13.6324 16.0565 13.4839 15.8691 13.3784 15.6575C13.2729 15.4458 13.2128 15.2145 13.2018 14.9783C13.1909 14.7421 13.2293 14.5063 13.3148 14.2858C13.4002 14.0653 13.5307 13.865 13.698 13.6978C13.8652 13.5306 14.0655 13.4001 14.2861 13.3147C14.5067 13.2293 14.7427 13.1909 14.979 13.2018C15.2153 13.2128 15.4467 13.2729 15.6584 13.3783C15.8701 13.4838 16.0575 13.6323 16.2085 13.8142L16.2145 13.8214L16.221 13.8279L21.8586 19.462L22 19.6033L22.1414 19.462L27.779 13.8279L27.7856 13.8214L27.7915 13.8142C27.9426 13.6323 28.1299 13.4838 28.3416 13.3783C28.5534 13.2729 28.7848 13.2128 29.0211 13.2018C29.2574 13.1909 29.4933 13.2293 29.7139 13.3147C29.9345 13.4001 30.1348 13.5306 30.3021 13.6978C30.4693 13.865 30.5998 14.0653 30.6852 14.2858C30.7707 14.5063 30.8091 14.7421 30.7982 14.9783C30.7872 15.2145 30.7271 15.4459 30.6216 15.6575C30.5161 15.8691 30.3677 16.0565 30.1856 16.2075L30.1785 16.2134L30.1719 16.22L24.5362 21.8541L24.3946 21.9955L24.5362 22.137L30.1133 27.7107V27.7326L30.1856 27.7925C30.3677 27.9435 30.5161 28.1309 30.6216 28.3425C30.7271 28.5541 30.7872 28.7855 30.7982 29.0217C30.8091 29.2579 30.7707 29.4937 30.6852 29.7142C30.5998 29.9347 30.4693 30.135 30.3021 30.3022C30.1348 30.4694 29.9345 30.5999 29.7139 30.6853C29.4933 30.7707 29.2574 30.8091 29.0211 30.7982C28.7848 30.7872 28.5534 30.7271 28.3416 30.6217C28.1299 30.5162 27.9425 30.3678 27.7915 30.1858L27.7856 30.1787L27.779 30.1721L22.1414 24.538L22.0001 24.3968L21.8587 24.5379L16.2212 30.163L16.2145 30.1696L16.2085 30.1768C16.0575 30.3588 15.8701 30.5072 15.6584 30.6127C15.4467 30.7181 15.2152 30.7782 14.979 30.7892C14.7427 30.8002 14.5067 30.7617 14.2861 30.6763C14.0655 30.5909 13.8652 30.4604 13.698 30.2932L13.5566 30.4346Z" fill="white" stroke="#E64E48" stroke-width="0.4"/>
</svg>
