<svg width="22" height="22" viewBox="0 0 22 22" fill="none" xmlns="http://www.w3.org/2000/svg">
<path d="M11 0.9375C5.19875 0.9375 0.5 5.5575 0.5 11.2555C0.5 15.8151 3.50825 19.6818 7.67937 21.045C8.20437 21.1421 8.39687 20.8228 8.39687 20.5489C8.39687 20.3039 8.38812 19.6546 8.38375 18.7945C5.463 19.4166 4.847 17.4103 4.847 17.4103C4.36925 16.2194 3.67887 15.9009 3.67887 15.9009C2.72775 15.2613 3.75237 15.2744 3.75237 15.2744C4.80675 15.3461 5.36062 16.3375 5.36062 16.3375C6.29687 17.9151 7.8185 17.4593 8.41875 17.1959C8.51325 16.5283 8.78362 16.0741 9.08375 15.816C6.75187 15.5579 4.301 14.6706 4.301 10.7174C4.301 9.59125 4.70787 8.67075 5.38162 7.94887C5.2635 7.68813 4.90912 6.639 5.4735 5.218C5.4735 5.218 6.35287 4.9415 8.361 6.27588C9.201 6.04663 10.0935 5.93288 10.986 5.92763C11.8785 5.93288 12.771 6.04663 13.611 6.27588C15.606 4.9415 16.4854 5.218 16.4854 5.218C17.0497 6.639 16.6954 7.68813 16.5904 7.94887C17.2597 8.67075 17.6666 9.59125 17.6666 10.7174C17.6666 14.6811 15.2122 15.5535 12.876 15.8073C13.2435 16.117 13.5847 16.7496 13.5847 17.7165C13.5847 19.0973 13.5716 20.2068 13.5716 20.5419C13.5716 20.8123 13.7554 21.1351 14.2935 21.0319C18.4944 19.6774 21.5 15.8081 21.5 11.2555C21.5 5.5575 16.7986 0.9375 11 0.9375Z" fill="black"/>
</svg>
