<svg width="16" height="12" viewBox="0 0 16 12" fill="none" xmlns="http://www.w3.org/2000/svg">
<path d="M1.2 0.199951C0.53726 0.199951 0 0.737191 0 1.39995C0 2.06267 0.53726 2.59995 1.2 2.59995H14.8C15.4627 2.59995 16 2.06267 16 1.39995C16 0.737191 15.4627 0.199951 14.8 0.199951H1.2ZM1.2 4.79995C0.53726 4.79995 0 5.33719 0 5.99995C0 6.66267 0.53726 7.19995 1.2 7.19995H14.8C15.4627 7.19995 16 6.66267 16 5.99995C16 5.33719 15.4627 4.79995 14.8 4.79995H1.2ZM1.2 9.39995C0.53726 9.39995 0 9.93719 0 10.6C0 11.2627 0.53726 11.8 1.2 11.8H14.8C15.4627 11.8 16 11.2627 16 10.6C16 9.93719 15.4627 9.39995 14.8 9.39995H1.2Z" fill="#374A61"/>
</svg>
