<svg width="24" height="24" viewBox="0 0 24 24" fill="none" xmlns="http://www.w3.org/2000/svg">
<path d="M22.9369 6.16903C21.8922 4.38365 20.3792 2.88496 18.5612 1.83503C16.6883 0.753391 14.5405 0.181641 12.3502 0.181641C9.09983 0.181641 6.04406 1.41096 3.74568 3.64312C1.4474 5.87528 0.181641 8.84308 0.181641 11.9998C0.181641 15.1566 1.4474 18.1244 3.74568 20.3565C6.04406 22.5887 9.09983 23.818 12.3502 23.818C12.7649 23.818 13.1835 23.7975 13.5944 23.7569C14.6099 23.6566 15.4435 23.1248 15.9418 22.2596C16.44 21.3944 16.47 20.4261 16.0263 19.5332C15.385 18.2428 15.3305 17.1182 15.8768 16.4477C16.3077 15.9189 17.0265 15.7745 17.5535 15.7465C19.889 15.6223 21.8712 14.4075 22.9917 12.4137C24.1123 10.4199 24.0923 8.14386 22.9369 6.16903ZM21.7401 11.7502C20.8484 13.3366 19.334 14.2648 17.4756 14.3636C16.3001 14.4261 15.3605 14.8496 14.7587 15.5882C13.8601 16.6909 13.854 18.3483 14.742 20.1352C14.9812 20.6165 14.9657 21.1173 14.6972 21.5836C14.4286 22.05 13.9974 22.325 13.4502 22.379C13.087 22.4149 12.717 22.4331 12.3502 22.4331C6.4267 22.4331 1.60764 17.7527 1.60764 11.9998C1.60764 6.24691 6.4267 1.56658 12.3502 1.56658C16.2076 1.56658 19.7891 3.59229 21.6971 6.85328C22.6164 8.42464 22.6317 10.1637 21.7401 11.7502Z" fill="#1473E6"/>
</svg>
