<svg width="14" height="14" viewBox="0 0 14 14" fill="none" xmlns="http://www.w3.org/2000/svg">
<path d="M6.00676 1.26236e-05C5.06221 -0.00105087 4.13076 0.220743 3.28819 0.647346C2.44562 1.07395 1.71574 1.69331 1.15795 2.45502C0.600153 3.21674 0.230204 4.09929 0.0782015 5.03087C-0.0738007 5.96244 -0.00356114 6.91672 0.283205 7.81604C0.569971 8.71537 1.06516 9.53433 1.72848 10.2063C2.3918 10.8783 3.20451 11.3842 4.10047 11.6831C4.99644 11.9819 5.95034 12.0651 6.88457 11.9259C7.8188 11.7868 8.70695 11.4292 9.47676 10.8823L12.3068 13.7102C12.4916 13.8949 12.7419 13.9991 13.0033 14C13.2646 14.0009 13.5157 13.8986 13.7018 13.7152C13.8879 13.5319 13.9939 13.2824 13.9967 13.0213C13.9995 12.7602 13.8989 12.5085 13.7168 12.3212L10.9068 9.47326C11.5463 8.57563 11.926 7.51923 12.004 6.42009C12.0821 5.32094 11.8555 4.22156 11.3492 3.24268C10.8428 2.2638 10.0764 1.44328 9.1339 0.87124C8.19144 0.299196 7.10945 -0.00224815 6.00676 1.26236e-05ZM6.00676 1.99859C6.79789 1.99859 7.57124 2.23302 8.22904 2.67223C8.88684 3.11144 9.39953 3.73571 9.70228 4.4661C10.005 5.19648 10.0842 6.00017 9.9299 6.77555C9.77556 7.55092 9.3946 8.26314 8.83519 8.82215C8.27578 9.38116 7.56305 9.76186 6.78712 9.91609C6.0112 10.0703 5.20693 9.99116 4.47603 9.68863C3.74512 9.38609 3.12041 8.87377 2.68088 8.21644C2.24136 7.55911 2.00676 6.7863 2.00676 5.99574C2.00676 4.93563 2.42819 3.91894 3.17833 3.16933C3.92848 2.41972 4.94589 1.99859 6.00676 1.99859Z" fill="#1C2852"/>
</svg>
