<svg width="24" height="24" viewBox="0 0 24 24" fill="none" xmlns="http://www.w3.org/2000/svg">
<path d="M9.23566 12.5706C8.01766 12.5706 7.02979 13.5584 7.02979 14.7764V20.2942C7.02979 21.5122 8.01766 22.5 9.23566 22.5C10.4537 22.5 11.4415 21.5122 11.4415 20.2942V14.7764C11.4407 13.5584 10.4528 12.5706 9.23566 12.5706Z" fill="#E91E63"/>
<path d="M1.51465 14.7763C1.51465 15.9952 2.5034 16.984 3.72227 16.984C4.94115 16.984 5.9299 15.9952 5.9299 14.7763V12.5687H3.72402C3.72315 12.5687 3.72315 12.5687 3.72227 12.5687C2.5034 12.5687 1.51465 13.5575 1.51465 14.7763Z" fill="#E91E63"/>
<path d="M9.23857 1.5C9.23769 1.5 9.23682 1.5 9.23594 1.5C8.01707 1.5 7.02832 2.48875 7.02832 3.70763C7.02832 4.9265 8.01707 5.91525 9.23594 5.91525H11.4418V3.70763C11.4418 3.70675 11.4418 3.705 11.4418 3.70325C11.4409 2.48612 10.4548 1.5 9.23857 1.5Z" fill="#00BCD4"/>
<path d="M3.70762 11.4497H9.23588C10.4548 11.4497 11.4435 10.4609 11.4435 9.24205C11.4435 8.02317 10.4548 7.03442 9.23588 7.03442H3.70762C2.48875 7.03442 1.5 8.02317 1.5 9.24205C1.5 10.4609 2.48875 11.4497 3.70762 11.4497Z" fill="#00BCD4"/>
<path d="M20.2731 7.03345C19.056 7.03345 18.0698 8.01957 18.0698 9.2367V9.24107V11.4487H20.2757C21.4946 11.4487 22.4833 10.4599 22.4833 9.24107C22.4833 8.0222 21.4946 7.03345 20.2757 7.03345C20.2748 7.03345 20.274 7.03345 20.2731 7.03345Z" fill="#4CAF50"/>
<path d="M12.5591 3.70758V9.24196C12.5591 10.46 13.547 11.4478 14.765 11.4478C15.983 11.4478 16.9708 10.46 16.9708 9.24196V3.70758C16.9708 2.48958 15.983 1.50171 14.765 1.50171C13.547 1.50171 12.5591 2.48958 12.5591 3.70758Z" fill="#4CAF50"/>
<path d="M16.9698 20.2923C16.9698 19.0743 15.982 18.0864 14.764 18.0864H12.5581V20.2941C12.559 21.5112 13.546 22.4982 14.764 22.4982C15.982 22.4982 16.9698 21.5103 16.9698 20.2923Z" fill="#FF9800"/>
<path d="M20.2925 12.5687H14.7643C13.5454 12.5687 12.5566 13.5575 12.5566 14.7763C12.5566 15.9952 13.5454 16.984 14.7643 16.984H20.2925C21.5114 16.984 22.5002 15.9952 22.5002 14.7763C22.5002 13.5575 21.5114 12.5687 20.2925 12.5687Z" fill="#FF9800"/>
</svg>
