<svg width="18" height="12" viewBox="0 0 18 12" fill="none" xmlns="http://www.w3.org/2000/svg">
<path fill-rule="evenodd" clip-rule="evenodd" d="M9 0.399994C14.444 0.399994 18 5.99999 18 5.99999C18 5.99999 14.444 11.6 9 11.6C3.556 11.6 0 5.99999 0 5.99999C0 5.99999 3.556 0.399994 9 0.399994ZM9 1.99999C9.79113 1.99999 10.5645 2.23459 11.2223 2.67412C11.8801 3.11364 12.3928 3.73835 12.6955 4.46926C12.9983 5.20016 13.0775 6.00443 12.9231 6.78036C12.7688 7.55628 12.3878 8.26901 11.8284 8.82842C11.269 9.38783 10.5563 9.7688 9.78036 9.92314C9.00444 10.0775 8.20017 9.99826 7.46927 9.69551C6.73836 9.39276 6.11365 8.88007 5.67412 8.22227C5.2346 7.56448 5 6.79112 5 5.99999C5 4.93913 5.42143 3.92171 6.17157 3.17157C6.92172 2.42142 7.93913 1.99999 9 1.99999ZM9 3.79999C9.43512 3.79999 9.86047 3.92902 10.2223 4.17076C10.584 4.4125 10.866 4.75609 11.0325 5.15809C11.199 5.56009 11.2426 6.00244 11.1577 6.42919C11.0728 6.85595 10.8633 7.24795 10.5556 7.55563C10.248 7.86331 9.85596 8.07283 9.4292 8.15772C9.00244 8.24261 8.56009 8.19904 8.1581 8.03253C7.7561 7.86601 7.41251 7.58404 7.17077 7.22225C6.92903 6.86046 6.8 6.43511 6.8 5.99999C6.8 5.41652 7.03179 4.85694 7.44437 4.44436C7.85695 4.03178 8.41652 3.79999 9 3.79999Z" fill="#1473E6"/>
</svg>
