<svg width="36" height="36" viewBox="0 0 36 36" fill="none" xmlns="http://www.w3.org/2000/svg">
<path d="M12.8692 11.0842L15.7102 14.1948C15.7358 14.237 15.7494 14.2854 15.7494 14.3348C15.7494 14.3841 15.7358 14.4325 15.7102 14.4747C15.694 14.5239 15.6615 14.566 15.6182 14.5943C15.5749 14.6225 15.5232 14.6352 15.4717 14.6303H13.6469V21.7395C13.6471 21.8048 13.6226 21.8678 13.5784 21.9158C13.5342 21.9639 13.4735 21.9935 13.4084 21.9987H11.8324C11.7997 22.0001 11.7671 21.995 11.7364 21.9838C11.7056 21.9725 11.6774 21.9554 11.6533 21.9332C11.6293 21.9111 11.6098 21.8844 11.596 21.8547C11.5823 21.825 11.5745 21.7929 11.5732 21.7602V14.6303H9.75871C9.70815 14.6305 9.65863 14.6159 9.61635 14.5882C9.57407 14.5605 9.54089 14.5209 9.52097 14.4744C9.50106 14.4279 9.49528 14.3766 9.50437 14.3269C9.51346 14.2772 9.53701 14.2312 9.57208 14.1948L12.4441 11.0842C12.4675 11.0578 12.4962 11.0366 12.5284 11.022C12.5606 11.0075 12.5955 11 12.6308 11C12.6661 11 12.701 11.0075 12.7332 11.022C12.7653 11.0366 12.794 11.0578 12.8174 11.0842H12.8692Z" fill="#09003F"/>
<path d="M12.3801 24.9147L9.53919 21.8041C9.51356 21.7619 9.5 21.7135 9.5 21.6641C9.5 21.6148 9.51356 21.5664 9.53919 21.5242C9.55541 21.475 9.58785 21.4329 9.63119 21.4046C9.67452 21.3764 9.72617 21.3637 9.77767 21.3686L11.6025 21.3686L11.6025 13.2594C11.6023 13.1941 11.6267 13.1311 11.671 13.0831C11.7152 13.035 11.7759 13.0054 11.841 13.0002L13.417 13.0002C13.4497 12.9988 13.4823 13.0039 13.513 13.0151C13.5438 13.0264 13.572 13.0435 13.596 13.0657C13.6201 13.0878 13.6396 13.1145 13.6533 13.1442C13.6671 13.1739 13.6749 13.206 13.6762 13.2387L13.6762 21.3686L15.4907 21.3686C15.5412 21.3684 15.5908 21.383 15.633 21.4107C15.6753 21.4384 15.7085 21.478 15.7284 21.5245C15.7483 21.571 15.7541 21.6223 15.745 21.672C15.7359 21.7217 15.7124 21.7677 15.6773 21.8041L12.8053 24.9147C12.7819 24.9411 12.7532 24.9623 12.721 24.9769C12.6888 24.9914 12.6539 24.9989 12.6186 24.9989C12.5833 24.9989 12.5484 24.9914 12.5162 24.9769C12.4841 24.9623 12.4553 24.9411 12.432 24.9147L12.3801 24.9147Z" fill="#09003F"/>
<rect x="17.5002" y="12" width="9" height="1.33333" rx="0.666667" fill="#09003F"/>
<rect x="17.5002" y="14.6667" width="9" height="1.33333" rx="0.666667" fill="#09003F"/>
<rect x="17.5002" y="17.3333" width="9" height="1.33333" rx="0.666667" fill="#09003F"/>
<rect x="17.5002" y="20" width="9" height="1.33333" rx="0.666667" fill="#09003F"/>
<rect x="17.5002" y="22.6667" width="9" height="1.33333" rx="0.666667" fill="#09003F"/>
</svg>
