<svg width="36" height="36" viewBox="0 0 36 36" fill="none" xmlns="http://www.w3.org/2000/svg">
<path d="M21.6328 24.9158L24.4738 21.8052C24.4994 21.7631 24.513 21.7146 24.513 21.6653C24.513 21.6159 24.4994 21.5675 24.4738 21.5253C24.4576 21.4762 24.4251 21.434 24.3818 21.4058C24.3385 21.3775 24.2868 21.3648 24.2353 21.3698H22.4623V11.2605C22.4623 11.1918 22.435 11.1259 22.3864 11.0772C22.3378 11.0286 22.2718 11.0013 22.2031 11.0013H20.6478C20.6151 10.9999 20.5825 11.005 20.5518 11.0162C20.5211 11.0275 20.4929 11.0447 20.4688 11.0668C20.4447 11.089 20.4252 11.1156 20.4115 11.1453C20.3977 11.175 20.39 11.2071 20.3886 11.2398V21.3698H18.5741C18.5236 21.3695 18.4741 21.3841 18.4318 21.4118C18.3895 21.4396 18.3563 21.4791 18.3364 21.5256C18.3165 21.5721 18.3107 21.6234 18.3198 21.6731C18.3289 21.7229 18.3524 21.7688 18.3875 21.8052L21.2596 24.9158C21.2829 24.9423 21.3116 24.9635 21.3438 24.978C21.376 24.9925 21.4109 25 21.4462 25C21.4815 25 21.5164 24.9925 21.5486 24.978C21.5808 24.9635 21.6095 24.9423 21.6328 24.9158Z" fill="#09003F"/>
<path d="M14.945 11.0842L17.7859 14.1948C17.8116 14.237 17.8251 14.2854 17.8251 14.3348C17.8251 14.3841 17.8116 14.4325 17.7859 14.4747C17.7697 14.5239 17.7373 14.566 17.6939 14.5943C17.6506 14.6225 17.599 14.6352 17.5475 14.6303H15.7226V24.7395C15.7228 24.8048 15.6984 24.8678 15.6542 24.9158C15.61 24.9639 15.5492 24.9935 15.4841 24.9987H13.9081C13.8755 25.0001 13.8428 24.995 13.8121 24.9838C13.7814 24.9725 13.7532 24.9554 13.7291 24.9332C13.705 24.9111 13.6855 24.8844 13.6718 24.8547C13.658 24.825 13.6503 24.7929 13.6489 24.7602V14.6303H11.8345C11.7839 14.6305 11.7344 14.6159 11.6921 14.5882C11.6498 14.5605 11.6166 14.5209 11.5967 14.4744C11.5768 14.4279 11.571 14.3766 11.5801 14.3269C11.5892 14.2772 11.6128 14.2312 11.6478 14.1948L14.5199 11.0842C14.5432 11.0578 14.572 11.0366 14.6041 11.022C14.6363 11.0075 14.6712 11 14.7065 11C14.7418 11 14.7767 11.0075 14.8089 11.022C14.8411 11.0366 14.8698 11.0578 14.8931 11.0842H14.945Z" fill="#09003F"/>
</svg>
