<svg id="869a981d-5394-490d-9104-6940aaebaf2b" data-name="Layer 1" xmlns="http://www.w3.org/2000/svg" xmlns:xlink="http://www.w3.org/1999/xlink" width="1003.92" height="836.78" viewBox="0 0 1003.92 836.78"><defs><linearGradient id="aaa84376-7da2-49a5-964f-b58018dda0eb" x1="795.24" y1="863.66" x2="795.24" y2="394.91" gradientUnits="userSpaceOnUse"><stop offset="0" stop-color="gray" stop-opacity="0.25"/><stop offset="0.54" stop-color="gray" stop-opacity="0.12"/><stop offset="1" stop-color="gray" stop-opacity="0.1"/></linearGradient></defs><title>questions</title><ellipse cx="713.5" cy="826.66" rx="102.56" ry="10.11" fill="#4263ac" opacity="0.1"/><path d="M537.57,43.85c45.17-16.79,100.16-2.35,147.12,18.71C832.18,128.72,939.63,254.31,1025,382.26c30.91,46.33,60.27,94.7,71.89,146.42,23.66,105.27-38.05,214.25-143,252.44-35.69,13-74.9,18.33-114.17,21.3-69.83,5.29-142.13,3.19-211.4-16.4-49.4-14-96.13-36.52-140.95-61.4C362.2,655.1,247.89,564.82,165.58,454.54c-36.1-48.37-66.64-102.9-67.52-158.71s35.49-111.89,95.33-121.38c24.74-3.92,50.91.16,76.44,4.36,37.59,6.19,75.69,12.7,112.85,10C421.07,186,471,171,478,134.35,485.41,95,492.46,60.62,537.57,43.85Z" transform="translate(-98.04 -31.61)" fill="#4263ac" opacity="0.1"/><path d="M342.06,800.42s48.26-2.91,42.57,30.91c0,0,1.13,6-4.29,8.69,0,0-.08-2.51-4.95-1.66a21.8,21.8,0,0,1-5.24.26,10.93,10.93,0,0,1-6.41-2.65h0s-13.57-5.6-18.84-27.78c0,0-3.91-4.83-3.75-6.08l8.14,3.48s-2.78,5.88-.59,10.76c0,0,.26-10.54,1.83-10.3.31.05,4.23,2,4.23,2s-4.79,10.23-1.18,17.67c0,0-1.37-12.61,2.67-16.93l5.74,3.35s-5.6,10.57-1.8,19.19c0,0-1-13.23,3-18.38l5.2,4s-5.26,10.42-2.05,17.58c0,0,.41-15.41,3.17-16.57,0,0,4.55,4,5.24,5.66,0,0-3.6,7.56-1.37,11.55,0,0,1.37-10.26,2.5-10.31,0,0,4.52,6.8,5,11.46,0,0-.2-6.93-3.91-12.11,0,0,4.38.75,6.94,3.59,0,0-.71-4.81-8.05-5.23,0,0-3.74-5.15-4.75-5.47,0,0,7.31-.61,11.74,1.36,0,0-3.9-4.54-13.08-2.48l-5.13-4.18s9.63-1.32,13.7.14c0,0-4.69-4-15.08-1.09l-5.58-3.34s8.2-1.77,13.09-1.13c0,0-5.16-2.78-14.73.23l-4-1.79s6-1.18,7.77-1.37,1.85-.67,1.85-.67a20.82,20.82,0,0,0-11.29,1.25S341.91,801,342.06,800.42Z" transform="translate(-98.04 -31.61)" fill="#4263ac"/><ellipse cx="277.26" cy="811.36" rx="34.16" ry="5.77" fill="#4263ac" opacity="0.1"/><path d="M277.41,777.67s27.21-1.64,24,17.43A4.63,4.63,0,0,1,299,800s-.05-1.41-2.79-.93a12.13,12.13,0,0,1-2.95.14,6.06,6.06,0,0,1-3.62-1.49h0S282,794.55,279,782.05c0,0-2.2-2.73-2.12-3.43l4.6,2s-1.57,3.32-.34,6.07c0,0,.15-5.95,1-5.81.18,0,2.39,1.15,2.39,1.15s-2.7,5.77-.66,10c0,0-.78-7.11,1.5-9.55l3.23,1.89s-3.15,6-1,10.82c0,0-.55-7.46,1.69-10.36l2.93,2.28s-3,5.87-1.15,9.91c0,0,.23-8.69,1.79-9.34,0,0,2.56,2.26,2.95,3.19,0,0-2,4.26-.77,6.51,0,0,.77-5.78,1.41-5.81,0,0,2.55,3.83,2.81,6.46a14,14,0,0,0-2.2-6.83,7.63,7.63,0,0,1,3.91,2s-.39-2.71-4.54-2.95c0,0-2.11-2.91-2.67-3.08,0,0,4.12-.35,6.62.76,0,0-2.2-2.56-7.38-1.4l-2.89-2.36s5.43-.74,7.73.08c0,0-2.65-2.26-8.51-.61l-3.14-1.89a28.57,28.57,0,0,1,7.37-.63s-2.9-1.57-8.3.13l-2.25-1s3.39-.67,4.38-.77,1.05-.38,1.05-.38a11.79,11.79,0,0,0-6.37.71S277.33,778,277.41,777.67Z" transform="translate(-98.04 -31.61)" fill="#4263ac"/><ellipse cx="198.11" cy="770.04" rx="19.26" ry="3.26" fill="#4263ac" opacity="0.1"/><path d="M946.82,796s32.85-2,29,21a5.64,5.64,0,0,1-2.92,5.92s-.06-1.71-3.37-1.13a14.81,14.81,0,0,1-3.57.17,7.35,7.35,0,0,1-4.36-1.8h0s-9.24-3.81-12.83-18.91c0,0-2.66-3.29-2.55-4.13l5.54,2.36s-1.89,4-.4,7.33c0,0,.18-7.18,1.24-7,.22,0,2.88,1.38,2.88,1.38s-3.26,7-.8,12c0,0-.93-8.58,1.82-11.52l3.9,2.27s-3.81,7.2-1.22,13.07c0,0-.67-9,2-12.51l3.54,2.76s-3.58,7.09-1.4,12c0,0,.29-10.48,2.17-11.28,0,0,3.09,2.73,3.56,3.85,0,0-2.45,5.15-.93,7.87,0,0,.93-7,1.7-7,0,0,3.08,4.63,3.4,7.8a16.81,16.81,0,0,0-2.65-8.24,9.29,9.29,0,0,1,4.72,2.44s-.48-3.27-5.49-3.56c0,0-2.54-3.51-3.22-3.72,0,0,5-.42,8,.92,0,0-2.66-3.08-8.91-1.68l-3.49-2.85s6.55-.9,9.33.09c0,0-3.2-2.73-10.27-.74l-3.8-2.27s5.58-1.2,8.91-.77c0,0-3.51-1.89-10,.16l-2.72-1.22s4.09-.81,5.29-.93,1.26-.46,1.26-.46a14.2,14.2,0,0,0-7.68.85S946.72,796.38,946.82,796Z" transform="translate(-98.04 -31.61)" fill="#4263ac"/><ellipse cx="871.4" cy="793.36" rx="23.25" ry="3.93" fill="#4263ac" opacity="0.1"/><path d="M914.09,553.23A71.34,71.34,0,0,1,913,542.57c0-4.29-5.83-8.09-5.83-8.09s-3.6-8.33-6-9.56-9.81-12.13-9.81-12.13a9.91,9.91,0,0,0-2.23-5.88,84.52,84.52,0,0,1-6.07-9.16,0,0,0,0,1,0,0c-1-1.22-.5-2.08-2-9.19-.08-.37-.17-.73-.28-1.07,0-.16-.1-.3-.16-.46a12,12,0,0,0,2.83-12.43,5,5,0,0,0-1.42-2.2c-1.69-1.38-4.39-.81-6.13-2.12l1.85-8.18c.44-2,.67-4.53-1.08-5.61a9.08,9.08,0,0,0-2.06-.69c-3-1-4.74-4.17-5.52-7.22a24.74,24.74,0,0,1-.6-9c.34-2.9,1.19-5.72,1.5-8.63a23.7,23.7,0,0,0-3.67-15.34,11.81,11.81,0,0,0-4.85-4.58c-1.85-.83-4-1-5.73-2-3.72-2.37-3.53-8-6.5-11.23s-8.23-3.22-12.56-2.11-8.64,3-13.08,2.53c-2.86-.32-5.54-1.62-8.41-1.92a8.86,8.86,0,0,0-2.46.11l0-.09c-2.12.38-4.07,1.56-4.57,3.57a5.45,5.45,0,0,0-.14,1.46c0,1.17.28,2.39.3,3.51a3.34,3.34,0,0,1-.81,2.47c-.57.61-1.41.93-2,1.56a2.5,2.5,0,0,0-.73,1.84c0,1.78,2.22,3.35,3.71,4.07l.06,0c-.4.4-.8.82-1.17,1.25a26.34,26.34,0,0,0-6.62,17.49A26.7,26.7,0,0,0,817,457.92l-.21.65a37.31,37.31,0,0,1-1.47,3.78,7.49,7.49,0,0,0-6.28.7c-2.86,2-8.45,1.84-9.94,1.47s-17-2.33-18.25-1.84-3.72-1.71-5.33,1.23-2.36,4.53-4,5.27-4.47,3.06-4.09,3.55-4.1,3.43-4.1,3.43-3.85,4-6.08,4.53-6.95,3.56-6.95,3.56l-5.47,4.28s-4.09.62-2.85-2.2-2.24-6.37-2.24-6.37-6.95-14.09-6.95-17-5.71-15.32-5.71-15.32l-.7-.07-.32-.91c-1.05-2.95-2.41-6.57-3.45-8.69-2-4.05-3.23-4.47-3.23-4.47s-24.08-18.08-39.72-12.57,28.55,21.93,32.52,23.65c1.39.6,2.39,2.54,3.09,4.81a20.58,20.58,0,0,0-8.55,7.69s9.56,21.19,9.81,26.46,6.58,20,6.58,20,2.36,10.91,15.14,10.29c0,0,17.63,3.24,21.48,0s7.32-5.78,9.19-6.15a7.25,7.25,0,0,0,3.47-2.45s-5.83,36.75-8.69,39.94S735.57,589.62,744.64,597A181.21,181.21,0,0,0,767.35,612c.77.38,3.08-3.47,6.38-6.2,0,.69,0,1.39,0,2.13.06,14.68,2,37,4.68,42,4,7.35,2.36,21.56,2.36,21.56a17,17,0,0,0,6.71,1.61c.12.48.26,1,.39,1.5,2.19,8.27,5.74,21.06,7.55,24.46,2.73,5.15,4.71,21.45,4.71,21.45s1.62,16,1,18.25c-.24.85.81,7.51,2.46,16h0c-1,11.49-2.9,33.64-3.22,41.65v0c0,.15,0,.3,0,.44v.14a2.44,2.44,0,0,1,0,.27c0,.18,0,.34,0,.49v0a7.48,7.48,0,0,0,.06,1.51,4.9,4.9,0,0,1-.17,2.28,39.82,39.82,0,0,1-2.69,6.42,30.57,30.57,0,0,0-1.2,3.1c-1,.44-2.22,1.51-2.9,4.12-1.24,4.78-3.1,18-3.1,18s-.75,8.09-2.23,9.93-3,13.35,7.57,14.82,15.14-5.6,15.14-5.6l-.37-32.08v-.06a4.86,4.86,0,0,0,.55-.87l0-.08c.07-.15.15-.31.22-.49l.09-.24.16-.39a.57.57,0,0,1,0-.14,21.2,21.2,0,0,0,.9-9.55l0-.16,0-.25c0-.08,0-.17,0-.25v-.5c0-.06,0-.13,0-.19q0-.32.06-.66s0-.08,0-.12l.06-.39,0-.17c0-.13,0-.26.08-.4a.44.44,0,0,1,0-.1c.1-.46.22-1,.35-1.44l0-.11.15-.48v0c.15-.51.32-1,.5-1.54l0-.1c0-.16.11-.32.17-.47l0-.06c.18-.49.37-1,.55-1.42l.05-.13.16-.4.05-.12.38-.89h0l2.93,9.05s1.62,6.74.75,8.33,1,8.21,2.23,8.33l-1.15,8.33a127.4,127.4,0,0,0-1.11,13.85c-.08.53-.16,1-.22,1.32-.8,4.27,1.12,10.89,1.12,10.89,9.8,11.59,21.48.9,21.48.9s1.36-6.13,0-7.35-.75-5.64-.75-5.64.62-10.91.74-18.87-6.51-15-6.51-15l-.37.33c-1.21-3.12-2.59-6.76-2.3-8.39.5-2.82-1.37-32.59-1.37-32.59a176.54,176.54,0,0,0,.44-24h0c.16-1.35.31-2.68.46-4,.75-6.4,1.36-11.87,1.6-14.74v0l0-.34c.06-.77.09-1.32.08-1.58,0-1,0-2.14.1-3.39.23-3.44.77-7.27.77-7.27l2.6-15.81s2-7.72,4.85-12l.34-.54v0c.11-.19.22-.4.34-.62l.05-.09c.11-.21.23-.43.34-.66l.05-.09c.4-.79.83-1.7,1.28-2.7,0-.08.07-.15.1-.23l.34-.76c0-.1.08-.2.13-.3s.21-.51.32-.76a2.88,2.88,0,0,0,.13-.31c.13-.3.27-.61.4-.93l.19-.46c.09-.23.19-.46.29-.69l.24-.61c.07-.15.13-.3.19-.45l.27-.69c0-.1.09-.21.13-.31.71-1.77,1.39-3.52,2-5.11h0c.19-.5.38-1,.55-1.44,6.36.39,10.68.74,10.68.74s2-14.33,1.36-23.76c-.42-6.44.78-14.54,1.57-19,.09-.49.17-.93.25-1.33l.17.14c3.11,2.45,5.34-5.64,5.34-5.64s-.84-7.55-2-16.7l-.12-.91a47,47,0,0,0,5.43.83s1-.09,2.37-.26A65.61,65.61,0,0,0,886,610.2L892.61,598a49.64,49.64,0,0,1,4.35-7.23c2-2.45,9.06-10.29,8.94-11.76s2.36-9.93,4.84-13.73S914.21,553.84,914.09,553.23Zm-27.56,9.31c-2.61,1.1-5.09,7.23-5.21,9.07s-2.86,9.92-5.71,10.9c-2.63.9-7.65,5.52-8.45,6.26-.82.07-1.75.18-2.72.34-1.09-7.73-2.17-14.13-2.86-15.42-2-3.68,2.19-15.44,2.19-15.44s.41-11.88,3-14.7,2-9.93,2-9.93.62-2.94.87-4.28,3.69,0,3.72,0h0s6.7,3.67,7.7,9.18,8.32,15.07,8.32,15.07-1.12,3.31,0,5S889.14,561.44,886.53,562.54Z" transform="translate(-98.04 -31.61)" fill="url(#aaa84376-7da2-49a5-964f-b58018dda0eb)"/><path d="M707,457.83A20,20,0,0,1,727,448.41v14.31h-8.69L711.51,461Z" transform="translate(-98.04 -31.61)" fill="#4c4981"/><path d="M707,457.83A20,20,0,0,1,727,448.41v14.31h-8.69L711.51,461Z" transform="translate(-98.04 -31.61)" opacity="0.1"/><path d="M727.65,452.2,717,459.66s-.09-1.49-.36-3.53c-.53-3.86-1.72-9.65-4.29-10.77-3.91-1.72-47.44-18.1-32-23.61s39.13,12.55,39.13,12.55,1.22.42,3.17,4.45c1,2.12,2.37,5.73,3.4,8.68C727,450.09,727.65,452.2,727.65,452.2Z" transform="translate(-98.04 -31.61)" fill="#ae6e79"/><polygon points="714.69 432.08 715.9 431.51 719.3 435.39 716.52 441.32 711.78 439.42 712.88 434.68 714.69 432.08" fill="#4c4981"/><path d="M796.62,811s-3.06-.36-4.28,4.41-3.06,18-3.06,18-.73,8.07-2.2,9.91-2.93,13.33,7.46,14.79,14.92-5.59,14.92-5.59l-.37-32.07Z" transform="translate(-98.04 -31.61)" fill="#444053"/><path d="M832.88,812.44s6.54,7,6.42,14.94-.74,18.83-.74,18.83-.6,4.41.74,5.63,0,7.34,0,7.34-11.5,10.67-21.16-.9c0,0-1.88-6.61-1.1-10.87S820,824,820,824Z" transform="translate(-98.04 -31.61)" fill="#444053"/><path d="M849.08,666.21s-6.6,18.46-9.42,22.74-4.76,12-4.76,12l-2.57,15.77a88,88,0,0,0-.86,10.64c.12,3.55-6.36,55.27-6.36,55.27l-10.27,13.09s-4.52,9.17-3.79,13-.49,9.91-2,11.74c0,0-.24,12-.61,14.67s1.35,10.28,0,11.62-19.32.74-19.81-1.47,2.2-12.84,2.2-12.84l1.59-10.27s3.18-5.62,2.45-7.46,1.34-6.11,1.46-6.48,3.43-6.36,2.82-8.68S803,747.89,803,747.89l12.59-88.41Z" transform="translate(-98.04 -31.61)" fill="#ae6e79"/><path d="M849.08,666.21s-1,2.78-2.37,6.43c-2.18,5.76-5.32,13.69-7.05,16.31-2.81,4.28-4.77,12-4.77,12l-2.57,15.78a88.68,88.68,0,0,0-.85,10.64c0,1.4-.94,10.33-2.14,20.62-1.85,15.73-4.22,34.65-4.22,34.65l-10.27,13.09s-.52,1-1.17,2.58c-1.29,3-3.11,7.87-2.62,10.38.73,3.79-.49,9.9-2,11.74,0,0-.25,12-.61,14.67s1.35,10.27,0,11.62-19.32.74-19.81-1.46,2.2-12.84,2.2-12.84l1.59-10.28s3.18-5.62,2.44-7.46,1.35-6.11,1.47-6.48,3.43-6.36,2.82-8.68c-.47-1.77,2-30.74,3.15-44.48.39-4.32.64-7.13.64-7.13l10.83-76.06.88-6.13.88-6.22Z" transform="translate(-98.04 -31.61)" opacity="0.1"/><path d="M838.08,850.12c.11,1.35-17.25,3.31-19.73,1.84s0-19.69,0-19.69l1.13-8.31c-1.21-.13-3.05-6.73-2.2-8.32s-.73-8.31-.73-8.31l-2.88-9-1.76-5.51c-2.86-6.31-7-24.31-9.57-37.75-1.62-8.44-2.65-15.09-2.42-15.94.61-2.2-1-18.22-1-18.22s-2-16.27-4.64-21.4c-1.79-3.4-5.28-16.17-7.44-24.41-1.1-4.23-1.86-7.27-1.86-7.27s18.48-1.55,29.69-2.09c5.15-.25,8.77-.28,8.35.14s-.53,2.66-.51,5.9c.05,8.39,1.22,23.15,2.46,27.12,1.71,5.5,3.42,22,2.69,23.6s-.49,12.23-.49,12.23A55,55,0,0,1,829.33,748a179.39,179.39,0,0,1-.42,23.89s1.83,29.72,1.34,32.53,3.91,11.62,3.91,13.33,1.22,13.33,1.22,13.33S838,848.78,838.08,850.12Z" transform="translate(-98.04 -31.61)" fill="#ae6e79"/><path d="M847.73,492.92l-2.1,2.27-1.37,1.48-8,8.6-20.67,2.33-11-2.94-2.72-.73s0-5.52.49-12.14c.7-8.49,2.37-18.8,6.36-21.61a15.89,15.89,0,0,0,4.65-5.89,33.18,33.18,0,0,0,2-4.94c.08-.22.14-.43.21-.65a55.22,55.22,0,0,0,1.94-9.07s2.64-1.46,6.31-3.16c9.57-4.47,26.1-10.64,20.35,3.16a54,54,0,0,0-2.16,6.2c-.09.31-.17.62-.24.92-1.92,7.68-.65,12.34.78,14.91h0a9.33,9.33,0,0,0,.83,1.27,6.67,6.67,0,0,0,1.39,1.41l2.38,15.11.2,1.25Z" transform="translate(-98.04 -31.61)" fill="#ae6e79"/><path d="M844.19,450.37c-1.09,2.62.53-2.14,0,0-4.36,3.1-14.63,11.93-20.4,11.93-3.9,0-5.07-.71-8.41-2.22a54.56,54.56,0,0,0,2.15-9.71S852.14,431.29,844.19,450.37Z" transform="translate(-98.04 -31.61)" opacity="0.1"/><path d="M853,434.3a26.68,26.68,0,0,1-23.87,26.51c-.92.09-1.85.15-2.79.15A26.66,26.66,0,1,1,853,434.3Z" transform="translate(-98.04 -31.61)" fill="#ae6e79"/><path d="M856.79,552.48l-3.8,9.91s-3.09.13-7.91.28c-16.27.52-52.12,1.18-53.72-3a10.63,10.63,0,0,1-.56-3.29c-.21-6.37,2.76-16.15,2.76-16.15s1.71-19.57,1.71-20.42-1.47-14.56-1.47-14.56l2.94-11,8.19-5.75s3.67,5.63,5.87,6.11,5.14,3.19,5.14,3.19,7.21,4.4,9.54,1.95,20.42-13.21,20.42-13.21l9.54,10.52Z" transform="translate(-98.04 -31.61)" opacity="0.1"/><path d="M856.79,554l-3.8,9.9s-3.09.14-7.91.29h-.47c-2.08.07-4.46.14-7,.19-12.93.3-30.74.38-40.05-1-3.5-.5-5.79-1.22-6.17-2.2a8.83,8.83,0,0,1-.44-1.82c-.06-.46-.1-1-.12-1.47-.21-6.37,2.76-16.15,2.76-16.15s1.71-19.57,1.71-20.42-1.47-14.56-1.47-14.56l2.94-11,5.63-3.94,2.56-1.8a38.37,38.37,0,0,0,2.81,3.7,7.48,7.48,0,0,0,3.06,2.41c2.21.49,5.14,3.19,5.14,3.19s7.21,4.4,9.54,1.95c1.77-1.87,12.77-8.6,17.85-11.67,1.56-.95,2.57-1.54,2.57-1.54l1.28,1.42,8.26,9.1Z" transform="translate(-98.04 -31.61)" fill="#fff"/><path d="M727.65,452.2,717,459.66s-.09-1.49-.36-3.53c5.26-2.22,8.46-7.13,9.38-8.7C727,450.09,727.65,452.2,727.65,452.2Z" transform="translate(-98.04 -31.61)" opacity="0.1"/><path d="M765.07,477.52l-2.32-.62s-3.8,4-6,4.53-6.84,3.54-6.84,3.54l-5.39,4.28s-4,.62-2.81-2.2-2.2-6.36-2.2-6.36-6.85-14.06-6.85-17S727,448.41,727,448.41s-7.1,13.82-20.06,9.42c0,0,9.42,21.15,9.66,26.41s6.48,19.93,6.48,19.93,2.33,10.89,14.92,10.28c0,0,17.37,3.23,21.16,0s7.21-5.77,9-6.14,3.42-2.44,3.42-2.44V491.33Z" transform="translate(-98.04 -31.61)" fill="#4c4981"/><path d="M743.3,491.33s3.06,11.38,1.1,12.6Z" transform="translate(-98.04 -31.61)" opacity="0.1"/><path d="M845.08,564.14c-16.27.52-52.12,1.17-53.72-3a10.63,10.63,0,0,1-.56-3.29l53.15,2.8Z" transform="translate(-98.04 -31.61)" opacity="0.1"/><path d="M849.08,666.21s-1,2.78-2.37,6.43c-6.75-.41-15.69-.84-24.18-.9-3,0-5.94,0-8.72.1-5.9.18-11,.66-14.25,1.58a37.79,37.79,0,0,1-12.7,1.64c-1.1-4.23-1.86-7.27-1.86-7.27s18.48-1.55,29.69-2.09l.88-6.22Z" transform="translate(-98.04 -31.61)" opacity="0.1"/><path d="M863.39,621.45l-2.08,4.4s-.29,1.31-.66,3.39c-.78,4.48-2,12.56-1.54,19,.61,9.42-1.35,23.72-1.35,23.72s-45-3.79-58.2,0-19.7,0-19.7,0,1.6-14.18-2.32-21.52c-2.67-5-4.55-27.32-4.61-42,0-6.77.34-11.9,1.19-12.94,2.69-3.3,14.18-36.32,14.18-36.32l2.62.14,7,.37,39.8,2.1,6.25.33.66,2Z" transform="translate(-98.04 -31.61)" fill="#444053"/><path d="M883.2,606.77l.37,3.92s-19.71-6.42-18.71-14.31,0-7,0-7l15.84,1.34Z" transform="translate(-98.04 -31.61)" fill="#4c4981"/><path d="M883.2,606.77l.37,3.92s-19.71-6.42-18.71-14.31,0-7,0-7l15.84,1.34Z" transform="translate(-98.04 -31.61)" opacity="0.1"/><path d="M756.45,494.49a17.56,17.56,0,0,0,6.94,3.61,4.52,4.52,0,0,1-2-1c-1.41-1-2.75-2.09-4.11-3.15-1.1-.86-2.47-2.29-3.82-2.64A21.06,21.06,0,0,0,756.45,494.49Z" transform="translate(-98.04 -31.61)" opacity="0.1"/><path d="M756.75,499.64a8.83,8.83,0,0,1,1.52,2.41,14.57,14.57,0,0,1-.11,7.57L755,502c-.55-1.3-1.1-2.6-1.76-3.84-.29-.53-2.11-2.74-1.9-3.2C751.9,493.66,756.16,498.91,756.75,499.64Z" transform="translate(-98.04 -31.61)" opacity="0.1"/><path d="M844.92,541.84a10.18,10.18,0,0,0,5.75-2.69c-3.25.41-6.33,1.69-9.53,2.36a14.16,14.16,0,0,1-8.88-.82C835.94,542.49,841,542.55,844.92,541.84Z" transform="translate(-98.04 -31.61)" opacity="0.1"/><path d="M835.73,519.45a2.23,2.23,0,0,1-1.65-.41q-3.66-2.1-7.22-4.38c-2.31-1.49-5.1-3-7.07-4.88C824.64,514.16,829.16,517.86,835.73,519.45Z" transform="translate(-98.04 -31.61)" opacity="0.1"/><path d="M842.51,545.39a15.22,15.22,0,0,0,3.82-.31,5.12,5.12,0,0,0,3.14-2.06,1.8,1.8,0,0,0-1.33.21,22.44,22.44,0,0,1-12.28,1.47C837.85,545.55,840.4,545.38,842.51,545.39Z" transform="translate(-98.04 -31.61)" opacity="0.1"/><path d="M819.35,602.17a40.11,40.11,0,0,1-7.81,1.53,47.19,47.19,0,0,1-6.18-.12l-10-.63-5-.32c-.59,0-3,0-1.81-1.19.6-.58,3.94-.21,4.8-.24q2.49-.08,5-.09c3.31,0,6.63,0,9.94.2C812,601.49,815.65,601.77,819.35,602.17Z" transform="translate(-98.04 -31.61)" opacity="0.1"/><path d="M807.76,607.12c-1.7-.07-3.89.94-5.64,1.16a37.53,37.53,0,0,1-5.9.23,32.9,32.9,0,0,1-11.37-2.32C792.48,606.58,800.13,606.81,807.76,607.12Z" transform="translate(-98.04 -31.61)" opacity="0.1"/><path d="M786.34,612.36a16.35,16.35,0,0,1,2.18.6c4.22,1.2,8.71.14,13-.92-1.07,1.61-3,2.3-4.93,2.74a22.86,22.86,0,0,1-9.6.35c-1-.2-3.51-.56-4-1.6C782.17,612,785.4,612.21,786.34,612.36Z" transform="translate(-98.04 -31.61)" opacity="0.1"/><path d="M810,620.25a32.61,32.61,0,0,1,3.74,1c4.75,1.18,9.68-.44,14.45-1.53a67.27,67.27,0,0,1,17.49-1.62c-1.05,0-2.72.92-3.75,1.23-1.35.41-2.72.79-4.09,1.13-2.69.66-5.42,1.2-8.17,1.59a84,84,0,0,1-16.77.73c-2.56-.14-7,.12-9.19-1.17A10.13,10.13,0,0,1,810,620.25Z" transform="translate(-98.04 -31.61)" opacity="0.1"/><path d="M811.79,469.43s.24,11.26-1.59,16.4c-.58,1.6-1.48,4.55-2.46,7.86-1.07,3.67-2.24,7.78-3.14,11s-1.5,5.38-1.5,5.38-4.13,33.64-5.2,49.67c0,.28,0,.57-.06.84-.06.9-.16,1.84-.31,2.81-2.38,15.92-16.11,40.47-20.72,42.43a13.72,13.72,0,0,0-3.88,2.67c0-6.77.34-11.9,1.19-12.94,2.69-3.3,14.18-36.32,14.18-36.32l2.62.14c-.06-.46-.1-1-.12-1.47-.21-6.37,2.76-16.15,2.76-16.15s1.71-19.57,1.71-20.42-1.47-14.56-1.47-14.56l2.94-11,5.63-3.94c.7-8.49,2.37-18.8,6.36-21.61a15.89,15.89,0,0,0,4.65-5.89c.79.11-.65-.59-.65-.59Z" transform="translate(-98.04 -31.61)" opacity="0.1"/><path d="M813.94,463.12a7.28,7.28,0,0,0-6.19.7c-2.82,2-8.32,1.83-9.79,1.47s-16.75-2.33-18-1.84-3.67-1.71-5.26,1.23-2.32,4.52-3.91,5.25-4.41,3.06-4,3.55-4,3.42-4,3.42l8.92,29s-5.75,36.68-8.56,39.86-27.76,44.39-18.83,51.73a177.72,177.72,0,0,0,22.38,15c1,.49,4.52-6.11,9.41-8.19s20.06-29.6,21-45.25,5.26-50.5,5.26-50.5,5.26-19.08,7.09-24.22,1.59-16.4,1.59-16.4Z" transform="translate(-98.04 -31.61)" fill="#4c4981"/><path d="M863.39,621.45l-2.08,4.4s-.29,1.31-.66,3.39a1.87,1.87,0,0,1-1-.45c-3.06-2.45-21-20.91-21.89-37.3-.63-12.09-.33-22.51-.13-27.15.06-1.46.12-2.34.12-2.53v0s13.94-16.88,12.35-22.86-5.26-38-5.26-38l-.54-4.2-.93-7.1-2.22-17.18,2.3.54a6.67,6.67,0,0,0,1.39,1.41l2.38,15.11,8.26,9.1,1.35,55.4-3.8,9.9s-3.09.14-7.91.29h-.47Z" transform="translate(-98.04 -31.61)" opacity="0.1"/><path d="M871.09,530s-3.42-1.35-3.66,0-.86,4.27-.86,4.27.61,7.1-2,9.91-3,14.67-3,14.67-4.12,11.74-2.17,15.41c.71,1.33,1.81,8,2.91,16,.7,5,1.39,10.49,2,15.51,1.11,9.12,1.94,16.67,1.94,16.67s-2.21,8.07-5.27,5.62-21-20.91-21.88-37.3c-.6-11.51-.36-21.51-.16-26.44.08-2.09.16-3.27.16-3.27s13.94-16.88,12.35-22.87-5.26-38-5.26-38l-.64-4.95-.69-5.32-.16-1.17-2.21-17h0c.39.09,14.11,3.19,15.92,5s13,4.4,13,4.4a9.78,9.78,0,0,1,6.94,7.12c.11.34.19.7.27,1.07,1.47,7.1,1,7.95,2,9.18S871.09,530,871.09,530Z" transform="translate(-98.04 -31.61)" fill="#4c4981"/><path d="M864.39,605.76c-5-1-12.42-3.31-12.25-8.41.15-4.77,5.89-6.49,10.24-7.1C863.08,595.23,863.77,600.74,864.39,605.76Z" transform="translate(-98.04 -31.61)" opacity="0.1"/><path d="M879.9,603.22c-.2.43-1,.8-2.14,1.13a57.67,57.67,0,0,1-8.13,1.33s-17-1.35-16.76-9.06c.18-5.53,7.86-7,12.17-7.33a28,28,0,0,1,2.87-.12S880.63,601.64,879.9,603.22Z" transform="translate(-98.04 -31.61)" fill="#ae6e79"/><path d="M879.9,603.22c-.2.43-1,.8-2.14,1.13-4.43-5.93-10.61-13.54-13.64-14.21l.92-.85a28,28,0,0,1,2.87-.12S880.63,601.64,879.9,603.22Z" transform="translate(-98.04 -31.61)" opacity="0.1"/><path d="M875.62,497.69l5,.74a86.89,86.89,0,0,0,6,9.17,10,10,0,0,1,2.2,5.87s7.34,10.88,9.66,12.1,5.87,9.54,5.87,9.54,5.75,3.79,5.75,8.07a71.89,71.89,0,0,0,1.1,10.64c.13.61-.85,8.2-3.3,12S903,578,903.13,579.5s-6.85,9.3-8.8,11.74a49.72,49.72,0,0,0-4.28,7.22l-6.48,12.23s-13.7-20.18-18.71-21.28c0,0,5.62-5.38,8.43-6.36s5.51-9,5.63-10.88,2.57-7.95,5.13-9,3.92-2.2,2.82-3.92,0-5,0-5-7.22-9.54-8.2-15-7.58-9.17-7.58-9.17l-3.79-9.3Z" transform="translate(-98.04 -31.61)" fill="#4c4981"/><path d="M893.81,543.34a15.87,15.87,0,0,1,9.87-3.74c-2.32.4-4.76.91-6.46,2.53a15.24,15.24,0,0,0-1.79,2.28c-.58.83-5.3,6.83-6,5.88C888.26,548.9,892.86,544.15,893.81,543.34Z" transform="translate(-98.04 -31.61)" opacity="0.1"/><path d="M882.73,537.55a4.23,4.23,0,0,0,3.49-2.47,13.85,13.85,0,0,0,1.09-4.34,64.76,64.76,0,0,1,1.51-7.43,3.44,3.44,0,0,0-.21-3,10.15,10.15,0,0,0-1.08-2.22c-.9,1-1.16,3.33-1.53,4.67-.46,1.66-.88,3.33-1.28,5C884.51,528.56,882.85,537.55,882.73,537.55Z" transform="translate(-98.04 -31.61)" opacity="0.1"/><path d="M878.4,488.18a10.3,10.3,0,0,1-1.69,1.74c-2,1.59-4.65,2.93-4.9,5.44a5.85,5.85,0,0,1-.3,2.41c-.64,1.1-2.21,1-3.46.79a6,6,0,0,1-2.93-1.08c-1.31-1.12-1.43-3.12-2.43-4.53a6.17,6.17,0,0,0-5-2.21c-1.87-.06-3.73.36-5.6.44a15.39,15.39,0,0,1-3.59-.24,11.36,11.36,0,0,1-1.16-.24,14.92,14.92,0,0,1-2.44-.83,10.74,10.74,0,0,1-1.19-.56,15.8,15.8,0,0,1-3.45-2.4c-1.83-1.68-3.35-4-3.2-6.49.09-1.53.78-2.94,1-4.45.75-4.32-2.12-8.4-5.23-11.49-1.24-1.23-2.56-2.42-3.8-3.67a18.29,18.29,0,0,1-4.47-6.38,19,19,0,0,1-.8-8,55.19,55.19,0,0,0,.23-8.22c-.92-9.72-9.22-17.17-17.52-21.22l-.37-.19a26.65,26.65,0,1,1,35.85,39c-.09.31-.17.62-.24.92-1.92,7.68-.65,12.34.78,14.91h0c.39.09,14.11,3.19,15.92,5s13,4.4,13,4.4A9.78,9.78,0,0,1,878.4,488.18Z" transform="translate(-98.04 -31.61)" opacity="0.1"/><path d="M804.34,409.75c.55-.63,1.38-.95,1.94-1.56,1.73-1.88,0-4.95.63-7.43.68-2.75,4.06-3.95,6.88-3.66s5.46,1.59,8.28,1.91c4.38.49,8.62-1.41,12.89-2.52s9.43-1.17,12.37,2.1,2.74,8.84,6.4,11.21c1.69,1.09,3.82,1.21,5.65,2a11.61,11.61,0,0,1,4.78,4.57,23.94,23.94,0,0,1,3.62,15.31c-.31,2.9-1.15,5.72-1.49,8.62a25.1,25.1,0,0,0,.6,9c.77,3,2.44,6.24,5.43,7.2a9.16,9.16,0,0,1,2,.69c1.73,1.08,1.5,3.62,1.06,5.6L873.6,471c1.71,1.3,4.37.74,6,2.11a5,5,0,0,1,1.4,2.2,12,12,0,0,1-3.59,13.14c-2,1.59-4.65,2.93-4.9,5.43a5.64,5.64,0,0,1-.3,2.41c-.63,1.1-2.21,1-3.46.79a6,6,0,0,1-2.92-1.08c-1.32-1.12-1.43-3.12-2.43-4.53a6.19,6.19,0,0,0-5-2.21c-1.88-.06-3.73.36-5.61.45A16.58,16.58,0,0,1,841,485.45c-1.84-1.69-3.35-4-3.21-6.5.09-1.52.78-2.94,1-4.45.74-4.31-2.12-8.4-5.23-11.49s-6.76-5.94-8.28-10.05c-1.9-5.09-.06-10.77-.57-16.17-.92-9.73-9.21-17.17-17.52-21.23C805.34,414.61,802.19,412.2,804.34,409.75Z" transform="translate(-98.04 -31.61)" fill="#444053"/><path d="M869.74,493.73c-1.32-1.13-1.43-3.12-2.43-4.53a6.21,6.21,0,0,0-5-2.22c-1.88-.06-3.74.36-5.61.45a16.53,16.53,0,0,1-11.83-4.27c-1.84-1.68-3.34-4-3.2-6.49.09-1.53.78-2.95,1-4.45.75-4.32-2.12-8.41-5.23-11.5s-6.75-5.94-8.28-10.05c-1.89-5.08,0-10.76-.56-16.17-.93-9.73-9.22-17.17-17.52-21.23-1.94-.95-5.09-3.36-2.94-5.81.54-.63,1.37-.95,1.93-1.56,1.73-1.87,0-4.95.64-7.42a4.08,4.08,0,0,1,.63-1.37c-2.09.39-4,1.57-4.51,3.57-.61,2.48,1.1,5.55-.63,7.43-.56.61-1.39.93-1.94,1.55-2.15,2.45,1,4.87,2.94,5.81,8.31,4.06,16.6,11.51,17.52,21.23.51,5.41-1.33,11.09.57,16.18,1.52,4.1,5.17,7,8.28,10.05s6,7.17,5.23,11.49a38.3,38.3,0,0,0-1,4.45c-.14,2.49,1.37,4.81,3.21,6.49a16.49,16.49,0,0,0,11.82,4.27c1.88-.09,3.73-.5,5.61-.45a6.22,6.22,0,0,1,5,2.22c1,1.41,1.11,3.41,2.43,4.53a6,6,0,0,0,2.92,1.07c1.25.23,2.83.31,3.46-.78a2.7,2.7,0,0,0,.28-1.44A5.75,5.75,0,0,1,869.74,493.73Z" transform="translate(-98.04 -31.61)" opacity="0.1"/><path d="M724.17,434.3H655V366.14h69.22Zm-1-102.77H656c0-105.92,100.68-99.73,100.68-166.74,0-36.91-30.21-66.48-67.12-66.48s-67.11,31.88-67.11,67.53H555.33A134,134,0,0,1,689.56,31.61c74.14,0,134.23,59.15,134.23,133.18C823.79,248.58,723.12,258.12,723.12,331.53Z" transform="translate(-98.04 -31.61)" fill="#4263ac"/><path d="M379.18,414H361.34V396.38h17.84Zm-.27-26.5h-17.3c0-27.3,25.95-25.71,25.95-43a17.22,17.22,0,0,0-17.3-17.15A17.67,17.67,0,0,0,353,344.75h-17.3a34.61,34.61,0,0,1,69.21-.27C404.86,366.08,378.91,368.54,378.91,387.46Z" transform="translate(-98.04 -31.61)" fill="#4263ac" opacity="0.1"/><path d="M514.26,536.41H496.42V518.84h17.84ZM514,509.92h-17.3c0-27.31,25.95-25.71,25.95-43a17.21,17.21,0,0,0-17.3-17.14A17.67,17.67,0,0,0,488,467.2h-17.3a34.61,34.61,0,0,1,69.21-.27C539.94,488.53,514,491,514,509.92Z" transform="translate(-98.04 -31.61)" fill="#4263ac" opacity="0.1"/><path d="M596.4,319.71H583.47V307H596.4Zm-.19-19.21H583.67c0-19.78,18.81-18.63,18.81-31.15a12.48,12.48,0,0,0-12.54-12.42,12.8,12.8,0,0,0-12.54,12.62H564.86a25.08,25.08,0,0,1,50.16-.2C615,285,596.21,286.79,596.21,300.5Z" transform="translate(-98.04 -31.61)" fill="#4263ac" opacity="0.1"/><path d="M817.24,337.65h-7.31v-7.2h7.31Zm-.11-10.85H810c0-11.18,10.63-10.53,10.63-17.61a7,7,0,0,0-7.08-7,7.24,7.24,0,0,0-7.09,7.13h-7.09a14.18,14.18,0,0,1,28.35-.11C827.76,318,817.13,319.05,817.13,326.8Z" transform="translate(-98.04 -31.61)" fill="#4263ac" opacity="0.1"/><path d="M929,665.12h-7.31v-7.2H929Zm-.11-10.85h-7.09c0-11.19,10.64-10.53,10.64-17.61a7.05,7.05,0,0,0-7.09-7,7.23,7.23,0,0,0-7.09,7.13h-7.09a14.18,14.18,0,0,1,28.35-.11C939.56,645.51,928.93,646.52,928.93,654.27Z" transform="translate(-98.04 -31.61)" fill="#4263ac" opacity="0.1"/></svg>