<svg id="Layer_1" data-name="Layer 1" xmlns="http://www.w3.org/2000/svg" width="117" height="81.00006" viewBox="0 0 117 81.00006">
  <defs>
    <style>
      .cls-1 {
        fill: #fff;
        opacity: 0.2;
        isolation: isolate;
      }
    </style>
  </defs>
  <title>Experiments</title>
  <path class="cls-1" d="M181.5,14.50012C167,33.50012,202,56,179.5,65S153.947,50.169,133,57.5C123.00006,61,122.49994,69.00006,112.00012,81H210V17C209.5,11.50012,193.1-.69989,181.5,14.50012Z" transform="translate(-93 0.00006)"/>
  <path class="cls-1" d="M180.79108-.00006A17.19978,17.19978,0,0,0,178.181,4.00031C168.255,24.94672,205.501,36,188.336,50.49994,176.443,60.54742,166.79,32.91974,138.001,39.5c-17.5,4-9.5,32.5-44.65729,41.5H210V-.00006Z" transform="translate(-93 0.00006)"/>
  <path class="cls-1" d="M156.5,6c18,6,1.571,12.19543,13.5,20.5,17.215,11.98462-7.956,23.18713,2,40.5,4.753,8.2655,21.704,5.32141,38,14V0H93C128.261,7.43878,139.556.35211,156.5,6Z" transform="translate(-93 0.00006)"/>
</svg>
