<svg id="Layer_1" data-name="Layer 1" xmlns="http://www.w3.org/2000/svg" width="142.99939" height="80.99994" viewBox="0 0 142.99939 80.99994">
  <defs>
    <style>
      .cls-1 {
        fill: #fff;
        opacity: 0.2;
        isolation: isolate;
      }
    </style>
  </defs>
  <title>Runs</title>
  <path class="cls-1" d="M210,.00006H158.28735c-2.86651,19.94092,38.83081,41.85217,30.71363,54.5-5.885,9.16968-15.711-.58032-44.5,6C127.001,64.50006,128.501,72,93.34393,81H210Z" transform="translate(-67.00061 -0.00006)"/>
  <path class="cls-1" d="M203,36.00012c-12.5,13.5-19.96-13.49994-41,1-14.58,10.04749,10.29,31.41968-25,38-21.4519,4-26.90393-2.99981-69.99939,5.99988H210V.00006h-9.01129C200.72253,13.83673,207.94116,30.66351,203,36.00012Z" transform="translate(-67.00061 -0.00006)"/>
  <path class="cls-1" d="M72,.00006c10.5,11.28192,53.92,6.76245,62,11,13.5,7.08045-4,15.082,10.5,27,10.047,8.25842,23.42,5.51074,30,25.5C178.5,75.65106,201,56.58881,210,81h0V.00006Z" transform="translate(-67.00061 -0.00006)"/>
</svg>
