<svg xmlns="http://www.w3.org/2000/svg" viewBox="0 0 44 44">
    <path fill="#cc231a" d="M22,3A19,19,0,1,0,41,22,19,19,0,0,0,22,3Zm7.91309,24.794.1455.15332a1.50037,1.50037,0,0,1,.38477.48535,1.46959,1.46959,0,0,1,.1543.59863A1.49927,1.49927,0,0,1,29.6416,30.499a1.39236,1.39236,0,0,1-.61133.09864,1.48626,1.48626,0,0,1-.59961-.1543,1.551,1.551,0,0,1-.50976-.41309L22,24.11328l-5.94531,5.93555a1.49689,1.49689,0,0,1-.48584.38476,1.47552,1.47552,0,0,1-.59912.15528,1.33873,1.33873,0,0,1-.61084-.09864,1.505,1.505,0,0,1-.51953-.33886,1.474,1.474,0,0,1-.3379-.51856,1.49377,1.49377,0,0,1,.05616-1.21,1.55724,1.55724,0,0,1,.41211-.50976L19.605,22.27832l.28369-.28223-5.94678-5.94238a1.49988,1.49988,0,0,1,.41651-2.55225,1.441,1.441,0,0,1,.61133-.10009,1.4941,1.4941,0,0,1,.59912.15625,1.55409,1.55409,0,0,1,.51074.41211L22,19.88623l5.94434-5.94434a1.5084,1.5084,0,0,1,1.08593-.54052,1.43985,1.43985,0,0,1,.61133.10009,1.50239,1.50239,0,0,1,.80176,2.06641,1.57937,1.57937,0,0,1-.41309.51074l-5.91894,5.917Z"/>
</svg>